<svg width="20" height="18" viewBox="0 0 20 18" fill="none" xmlns="http://www.w3.org/2000/svg">
<path d="M16.474 14.7619C16.538 14.7659 16.607 14.7739 16.676 14.7739C17.653 14.7749 16.5845 14.7639 17.5615 14.7739C17.858 14.7609 18.0038 14.7739 17.9998 14.6959C17.9858 14.4289 17.9998 14.33 17.9998 14L20 16L18 18L17.9998 17.5C17.9998 17.3099 17.9557 17.3099 17.9557 17.3099H0.807007C0.505007 17.3099 0.505007 17.3099 0.505007 17.0059C0.505007 16.3469 0.514007 15.6879 0.500007 15.0299C0.495007 14.8159 0.564006 14.7679 0.769006 14.7689C4.12801 14.7749 7.48701 14.7799 10.846 14.7709C12.568 14.7659 13.927 14.0529 14.826 12.5689C16.448 9.88894 14.757 6.37894 11.649 5.92694C9.24901 5.57794 7.01801 7.18894 6.61101 9.62994C6.56801 9.88394 6.56501 10.1449 6.54001 10.4509L7.69201 10.2949L5.83401 13.8869L3.04201 11.0099C3.27101 10.9719 3.57501 10.9279 3.87601 10.8649C3.93301 10.8529 4.01701 10.7609 4.01501 10.7079C3.99449 10.0716 4.04547 9.43493 4.16701 8.80995C4.17101 8.79095 4.16201 8.76895 4.15601 8.73195C3.54994 8.63313 2.97319 8.40161 2.46701 8.05394C1.21301 7.18594 0.557007 5.57094 0.865007 4.09894C1.20001 2.49494 2.41001 1.29594 3.97401 0.999945C4.98801 0.808945 5.92801 0.990945 6.80101 1.52695C6.95501 1.62195 7.04901 1.63594 7.15001 1.47094C7.20901 1.37394 7.29801 1.29594 7.40001 1.17794L7.76401 2.64794C7.80401 2.80894 7.83501 2.97294 7.88201 3.13194C7.93301 3.30394 7.88101 3.38095 7.69901 3.36895C7.17301 3.33295 6.64601 3.30094 6.12001 3.26594C5.99001 3.25694 5.86101 3.24294 5.69401 3.22694L6.07101 2.75494C5.79974 2.55402 5.48237 2.42439 5.14801 2.37794C4.78159 2.31513 4.40579 2.3345 4.04777 2.43464C3.68975 2.53479 3.35845 2.71321 3.0778 2.95702C2.79715 3.20083 2.57417 3.50394 2.42495 3.84444C2.27574 4.18495 2.20403 4.55434 2.21501 4.92594C2.23901 6.14994 3.27101 7.24395 4.49001 7.34795C4.64801 7.36095 4.70301 7.28094 4.76401 7.16294C5.62801 5.50494 6.92901 4.33295 8.69901 3.72295C12.794 2.31095 17.069 4.84095 17.858 8.98195C18.247 11.0209 17.804 12.8829 16.567 14.5519C16.5333 14.5985 16.5016 14.6466 16.472 14.6959C16.466 14.7049 16.474 14.7229 16.479 14.7609L16.474 14.7619Z" fill="black"/>
</svg>
