<svg id="Capa_1" enable-background="new 0 0 512 512" height="512" viewBox="0 0 512 512" width="512" xmlns="http://www.w3.org/2000/svg"><g><g><path d="m319.69 320.286c20.394-20.547 48.642-33.286 79.81-33.286 20.999 0 41.107 5.685 58.741 16.527 5.816-20.239 8.759-41.227 8.759-62.527 0-124.617-101.383-226-226-226s-226 101.383-226 226 101.383 226 226 226c12.961 0 25.955-1.105 38.621-3.286 4.083-.707 7.961 2.037 8.664 6.119s-2.037 7.961-6.119 8.664c-13.504 2.324-27.355 3.503-41.166 3.503-64.374 0-124.894-25.068-170.413-70.588-45.519-45.518-70.587-106.039-70.587-170.412s25.068-124.893 70.587-170.412c45.519-45.52 106.039-70.588 170.413-70.588s124.894 25.068 170.413 70.588c45.519 45.519 70.587 106.039 70.587 170.412 0 26.244-4.193 52.049-12.464 76.701-.089.279-.196.554-.319.824-.398.873-.949 1.64-1.609 2.276-2.6 2.523-6.722 2.852-9.712.612-16.954-12.7-37.147-19.413-58.396-19.413-53.762 0-97.5 43.738-97.5 97.5s43.738 97.5 97.5 97.5 97.5-43.738 97.5-97.5c0-16.775-4.232-33.013-12.312-47.468l-88.041 88.04c-2.929 2.928-7.678 2.928-10.606 0l-50.267-50.267c-2.929-2.93-2.929-7.678 0-10.607 2.929-2.928 7.678-2.928 10.606 0l44.963 44.964 107.852-107.852c2.929-2.929 7.678-2.927 10.606 0 2.929 2.93 2.929 7.678 0 10.607l-14.149 14.149c10.715 17.582 16.348 37.654 16.348 58.434 0 62.033-50.467 112.5-112.5 112.5s-112.5-50.467-112.5-112.5c0-6.52.557-12.909 1.627-19.128-7.938 1.212-16.302 1.824-24.984 1.824-47.326 0-66.13-23.465-75.167-34.742-.671-.837-1.432-1.787-2.079-2.552-.477.194-.986.408-1.451.604-5.913 2.488-15.809 6.653-33.417 6.653-4.142 0-7.5-3.357-7.5-7.5s3.358-7.5 7.5-7.5c14.58 0 22.415-3.297 27.599-5.479 3.86-1.624 7.508-3.155 11.661-1.873 3.682 1.14 6.077 4.129 9.393 8.267 8.156 10.178 23.338 29.122 63.462 29.122 10.259 0 19.983-.929 28.951-2.763 1.608-4.891 3.542-9.631 5.778-14.202-7.249 2.312-15.652 3.857-25.162 3.857-4.142 0-7.5-3.357-7.5-7.5s3.358-7.5 7.5-7.5c26.019.001 42.315-14.537 46.479-18.802zm-78.69 86.714c-31.768 0-60.164-12.222-79.958-34.413-2.757-3.091-2.486-7.832.605-10.589 3.091-2.756 7.832-2.486 10.589.604 16.909 18.958 41.33 29.398 68.764 29.398 4.142 0 7.5 3.357 7.5 7.5s-3.358 7.5-7.5 7.5zm6.612-56.685c-.761 0-1.535-.116-2.298-.362-17.591-5.658-31.89-17.262-41.352-33.556-3.714-6.397-6.693-13.538-8.899-21.267-11.976 20.554-32.539 30.214-52.131 30.214-4.142 0-7.5-3.357-7.5-7.5s3.358-7.5 7.5-7.5c17.648 0 47.515-12.199 47.515-57.923v-37.103c0-61.133 26.114-82.914 50.553-82.914 20.208 0 36.428 14.224 44.5 39.024 1.282 3.938-.872 8.171-4.811 9.453s-8.171-.871-9.453-4.811c-3.484-10.706-12.046-28.667-30.237-28.667-21.93 0-35.553 26.023-35.553 67.914v44.854c0 38.894 16.205 66.412 44.46 75.5 3.943 1.269 6.112 5.493 4.843 9.437-1.021 3.181-3.967 5.207-7.137 5.207zm27.125-24.971c-17.901 0-32.682-7.426-42.744-21.476-8.283-11.564-12.844-27.082-12.844-43.695v-44.854c0-24.731 3.791-54.212 21.851-54.212 2.797 0 6.954.891 10.868 5.133 10.198 11.052 12.852 39.727 10.959 63.241-.333 4.128-3.953 7.207-8.078 6.874-4.128-.332-7.206-3.948-6.874-8.077 1.061-13.179.56-26.164-1.411-36.563-1.837-9.692-4.385-14.005-5.629-15.332-2.446 2.344-6.687 13.798-6.687 38.936 0 26.225 7.822 43.17 19.927 43.17 5.56 0 22.478 0 22.478-43.17 0-4.643-.171-9.165-.508-13.441-.326-4.13 2.758-7.741 6.887-8.066 4.121-.323 7.741 2.758 8.066 6.887.368 4.667.555 9.587.555 14.621 0 48.078-20.38 58.17-37.478 58.17-6.818 0-13.825-2.491-19.756-8.286 1.586 23.216 14.264 45.142 40.417 45.142 15.033 0 29.262-8.368 40.066-23.563 8.738-12.289 19.154-34.663 19.154-71.463 0-36.146-8.529-66.998-24.666-89.222-5.521-7.603-11.869-14.161-18.864-19.493-3.294-2.511-3.93-7.217-1.418-10.511 2.511-3.295 7.216-3.93 10.511-1.419 8.157 6.217 15.529 13.824 21.909 22.609 18.01 24.803 27.529 58.702 27.529 98.035.001 72.232-37.337 110.025-74.22 110.025zm-6.718-26.471c-4.142 0-7.5-3.357-7.5-7.5s3.358-7.5 7.5-7.5c25.584 0 37.237-35.537 37.237-68.555 0-29.543-6.752-56.456-18.061-71.992-11.559-15.879-27.964-24.624-46.194-24.624s-34.636 8.745-46.194 24.624c-5.733 7.877-10.441 19.005-13.613 32.179-.97 4.026-5.021 6.497-9.047 5.536-4.027-.97-6.505-5.021-5.536-9.048 3.629-15.072 9.186-28.038 16.069-37.494 14.456-19.86 35.168-30.797 58.322-30.797s43.866 10.937 58.321 30.796c13.304 18.276 20.934 47.734 20.934 80.82 0 21.985-4.415 42.205-12.431 56.936-9.344 17.166-23.48 26.619-39.807 26.619zm-127.477-.361c-4.142 0-7.5-3.357-7.5-7.5s3.358-7.5 7.5-7.5c13.276 0 21.202-11.623 21.202-31.091v-37.103c0-4.917.173-9.834.515-14.615.295-4.132 3.883-7.233 8.015-6.947 4.132.296 7.242 3.884 6.947 8.016-.316 4.427-.477 8.985-.477 13.547v37.103c.001 34.018-19.501 46.09-36.202 46.09zm0-31.602c-4.142 0-7.5-3.357-7.5-7.5v-44.092c0-39.333 9.519-73.232 27.528-98.034 19.8-27.267 48.364-42.284 80.43-42.284 11.417 0 22.492 1.908 32.919 5.672 3.896 1.406 5.915 5.705 4.508 9.602-1.407 3.896-5.703 5.917-9.601 4.508-8.789-3.174-18.151-4.782-27.826-4.782-27.136 0-51.389 12.819-68.292 36.097-16.137 22.224-24.666 53.076-24.666 89.222v44.092c0 4.142-3.357 7.499-7.5 7.499z"/></g></g></svg>