<svg width="270" height="2609" fill="none" xmlns="http://www.w3.org/2000/svg">
<path fill-rule="evenodd" clip-rule="evenodd" d="M127.892 0.966544C122.903 6.00862 118.058 11.0539 113.358 16.1023L127.996 29.7307C132.554 24.8348 137.258 19.9357 142.108 15.0335L127.892 0.966544ZM85.7784 47.8041C76.6805 59.0508 68.2956 70.3179 60.6286 81.6061L77.1733 92.8433C84.5082 82.044 92.5581 71.2235 101.328 60.3826L85.7784 47.8041ZM38.5702 117.765C31.6439 130.569 25.6389 143.403 20.5644 156.268L39.1692 163.607C43.9334 151.529 49.5944 139.42 56.1612 127.282L38.5702 117.765ZM7.65854 196.93C4.27326 211.009 2.00688 225.11 0.866132 239.227L20.8012 240.838C21.8564 227.779 23.9552 214.703 27.1043 201.605L7.65854 196.93ZM0.866126 282.106C2.00687 296.224 4.27325 310.324 7.65852 324.404L27.1043 319.728C23.9552 306.631 21.8564 293.554 20.8012 280.495L0.866126 282.106ZM20.5643 365.066C25.6389 377.93 31.6438 390.764 38.5702 403.568L56.1611 394.052C49.5944 381.913 43.9334 369.805 39.1692 357.727L20.5643 365.066ZM60.6286 439.727C68.2956 451.015 76.6805 462.283 85.7784 473.529L101.328 460.951C92.558 450.11 84.5082 439.289 77.1733 428.49L60.6286 439.727ZM113.358 505.231C118.058 510.279 122.903 515.325 127.892 520.367C132.742 525.269 137.446 530.168 142.004 535.064L156.642 521.436C151.942 516.387 147.097 511.342 142.108 506.3C137.258 501.398 132.554 496.498 127.995 491.603L113.358 505.231ZM168.672 565.716C177.442 576.557 185.492 587.377 192.827 598.177L209.371 586.939C201.704 575.651 193.319 564.384 184.222 553.137L168.672 565.716ZM213.839 632.615C220.406 644.754 226.067 656.862 230.831 668.94L249.436 661.601C244.361 648.736 238.356 635.902 231.43 623.099L213.839 632.615ZM242.896 706.938C246.045 720.036 248.144 733.112 249.199 746.171L269.134 744.561C267.993 730.443 265.727 716.342 262.341 702.263L242.896 706.938ZM249.199 785.828C248.144 798.888 246.045 811.964 242.896 825.061L262.341 829.737C265.727 815.658 267.993 801.557 269.134 787.439L249.199 785.828ZM230.831 863.06C226.067 875.138 220.406 887.246 213.839 899.385L231.43 908.901C238.356 896.098 244.361 883.263 249.436 870.399L230.831 863.06ZM192.827 933.823C185.492 944.623 177.442 955.443 168.672 966.284L184.222 978.862C193.32 967.616 201.704 956.349 209.371 945.06L192.827 933.823ZM142.005 996.936C137.446 1001.83 132.742 1006.73 127.892 1011.63C122.903 1016.68 118.058 1021.72 113.358 1026.77L127.996 1040.4C132.554 1035.5 137.258 1030.6 142.108 1025.7C147.097 1020.66 151.942 1015.61 156.642 1010.56L142.005 996.936ZM85.7784 1058.47C76.6805 1069.72 68.2956 1080.98 60.6286 1092.27L77.1733 1103.51C84.5082 1092.71 92.5581 1081.89 101.328 1071.05L85.7784 1058.47ZM38.5702 1128.43C31.6439 1141.24 25.6389 1154.07 20.5644 1166.93L39.1692 1174.27C43.9334 1162.2 49.5944 1150.09 56.1612 1137.95L38.5702 1128.43ZM7.65854 1207.6C4.27327 1221.68 2.00688 1235.78 0.866132 1249.89L20.8012 1251.5C21.8564 1238.45 23.9552 1225.37 27.1043 1212.27L7.65854 1207.6ZM0.866126 1292.77C2.00687 1306.89 4.27325 1320.99 7.65852 1335.07L27.1043 1330.39C23.9552 1317.3 21.8564 1304.22 20.8012 1291.16L0.866126 1292.77ZM20.5643 1375.73C25.6389 1388.6 31.6438 1401.43 38.5702 1414.23L56.1611 1404.72C49.5944 1392.58 43.9334 1380.47 39.1692 1368.39L20.5643 1375.73ZM60.6286 1450.39C68.2956 1461.68 76.6805 1472.95 85.7784 1484.2L101.328 1471.62C92.558 1460.78 84.5082 1449.96 77.1733 1439.16L60.6286 1450.39ZM113.358 1515.9C118.058 1520.95 122.903 1525.99 127.892 1531.03C132.742 1535.94 137.446 1540.83 142.004 1545.73L156.642 1532.1C151.942 1527.05 147.097 1522.01 142.108 1516.97C137.258 1512.06 132.554 1507.17 127.995 1502.27L113.358 1515.9ZM168.672 1576.38C177.442 1587.22 185.492 1598.04 192.827 1608.84L209.371 1597.61C201.704 1586.32 193.319 1575.05 184.222 1563.8L168.672 1576.38ZM213.839 1643.28C220.406 1655.42 226.067 1667.53 230.831 1679.61L249.436 1672.27C244.361 1659.4 238.356 1646.57 231.43 1633.77L213.839 1643.28ZM242.896 1717.61C246.045 1730.7 248.144 1743.78 249.199 1756.84L269.134 1755.23C267.993 1741.11 265.727 1727.01 262.341 1712.93L242.896 1717.61ZM249.199 1796.5C248.144 1809.55 246.045 1822.63 242.896 1835.73L262.341 1840.4C265.727 1826.32 267.993 1812.22 269.134 1798.11L249.199 1796.5ZM230.831 1873.73C226.067 1885.8 220.406 1897.91 213.839 1910.05L231.43 1919.57C238.356 1906.76 244.361 1893.93 249.436 1881.07L230.831 1873.73ZM192.827 1944.49C185.492 1955.29 177.442 1966.11 168.672 1976.95L184.222 1989.53C193.319 1978.28 201.704 1967.02 209.371 1955.73L192.827 1944.49ZM142.004 2007.6C137.446 2012.5 132.742 2017.4 127.892 2022.3C122.903 2027.34 118.058 2032.39 113.358 2037.44L127.996 2051.06C132.554 2046.17 137.258 2041.27 142.108 2036.37C147.097 2031.32 151.942 2026.28 156.642 2021.23L142.004 2007.6ZM85.7784 2069.14C76.6805 2080.38 68.2956 2091.65 60.6286 2102.94L77.1733 2114.18C84.5082 2103.38 92.5581 2092.56 101.328 2081.72L85.7784 2069.14ZM38.5702 2139.1C31.6439 2151.9 25.6389 2164.74 20.5644 2177.6L39.1692 2184.94C43.9334 2172.86 49.5944 2160.75 56.1612 2148.61L38.5702 2139.1ZM7.65853 2218.26C4.27326 2232.34 2.00688 2246.44 0.866132 2260.56L20.8012 2262.17C21.8564 2249.11 23.9552 2236.04 27.1043 2222.94L7.65853 2218.26ZM0.866126 2303.44C2.00687 2317.56 4.27325 2331.66 7.65851 2345.74L27.1043 2341.06C23.9552 2327.96 21.8564 2314.89 20.8012 2301.83L0.866126 2303.44ZM20.5643 2386.4C25.6389 2399.26 31.6438 2412.1 38.5702 2424.9L56.1611 2415.39C49.5944 2403.25 43.9334 2391.14 39.1692 2379.06L20.5643 2386.4ZM60.6286 2461.06C68.2956 2472.35 76.6805 2483.62 85.7784 2494.86L101.328 2482.28C92.558 2471.44 84.5081 2460.62 77.1733 2449.82L60.6286 2461.06ZM113.358 2526.56C118.058 2531.61 122.903 2536.66 127.892 2541.7C132.742 2546.6 137.446 2551.5 142.004 2556.4L156.642 2542.77C151.942 2537.72 147.097 2532.68 142.108 2527.63C137.258 2522.73 132.554 2517.83 127.995 2512.94L113.358 2526.56ZM185.467 2609H208.301L209.371 2608.27C201.704 2596.98 193.319 2585.72 184.222 2574.47L168.672 2587.05C174.599 2594.38 180.197 2601.69 185.467 2609Z" fill="#A18DBB"/>
</svg>
