<svg width="271" height="2609" fill="none" xmlns="http://www.w3.org/2000/svg">
<path fill-rule="evenodd" clip-rule="evenodd" d="M128.025 0C124.533 3.52947 121.112 7.06047 117.761 10.593L132.271 24.357C135.523 20.9285 138.847 17.4985 142.242 14.0669L128.025 0ZM98.0702 32.3101C91.5005 39.9065 85.2566 47.5115 79.34 55.1253L95.1323 67.3973C100.825 60.0713 106.847 52.7364 113.198 45.393L98.0702 32.3101ZM61.9424 78.9109C56.2381 87.2282 50.9231 95.5579 45.9994 103.9L63.2232 114.066C67.9067 106.13 72.9769 98.1827 78.4361 90.2227L61.9424 78.9109ZM31.9052 129.979C27.4469 139.064 23.4526 148.164 19.9255 157.279L38.5778 164.496C41.8876 155.943 45.6472 147.374 49.8598 138.79L31.9052 129.979ZM10.4786 185.631C7.7591 195.36 5.57333 205.102 3.92418 214.855L23.6443 218.19C25.1739 209.143 27.2049 200.085 29.7403 191.015L10.4786 185.631ZM0.559077 244.678C-0.00786018 254.693 -0.00786018 264.708 0.559077 274.722L20.5271 273.592C20.0028 264.33 20.0028 255.07 20.5271 245.809L0.559077 244.678ZM3.92418 304.545C5.57333 314.298 7.7591 324.04 10.4786 333.77L29.7403 328.386C27.2049 319.315 25.1739 310.257 23.6443 301.211L3.92418 304.545ZM19.9255 362.121C23.4526 371.236 27.4469 380.337 31.9052 389.421L49.8598 380.61C45.6472 372.026 41.8876 363.457 38.5778 354.904L19.9255 362.121ZM45.9994 415.5C50.923 423.842 56.2381 432.172 61.9423 440.489L78.4361 429.177C72.9769 421.217 67.9066 413.27 63.2232 405.334L45.9994 415.5ZM79.3399 464.275C85.2566 471.889 91.5004 479.494 98.0701 487.09L113.198 474.007C106.847 466.664 100.825 459.329 95.1323 452.003L79.3399 464.275ZM117.761 508.807C121.112 512.34 124.533 515.871 128.025 519.4C131.421 522.832 134.744 526.262 137.997 529.69L152.507 515.926C149.156 512.394 145.735 508.863 142.242 505.333C138.847 501.902 135.523 498.472 132.271 495.043L117.761 508.807ZM157.07 550.726C163.421 558.07 169.442 565.405 175.135 572.731L190.928 560.459C185.011 552.845 178.767 545.24 172.198 537.643L157.07 550.726ZM191.832 595.556C197.291 603.516 202.361 611.464 207.045 619.399L224.268 609.233C219.345 600.891 214.03 592.562 208.325 584.244L191.832 595.556ZM220.408 644.123C224.62 652.707 228.38 661.276 231.69 669.83L250.342 662.612C246.815 653.497 242.821 644.397 238.363 635.312L220.408 644.123ZM240.527 696.348C243.063 705.418 245.094 714.476 246.623 723.523L266.344 720.188C264.694 710.435 262.509 700.693 259.789 690.964L240.527 696.348ZM249.741 751.142C250.265 760.403 250.265 769.664 249.741 778.925L269.709 780.055C270.276 770.041 270.276 760.026 269.709 750.011L249.741 751.142ZM246.623 806.544C245.094 815.59 243.063 824.648 240.527 833.719L259.789 839.103C262.509 829.374 264.694 819.632 266.344 809.878L246.623 806.544ZM231.69 860.237C228.38 868.791 224.621 877.36 220.408 885.944L238.363 894.755C242.821 885.67 246.815 876.57 250.342 867.455L231.69 860.237ZM207.045 910.668C202.361 918.603 197.291 926.551 191.832 934.511L208.325 945.823C214.03 937.505 219.345 929.176 224.268 920.833L207.045 910.668ZM175.135 957.336C169.443 964.662 163.421 971.997 157.07 979.341L172.198 992.423C178.767 984.827 185.011 977.222 190.928 969.608L175.135 957.336ZM137.997 1000.38C134.744 1003.8 131.421 1007.24 128.025 1010.67C124.533 1014.2 121.112 1017.73 117.761 1021.26L132.271 1035.02C135.523 1031.6 138.847 1028.17 142.242 1024.73C145.735 1021.2 149.156 1017.67 152.507 1014.14L137.997 1000.38ZM98.0702 1042.98C91.5005 1050.57 85.2566 1058.18 79.34 1065.79L95.1323 1078.06C100.825 1070.74 106.847 1063.4 113.198 1056.06L98.0702 1042.98ZM61.9424 1089.58C56.2381 1097.89 50.9231 1106.22 45.9994 1114.57L63.2232 1124.73C67.9067 1116.8 72.9769 1108.85 78.4361 1100.89L61.9424 1089.58ZM31.9052 1140.65C27.447 1149.73 23.4526 1158.83 19.9255 1167.95L38.5778 1175.16C41.8876 1166.61 45.6472 1158.04 49.8598 1149.46L31.9052 1140.65ZM10.4786 1196.3C7.7591 1206.03 5.57333 1215.77 3.92418 1225.52L23.6443 1228.86C25.1739 1219.81 27.2049 1210.75 29.7403 1201.68L10.4786 1196.3ZM0.559077 1255.34C-0.00786018 1265.36 -0.00786018 1275.37 0.559077 1285.39L20.5271 1284.26C20.0028 1275 20.0028 1265.74 20.5271 1256.48L0.559077 1255.34ZM3.92418 1315.21C5.57333 1324.97 7.75909 1334.71 10.4786 1344.44L29.7403 1339.05C27.2049 1329.98 25.1739 1320.92 23.6443 1311.88L3.92418 1315.21ZM19.9255 1372.79C23.4526 1381.9 27.4469 1391 31.9052 1400.09L49.8598 1391.28C45.6472 1382.69 41.8876 1374.12 38.5778 1365.57L19.9255 1372.79ZM45.9994 1426.17C50.923 1434.51 56.2381 1442.84 61.9423 1451.16L78.4361 1439.84C72.9769 1431.88 67.9066 1423.94 63.2232 1416L45.9994 1426.17ZM79.3399 1474.94C85.2566 1482.56 91.5004 1490.16 98.0701 1497.76L113.198 1484.67C106.847 1477.33 100.825 1470 95.1323 1462.67L79.3399 1474.94ZM117.761 1519.47C121.112 1523.01 124.533 1526.54 128.025 1530.07C131.421 1533.5 134.744 1536.93 137.997 1540.36L152.507 1526.59C149.156 1523.06 145.735 1519.53 142.242 1516C138.847 1512.57 135.523 1509.14 132.271 1505.71L117.761 1519.47ZM157.07 1561.39C163.421 1568.74 169.442 1576.07 175.135 1583.4L190.928 1571.13C185.011 1563.51 178.767 1555.91 172.198 1548.31L157.07 1561.39ZM191.832 1606.22C197.291 1614.18 202.361 1622.13 207.045 1630.07L224.268 1619.9C219.345 1611.56 214.03 1603.23 208.325 1594.91L191.832 1606.22ZM220.408 1654.79C224.62 1663.37 228.38 1671.94 231.69 1680.5L250.342 1673.28C246.815 1664.16 242.821 1655.06 238.363 1645.98L220.408 1654.79ZM240.527 1707.01C243.063 1716.09 245.094 1725.14 246.623 1734.19L266.344 1730.86C264.694 1721.1 262.509 1711.36 259.789 1701.63L240.527 1707.01ZM249.741 1761.81C250.265 1771.07 250.265 1780.33 249.741 1789.59L269.709 1790.72C270.276 1780.71 270.276 1770.69 269.709 1760.68L249.741 1761.81ZM246.623 1817.21C245.094 1826.26 243.063 1835.31 240.527 1844.39L259.789 1849.77C262.509 1840.04 264.694 1830.3 266.344 1820.55L246.623 1817.21ZM231.69 1870.9C228.38 1879.46 224.621 1888.03 220.408 1896.61L238.363 1905.42C242.821 1896.34 246.815 1887.24 250.342 1878.12L231.69 1870.9ZM207.045 1921.33C202.361 1929.27 197.291 1937.22 191.832 1945.18L208.325 1956.49C214.03 1948.17 219.345 1939.84 224.268 1931.5L207.045 1921.33ZM175.136 1968C169.443 1975.33 163.421 1982.66 157.07 1990.01L172.198 2003.09C178.767 1995.49 185.011 1987.89 190.928 1980.27L175.136 1968ZM137.997 2011.04C134.744 2014.47 131.421 2017.9 128.025 2021.33C124.533 2024.86 121.112 2028.39 117.761 2031.93L132.271 2045.69C135.523 2042.26 138.847 2038.83 142.242 2035.4C145.735 2031.87 149.156 2028.34 152.507 2024.81L137.997 2011.04ZM98.0702 2053.64C91.5005 2061.24 85.2566 2068.84 79.34 2076.46L95.1323 2088.73C100.825 2081.4 106.847 2074.07 113.198 2066.73L98.0702 2053.64ZM61.9424 2100.24C56.2381 2108.56 50.9231 2116.89 45.9994 2125.23L63.2232 2135.4C67.9067 2127.46 72.9769 2119.52 78.4361 2111.56L61.9424 2100.24ZM31.9052 2151.31C27.4469 2160.4 23.4526 2169.5 19.9255 2178.61L38.5778 2185.83C41.8876 2177.28 45.6472 2168.71 49.8598 2160.12L31.9052 2151.31ZM10.4786 2206.96C7.7591 2216.69 5.57333 2226.44 3.92418 2236.19L23.6443 2239.52C25.1739 2230.48 27.2049 2221.42 29.7403 2212.35L10.4786 2206.96ZM0.55908 2266.01C-0.00785923 2276.03 -0.00786114 2286.04 0.559073 2296.06L20.5271 2294.92C20.0028 2285.66 20.0028 2276.4 20.5271 2267.14L0.55908 2266.01ZM3.92417 2325.88C5.57331 2335.63 7.75907 2345.37 10.4785 2355.1L29.7402 2349.72C27.2049 2340.65 25.1739 2331.59 23.6443 2322.54L3.92417 2325.88ZM19.9254 2383.45C23.4526 2392.57 27.4469 2401.67 31.9052 2410.75L49.8597 2401.94C45.6472 2393.36 41.8876 2384.79 38.5777 2376.24L19.9254 2383.45ZM45.9993 2436.83C50.923 2445.18 56.238 2453.51 61.9423 2461.82L78.436 2450.51C72.9768 2442.55 67.9066 2434.6 63.2231 2426.67L45.9993 2436.83ZM79.3399 2485.61C85.2565 2493.22 91.5003 2500.83 98.07 2508.42L113.197 2495.34C106.846 2488 100.825 2480.66 95.1322 2473.34L79.3399 2485.61ZM117.761 2530.14C121.112 2533.67 124.533 2537.2 128.025 2540.73C131.421 2544.17 134.744 2547.6 137.997 2551.02L152.507 2537.26C149.156 2533.73 145.735 2530.2 142.242 2526.67C138.847 2523.24 135.523 2519.8 132.271 2516.38L117.761 2530.14ZM157.07 2572.06C163.421 2579.4 169.442 2586.74 175.135 2594.06L190.928 2581.79C185.011 2574.18 178.767 2566.57 172.198 2558.98L157.07 2572.06ZM204.744 2608.03H209.998C209.444 2607.21 208.887 2606.4 208.325 2605.58L204.744 2608.03Z" fill="#A18DBB"/>
</svg>
