<svg width="510" height="480" viewBox="0 0 510 480" fill="none" xmlns="http://www.w3.org/2000/svg">
<path d="M487 48H312.882L302.773 6.121C302.352 4.37681 301.356 2.82495 299.946 1.71482C298.536 0.604676 296.794 0.000718836 295 0H215C213.206 0.000718836 211.464 0.604676 210.054 1.71482C208.644 2.82495 207.648 4.37681 207.227 6.121L197.118 48H23C20.8783 48 18.8434 48.8429 17.3431 50.3431C15.8429 51.8434 15 53.8783 15 56V376C15 378.122 15.8429 380.157 17.3431 381.657C18.8434 383.157 20.8783 384 23 384H63V408C63 410.122 63.8429 412.157 65.3431 413.657C66.8434 415.157 68.8783 416 71 416H108.289L95.227 470.125C94.9415 471.301 94.9269 472.527 95.1843 473.71C95.4417 474.892 95.9645 476.001 96.7131 476.952C97.4617 477.903 98.4166 478.672 99.5057 479.2C100.595 479.728 101.79 480.001 103 480H135C136.783 479.999 138.516 479.403 139.921 478.305C141.327 477.207 142.325 475.671 142.758 473.941L157.243 416H231V472C231 474.122 231.843 476.157 233.343 477.657C234.843 479.157 236.878 480 239 480H271C273.122 480 275.157 479.157 276.657 477.657C278.157 476.157 279 474.122 279 472V416H352.757L367.242 473.941C367.675 475.671 368.673 477.207 370.079 478.305C371.484 479.403 373.217 479.999 375 480H407C408.21 480.001 409.405 479.728 410.494 479.2C411.583 478.672 412.538 477.903 413.287 476.952C414.035 476.001 414.558 474.892 414.816 473.71C415.073 472.527 415.059 471.301 414.773 470.125L401.711 416H439C441.122 416 443.157 415.157 444.657 413.657C446.157 412.157 447 410.122 447 408V384H487C489.122 384 491.157 383.157 492.657 381.657C494.157 380.157 495 378.122 495 376V56C495 53.8783 494.157 51.8434 492.657 50.3431C491.157 48.8429 489.122 48 487 48V48ZM296.422 48H279V16H288.7L296.422 48ZM263 48H247V16H263V48ZM221.3 16H231V48H213.578L221.3 16ZM128.75 464H113.164L124.742 416H140.75L128.75 464ZM263 464H247V416H263V464ZM381.25 464L369.25 416H385.258L396.836 464H381.25ZM431 400H79V384H431V400ZM479 368H31V64H479V368Z" fill="black"/>
<path d="M104.526 215.9C98.1258 215.9 92.2925 214.633 87.0258 212.1C81.7591 209.5 77.5591 205.633 74.4258 200.5C71.3591 195.367 69.8258 188.9 69.8258 181.1C69.8258 175.167 70.7591 170.033 72.6258 165.7C74.5591 161.367 77.1591 157.767 80.4258 154.9C83.7591 152.033 87.5591 149.9 91.8258 148.5C96.0924 147.1 100.559 146.4 105.226 146.4C109.026 146.4 112.492 146.833 115.626 147.7C118.759 148.5 121.826 149.733 124.826 151.4L125.226 166.9H117.626L114.726 153.8C112.459 152.667 110.059 152.1 107.526 152.1C103.992 152.1 100.692 153.1 97.6258 155.1C94.6258 157.1 92.1924 160.267 90.3258 164.6C88.4591 168.867 87.5258 174.4 87.5258 181.2C87.5258 188 88.4258 193.533 90.2258 197.8C92.0258 202 94.3924 205.1 97.3258 207.1C100.326 209.1 103.592 210.1 107.126 210.1C108.526 210.1 109.926 209.933 111.326 209.6C112.726 209.267 114.126 208.8 115.526 208.2L118.326 195.4H125.926L125.526 210.8C122.859 212.267 119.759 213.467 116.226 214.4C112.759 215.4 108.859 215.9 104.526 215.9ZM156.949 163.6L148.649 189.1H165.049L156.949 163.6ZM128.849 214V208.6L136.949 207.4L157.249 148.2H167.549L188.049 208.1L194.149 208.8V214H163.249V208.8L170.949 207.8L166.849 194.9H146.749L142.749 207.4L150.349 208.6V214H128.849ZM238.737 153.7V148.3H265.037V153.7L256.537 155V214.2H248.137L212.937 165.4V207.3L224.337 208.6V214H197.937V208.6L206.437 207.4V156.3L205.037 154.4L198.137 153.7V148.3H220.737L250.137 188.7V155L238.737 153.7ZM312.091 153.4V148.3H333.791V153.7L326.291 154.9L305.691 214.2H295.991L274.491 154.3L268.691 153.7V148.3H300.891V153.4L292.391 154.5L306.091 195.7L319.891 154.7L312.091 153.4ZM350.992 163.6L342.692 189.1H359.092L350.992 163.6ZM322.892 214V208.6L330.992 207.4L351.292 148.2H361.592L382.092 208.1L388.192 208.8V214H357.292V208.8L364.992 207.8L360.892 194.9H340.792L336.792 207.4L344.392 208.6V214H322.892ZM414.573 215.9C410.839 215.9 407.006 215.467 403.073 214.6C399.139 213.733 395.739 212.4 392.873 210.6L393.473 195.8H402.773L404.773 208.1C406.306 208.7 407.839 209.167 409.373 209.5C410.906 209.767 412.606 209.9 414.473 209.9C418.073 209.9 420.806 209 422.673 207.2C424.539 205.333 425.473 203.067 425.473 200.4C425.473 197.733 424.773 195.667 423.373 194.2C422.039 192.733 419.873 191.333 416.873 190L412.573 188.1C406.706 185.367 402.139 182.333 398.873 179C395.673 175.667 394.073 171.233 394.073 165.7C394.073 159.7 396.306 155 400.773 151.6C405.306 148.133 411.339 146.4 418.873 146.4C422.473 146.4 425.906 146.867 429.173 147.8C432.506 148.667 435.373 149.9 437.773 151.5L436.973 165.5H427.773L425.873 153.7C424.806 153.3 423.739 153 422.673 152.8C421.606 152.533 420.439 152.4 419.173 152.4C416.306 152.4 413.873 153.233 411.873 154.9C409.873 156.567 408.873 158.767 408.873 161.5C408.873 164.167 409.639 166.3 411.173 167.9C412.773 169.433 415.039 170.867 417.973 172.2L422.673 174.3C429.006 177.167 433.573 180.2 436.373 183.4C439.239 186.533 440.673 190.633 440.673 195.7C440.673 201.567 438.439 206.4 433.973 210.2C429.573 214 423.106 215.9 414.573 215.9ZM200.846 273.6L192.546 299.1H208.946L200.846 273.6ZM172.746 324V318.6L180.846 317.4L201.146 258.2H211.446L231.946 318.1L238.046 318.8V324H207.146V318.8L214.846 317.8L210.746 304.9H190.646L186.646 317.4L194.246 318.6V324H172.746ZM269.333 264.1H267.033C266.967 268.233 266.9 272.4 266.833 276.6C266.833 280.8 266.833 285.033 266.833 289.3V293.3H269.733C274.133 293.3 277.433 291.9 279.633 289.1C281.833 286.233 282.933 282.533 282.933 278C282.933 273.4 281.733 269.933 279.333 267.6C277 265.267 273.667 264.1 269.333 264.1ZM242.333 263.7V258.3H269.533C276.467 258.3 282.067 259.133 286.333 260.8C290.6 262.4 293.7 264.7 295.633 267.7C297.633 270.633 298.633 274.1 298.633 278.1C298.633 281.9 297.7 285.4 295.833 288.6C294.033 291.733 291.033 294.233 286.833 296.1C282.633 297.967 276.9 298.9 269.633 298.9H266.833C266.833 301.767 266.833 304.8 266.833 308C266.9 311.133 266.967 314.367 267.033 317.7L275.933 318.6V324H242.333V318.6L249.833 317.8C249.967 313.733 250.033 309.633 250.033 305.5C250.033 301.367 250.033 297.2 250.033 293V289.3C250.033 285.167 250.033 281.033 250.033 276.9C250.033 272.7 249.967 268.567 249.833 264.5L242.333 263.7ZM302.685 263.7V258.3H334.885V263.7L327.385 264.5C327.318 268.567 327.251 272.667 327.185 276.8C327.185 280.933 327.185 285.1 327.185 289.3V292.9C327.185 297.033 327.185 301.2 327.185 305.4C327.251 309.533 327.318 313.667 327.385 317.8L334.885 318.6V324H302.685V318.6L310.185 317.8C310.318 313.733 310.385 309.633 310.385 305.5C310.385 301.367 310.385 297.2 310.385 293V289.3C310.385 285.167 310.385 281.033 310.385 276.9C310.385 272.7 310.318 268.567 310.185 264.5L302.685 263.7Z" fill="black"/>
</svg>
