<svg width="32" height="32" viewBox="0 0 32 32" fill="none" xmlns="http://www.w3.org/2000/svg">
<path d="M29.7061 17.76C30.0351 18.084 30.0211 18.26 29.6991 18.571C28.5991 19.637 27.5191 20.732 26.4361 21.82C26.2511 22.006 26.1171 22.149 25.8541 21.884C22.5975 18.6007 19.3348 15.324 16.0661 12.054C14.0735 10.078 12.0798 8.103 10.0851 6.129C9.89312 5.94 9.91512 5.812 10.0961 5.629C11.2581 4.47833 12.4145 3.32133 13.5651 2.158C13.7791 1.941 13.9101 1.979 14.1041 2.175C15.5221 3.61233 16.9455 5.04566 18.3741 6.475C18.7611 6.849 19.1461 7.226 19.5361 7.596C19.6921 7.744 19.8131 7.948 20.0651 7.957C21.9951 6.03166 23.9238 4.10466 25.8511 2.176C26.0661 1.96 26.2021 1.93 26.4341 2.165C27.5411 3.285 28.6561 4.398 29.7911 5.49C30.0861 5.773 30.0561 5.926 29.7821 6.196C27.9701 7.983 26.1871 9.796 24.3651 11.576C23.9901 11.941 24.0331 12.12 24.3811 12.461C26.1681 14.214 27.9201 16.005 29.7061 17.76ZM15.9311 19.953C15.9121 19.9176 15.8896 19.8841 15.8641 19.853C12.6368 16.625 9.41045 13.3953 6.18512 10.164C5.93912 9.918 5.79612 9.923 5.55612 10.164C4.46812 11.275 3.37312 12.38 2.25612 13.464C1.93812 13.77 1.98012 13.935 2.27112 14.222C4.05412 15.982 5.80712 17.771 7.59612 19.522C7.95812 19.878 7.94612 20.071 7.58912 20.422C5.78912 22.192 4.02112 23.995 2.23012 25.775C1.96812 26.035 1.89812 26.191 2.20612 26.49C3.32212 27.573 4.41412 28.68 5.49512 29.799C5.75512 30.069 5.89512 30.065 6.15812 29.799C7.38612 28.5437 8.62745 27.3007 9.88212 26.07C10.5674 25.3314 11.2921 24.6304 12.0531 23.97V23.97L13.6231 25.534C15.0451 26.9607 16.4658 28.389 17.8851 29.819C18.0851 30.019 18.2321 30.026 18.4351 29.819C19.5845 28.6597 20.7391 27.506 21.8991 26.358C22.0841 26.175 22.0861 26.047 21.8991 25.858C19.9058 23.896 17.9165 21.9277 15.9311 19.953Z" fill="url(#paint0_linear)"/>
<defs>
<linearGradient id="paint0_linear" x1="3.84312" y1="28.15" x2="28.1481" y2="3.845" gradientUnits="userSpaceOnUse">
<stop/>
<stop offset="1"/>
</linearGradient>
</defs>
</svg>
