<svg width="43" height="28" viewBox="0 0 43 28" fill="none" xmlns="http://www.w3.org/2000/svg">
<rect x="0.5" y="0.5" width="42" height="27" rx="2.5" stroke="black"/>
<path fill-rule="evenodd" clip-rule="evenodd" d="M8.25431 15.5703C8.81454 15.7979 9.64592 16.0342 11 16.0766C12.3541 16.0342 13.1855 15.7979 13.7457 15.5703L13.7761 15.5578C14.0016 15.4647 14.1818 15.3743 14.3484 15.2907C14.405 15.2622 14.4601 15.2346 14.5149 15.2079C14.7172 15.1092 14.9577 15 15.2281 15C15.5521 15 15.8259 15.1872 16.0349 15.3858C16.2594 15.5992 16.4846 15.8986 16.704 16.2596C17.1446 16.9842 17.589 18.002 17.9676 19.1982C18.7249 21.591 19.2309 24.7372 18.8934 27.7537L18.8658 28H3.13417L3.10661 27.7537C2.7691 24.7372 3.27511 21.591 4.03241 19.1982C4.41098 18.002 4.85544 16.9842 5.29597 16.2596C5.51545 15.8986 5.74061 15.5992 5.96514 15.3858C6.17408 15.1872 6.44787 15 6.77191 15C7.04232 15 7.28277 15.1092 7.48507 15.2079C7.53987 15.2346 7.59497 15.2622 7.65165 15.2907C7.81821 15.3743 7.99836 15.4647 8.22394 15.5578L8.25431 15.5703ZM18.2551 27.4583C18.5309 24.5914 18.0439 21.6144 17.3219 19.3331C16.9505 18.1595 16.52 17.1799 16.1063 16.4995C15.8987 16.158 15.702 15.9031 15.5281 15.7377C15.3387 15.5577 15.2375 15.5417 15.2281 15.5417L15.223 15.5417C15.1602 15.5431 15.0666 15.5706 14.8579 15.6723C14.814 15.6937 14.7661 15.7178 14.7143 15.7439C14.5371 15.8328 14.3134 15.9452 14.0438 16.0547C13.3919 16.3196 12.4603 16.5756 11 16.6187C9.53973 16.5756 8.60813 16.3196 7.95617 16.0547C7.68656 15.9452 7.4629 15.8329 7.28577 15.7439C7.23388 15.7178 7.18596 15.6937 7.14208 15.6723C6.93342 15.5706 6.83985 15.5431 6.77699 15.5417L6.77191 15.5417C6.76255 15.5417 6.66134 15.5577 6.47191 15.7377C6.298 15.9031 6.10129 16.158 5.89369 16.4995C5.48004 17.1799 5.0495 18.1595 4.67807 19.3331C3.95607 21.6144 3.4691 24.5914 3.74492 27.4583H18.2551Z" fill="black"/>
<line x1="25.25" y1="10.75" x2="36.75" y2="10.75" stroke="black" stroke-width="0.5" stroke-linecap="round" stroke-linejoin="round"/>
<line x1="25.25" y1="15.75" x2="36.75" y2="15.75" stroke="black" stroke-width="0.5" stroke-linecap="round" stroke-linejoin="round"/>
<line x1="25.25" y1="20.75" x2="36.75" y2="20.75" stroke="black" stroke-width="0.5" stroke-linecap="round" stroke-linejoin="round"/>
<path d="M10.4449 14.912C9.49292 14.912 8.66092 14.748 7.94892 14.42C7.23692 14.1 6.68492 13.62 6.29292 12.98C5.90092 12.34 5.70492 11.56 5.70492 10.64C5.70492 9.616 5.90892 8.712 6.31692 7.928C6.73292 7.144 7.32492 6.532 8.09292 6.092C8.86892 5.652 9.78092 5.432 10.8289 5.432C12.2369 5.432 13.3329 5.784 14.1169 6.488C14.9009 7.192 15.2929 8.196 15.2929 9.5C15.2929 10.06 15.2169 10.58 15.0649 11.06C14.9209 11.54 14.7009 11.928 14.4049 12.224C14.1169 12.512 13.7609 12.656 13.3369 12.656C13.0329 12.656 12.7569 12.568 12.5089 12.392C12.2609 12.208 12.1009 11.96 12.0289 11.648C11.8529 11.976 11.6049 12.228 11.2849 12.404C10.9649 12.572 10.5929 12.656 10.1689 12.656C9.59292 12.656 9.13292 12.476 8.78892 12.116C8.44492 11.756 8.27292 11.24 8.27292 10.568C8.27292 10.048 8.37692 9.576 8.58492 9.152C8.79292 8.728 9.09292 8.392 9.48492 8.144C9.87692 7.896 10.3329 7.772 10.8529 7.772C11.4529 7.772 12.0249 7.876 12.5689 8.084L12.4009 11C12.3769 11.36 12.4489 11.636 12.6169 11.828C12.7849 12.02 13.0209 12.116 13.3249 12.116C13.7809 12.116 14.1129 11.88 14.3209 11.408C14.5369 10.936 14.6449 10.3 14.6449 9.5C14.6449 8.356 14.3209 7.484 13.6729 6.884C13.0329 6.284 12.0849 5.984 10.8289 5.984C9.90892 5.984 9.11292 6.176 8.44092 6.56C7.76892 6.944 7.25292 7.488 6.89292 8.192C6.53292 8.888 6.35292 9.704 6.35292 10.64C6.35292 11.832 6.70492 12.752 7.40892 13.4C8.11292 14.048 9.12492 14.372 10.4449 14.372C11.2689 14.372 12.0609 14.24 12.8209 13.976V14.504C12.1009 14.776 11.3089 14.912 10.4449 14.912ZM10.2529 12.116C10.7409 12.116 11.1249 11.98 11.4049 11.708C11.6929 11.436 11.8449 11.116 11.8609 10.748L11.9929 8.516C11.6809 8.388 11.2969 8.324 10.8409 8.324C10.2649 8.324 9.80092 8.528 9.44892 8.936C9.10492 9.344 8.93292 9.876 8.93292 10.532C8.93292 11.068 9.04092 11.468 9.25692 11.732C9.47292 11.988 9.80492 12.116 10.2529 12.116Z" fill="black"/>
</svg>
