<?xml version="1.0" encoding="iso-8859-1"?>
<!-- Generator: Adobe Illustrator 21.0.0, SVG Export Plug-In . SVG Version: 6.00 Build 0)  -->
<svg xmlns="http://www.w3.org/2000/svg" xmlns:xlink="http://www.w3.org/1999/xlink" version="1.1" id="Capa_1" x="0px" y="0px" viewBox="0 0 512 512" style="enable-background:new 0 0 512 512;" xml:space="preserve" width="512" height="512">
<g>
	<path d="M181,361.507h150v-90.296H181V361.507z M256,301.31c8.284,0,15,6.738,15,15.049s-6.716,15.049-15,15.049   s-15-6.738-15-15.049S247.716,301.31,256,301.31z"/>
	<path d="M463.692,60.521c-79.001,0-126.825-14.767-153.034-27.154C283.97,20.752,273.902,8.063,272.994,6.868   c-5.45-8.557-17.376-9.319-23.887-1.15c-0.875,0.978-13.013,14.144-42.363,27.194c-28.33,12.595-78.814,27.61-158.437,27.61   c-8.284,0-15,6.738-15,15.049v240.789c0,61.244,38.626,114.607,111.702,154.32C194.663,497.663,250.096,512,256,512   c5.265,0,60.134-13.683,110.99-41.321c73.076-39.713,111.702-93.076,111.702-154.32V75.57   C478.692,67.259,471.977,60.521,463.692,60.521z M361,376.556c0,8.311-6.716,15.049-15,15.049H166c-8.284,0-15-6.738-15-15.049   V256.162c0-8.311,6.716-15.049,15-15.049h15.047v-45.65c0-39.857,31.727-74.745,75.406-74.745c41.079,0,74.5,33.531,74.5,74.745   c0,8.311-6.716,15.049-15,15.049s-15-6.738-15-15.049c0-23.518-18.532-44.646-45.406-44.646c-24.537,0-44.5,20.029-44.5,44.646   v45.65H346c8.284,0,15,6.738,15,15.049V376.556z"/>
</g>















</svg>
