<svg width="508" height="458" viewBox="0 0 508 458" fill="none" xmlns="http://www.w3.org/2000/svg">
<path d="M188.594 117.6L180.294 143.1H196.694L188.594 117.6ZM160.494 168V162.6L168.594 161.4L188.894 102.2H199.194L219.694 162.1L225.794 162.8V168H194.894V162.8L202.594 161.8L198.494 148.9H178.394L174.394 161.4L181.994 162.6V168H160.494ZM257.081 108.1H254.781C254.715 112.233 254.648 116.4 254.581 120.6C254.581 124.8 254.581 129.033 254.581 133.3V137.3H257.481C261.881 137.3 265.181 135.9 267.381 133.1C269.581 130.233 270.681 126.533 270.681 122C270.681 117.4 269.481 113.933 267.081 111.6C264.748 109.267 261.415 108.1 257.081 108.1ZM230.081 107.7V102.3H257.281C264.215 102.3 269.815 103.133 274.081 104.8C278.348 106.4 281.448 108.7 283.381 111.7C285.381 114.633 286.381 118.1 286.381 122.1C286.381 125.9 285.448 129.4 283.581 132.6C281.781 135.733 278.781 138.233 274.581 140.1C270.381 141.967 264.648 142.9 257.381 142.9H254.581C254.581 145.767 254.581 148.8 254.581 152C254.648 155.133 254.715 158.367 254.781 161.7L263.681 162.6V168H230.081V162.6L237.581 161.8C237.715 157.733 237.781 153.633 237.781 149.5C237.781 145.367 237.781 141.2 237.781 137V133.3C237.781 129.167 237.781 125.033 237.781 120.9C237.781 116.7 237.715 112.567 237.581 108.5L230.081 107.7ZM317.433 108.1H315.133C315.066 112.233 314.999 116.4 314.933 120.6C314.933 124.8 314.933 129.033 314.933 133.3V137.3H317.833C322.233 137.3 325.533 135.9 327.733 133.1C329.933 130.233 331.033 126.533 331.033 122C331.033 117.4 329.833 113.933 327.433 111.6C325.099 109.267 321.766 108.1 317.433 108.1ZM290.433 107.7V102.3H317.633C324.566 102.3 330.166 103.133 334.433 104.8C338.699 106.4 341.799 108.7 343.733 111.7C345.733 114.633 346.733 118.1 346.733 122.1C346.733 125.9 345.799 129.4 343.933 132.6C342.133 135.733 339.133 138.233 334.933 140.1C330.733 141.967 324.999 142.9 317.733 142.9H314.933C314.933 145.767 314.933 148.8 314.933 152C314.999 155.133 315.066 158.367 315.133 161.7L324.033 162.6V168H290.433V162.6L297.933 161.8C298.066 157.733 298.133 153.633 298.133 149.5C298.133 145.367 298.133 141.2 298.133 137V133.3C298.133 129.167 298.133 125.033 298.133 120.9C298.133 116.7 298.066 112.567 297.933 108.5L290.433 107.7Z" fill="black"/>
<path d="M501.055 0H6.94531C5.10362 0.00105977 3.33767 0.738897 2.0354 2.05142C0.733125 3.36395 0.00105149 5.14381 0 7V296.772C0.00945337 304.991 3.25303 312.87 9.0192 318.682C14.7854 324.493 22.6032 327.762 30.7578 327.772H219.77L209.848 394.504L159.984 394.5C155.851 394.453 151.75 395.233 147.918 396.795C144.086 398.356 140.599 400.669 137.66 403.598C134.721 406.527 132.387 410.015 130.795 413.859C129.202 417.703 128.382 421.828 128.382 425.994C128.382 430.16 129.202 434.285 130.795 438.129C132.387 441.973 134.721 445.461 137.66 448.39C140.599 451.319 144.086 453.632 147.918 455.193C151.75 456.755 155.851 457.535 159.984 457.488H348.012C352.145 457.535 356.246 456.755 360.078 455.193C363.91 453.632 367.397 451.319 370.336 448.39C373.275 445.461 375.609 441.973 377.201 438.129C378.794 434.285 379.614 430.16 379.614 425.994C379.614 421.828 378.794 417.703 377.201 413.859C375.609 410.015 373.275 406.527 370.336 403.598C367.397 400.669 363.91 398.356 360.078 396.795C356.246 395.233 352.145 394.453 348.012 394.5L298.152 394.504L288.23 327.772H477.242C485.397 327.762 493.215 324.493 498.981 318.682C504.747 312.87 507.991 304.991 508 296.772V7C508 5.14348 507.268 3.36301 505.966 2.05025C504.663 0.737498 502.897 0 501.055 0ZM13.8906 14H494.109V262.02H13.8906V14ZM365.371 426C365.366 430.638 363.535 435.085 360.281 438.364C357.026 441.644 352.614 443.488 348.012 443.492H159.984C157.683 443.527 155.397 443.1 153.261 442.237C151.125 441.374 149.18 440.091 147.54 438.463C145.9 436.835 144.598 434.894 143.709 432.754C142.82 430.615 142.362 428.318 142.362 425.998C142.362 423.678 142.82 421.381 143.709 419.242C144.598 417.102 145.9 415.161 147.54 413.533C149.18 411.905 151.125 410.622 153.261 409.759C155.397 408.895 157.683 408.469 159.984 408.504H348.012C352.614 408.508 357.026 410.352 360.281 413.632C363.535 416.911 365.366 421.358 365.371 425.996V426ZM315.143 394.504H192.857L206.375 327.772H301.625L315.143 394.504ZM494.109 296.772C494.104 301.279 492.325 305.6 489.163 308.787C486.001 311.974 481.714 313.767 477.242 313.772H30.7578C26.286 313.767 21.9988 311.974 18.8367 308.787C15.6746 305.6 13.8959 301.279 13.8906 296.772V276.02H494.109V296.772Z" fill="black"/>
</svg>
