<svg width="192" height="192" viewBox="0 0 192 192" fill="none" xmlns="http://www.w3.org/2000/svg">
<path d="M130 29V161C130 175.77 140.19 184 151 184C161 184 172 177 172 161V30C172 16.46 162 8 151 8C140 8 130 17.33 130 29Z" fill="black"/>
<path d="M75 96V161C75 175.77 85.19 184 96 184C106 184 117 177 117 161V97C117 83.46 107 75 96 75C85 75 75 84.33 75 96Z" fill="black"/>
<path d="M41 184C52.598 184 62 174.598 62 163C62 151.402 52.598 142 41 142C29.402 142 20 151.402 20 163C20 174.598 29.402 184 41 184Z" fill="black"/>
</svg>
