<svg width="100" height="100" viewBox="0 0 100 100" fill="none" xmlns="http://www.w3.org/2000/svg">
<path d="M40.625 5.1875H59.375C60.0712 5.1875 60.7389 5.46407 61.2312 5.95635C61.7234 6.44863 62 7.11631 62 7.8125V26.0625H38V7.8125C38 7.11631 38.2766 6.44863 38.7688 5.95635C39.2611 5.46407 39.9288 5.1875 40.625 5.1875Z" stroke="black"/>
<path d="M34.875 29.6875V27.0625H65.125V29.6875C65.125 30.3837 64.8484 31.0514 64.3562 31.5437C63.8639 32.0359 63.1962 32.3125 62.5 32.3125H37.5C36.8038 32.3125 36.1361 32.0359 35.6438 31.5437C35.1516 31.0514 34.875 30.3837 34.875 29.6875Z" fill="black" stroke="black"/>
<path d="M78.8637 21.412C75.3243 17.8305 71.1485 14.9397 66.5502 12.8877L67.8247 10.0343C72.7762 12.2437 77.2726 15.3563 81.0838 19.2128L78.8637 21.412Z" fill="black"/>
<path d="M11.6863 36.4582L8.73987 35.4168C10.7304 29.8231 13.8331 24.6903 17.8608 20.328C21.8885 15.9656 26.7578 12.464 32.1753 10.0343L33.4498 12.8877C28.4188 15.1438 23.8969 18.3954 20.1565 22.4463C16.4162 26.4973 13.5349 31.2637 11.6863 36.4582V36.4582Z" fill="black"/>
<path d="M19.2129 81.084C14.5295 76.4381 10.9502 70.7989 8.73987 64.5833L11.6863 63.5419C13.7391 69.3135 17.0629 74.5499 21.4121 78.8639L19.2129 81.084Z" fill="black"/>
<path d="M83.9903 77.547L81.5638 75.5781C83.0904 73.696 84.4464 71.6817 85.6156 69.5591L88.3534 71.0659C87.0943 73.3515 85.6342 75.5204 83.9903 77.547V77.547Z" fill="black"/>
<path d="M47.4644 11.6186L52.46 14.9491C52.6056 15.0461 52.7249 15.1776 52.8074 15.3318C52.89 15.486 52.9332 15.6582 52.9332 15.8331C52.9332 16.008 52.89 16.1803 52.8074 16.3345C52.7249 16.4887 52.6056 16.6202 52.46 16.7172L47.4644 20.0476C47.3044 20.1543 47.1184 20.2155 46.9263 20.2248C46.7342 20.2341 46.5432 20.1911 46.3737 20.1003C46.2041 20.0096 46.0623 19.8745 45.9635 19.7096C45.8647 19.5446 45.8125 19.3559 45.8125 19.1636V12.5027C45.8125 12.3104 45.8647 12.1217 45.9635 11.9567C46.0623 11.7917 46.2041 11.6567 46.3737 11.5659C46.5432 11.4752 46.7342 11.4321 46.9263 11.4414C47.1184 11.4507 47.3044 11.512 47.4644 11.6186Z" fill="black" stroke="black"/>
<path d="M63.5625 50C63.5625 55.7645 58.8895 60.4375 53.125 60.4375C47.3605 60.4375 42.6875 55.7645 42.6875 50C42.6875 44.2355 47.3605 39.5625 53.125 39.5625C58.8895 39.5625 63.5625 44.2355 63.5625 50Z" stroke="black"/>
<path d="M49.5423 55.0853L48.0397 53.5826L51.916 49.7065L52.0625 49.56V49.3529V44.25H54.1875V50.44L49.5423 55.0853Z" fill="black" stroke="black"/>
<path d="M7.8125 41.125H10.9375C12.3872 41.125 13.5625 42.3003 13.5625 43.75V56.25C13.5625 57.6997 12.3872 58.875 10.9375 58.875H7.8125C6.36275 58.875 5.1875 57.6997 5.1875 56.25V43.75C5.1875 42.3003 6.36275 41.125 7.8125 41.125Z" fill="black" stroke="black"/>
<path d="M13.5 47.5H25.5V52.5H13.5V47.5Z" fill="black" stroke="black"/>
<path d="M28.125 41.125H31.25C32.6997 41.125 33.875 42.3003 33.875 43.75V56.25C33.875 57.6997 32.6997 58.875 31.25 58.875H28.125C26.6753 58.875 25.5 57.6997 25.5 56.25V43.75C25.5 42.3003 26.6753 41.125 28.125 41.125Z" fill="black" stroke="black"/>
<path d="M18.75 85.9375C17.9212 85.9375 17.1263 86.2667 16.5403 86.8528C15.9542 87.4388 15.625 88.2337 15.625 89.0625C15.625 89.8913 15.9542 90.6862 16.5403 91.2722C17.1263 91.8583 17.9212 92.1875 18.75 92.1875H34.375V85.9375H18.75Z" fill="black"/>
<path d="M51.5625 70.3125H48.4375V73.4375H51.5625V70.3125Z" fill="black"/>
<path d="M34.375 68.75H31.25V71.875H34.375V68.75Z" fill="black"/>
<path d="M35.9375 78.125H32.8125V81.25H35.9375V78.125Z" fill="black"/>
<path d="M40.625 71.875H37.5V75H40.625V71.875Z" fill="black"/>
<path d="M45.3125 76.5625H42.1875V79.6875H45.3125V76.5625Z" fill="black"/>
<path d="M45.3125 67.1875H42.1875V70.3125H45.3125V67.1875Z" fill="black"/>
<path d="M54.6875 78.125H51.5625V81.25H54.6875V78.125Z" fill="black"/>
<path d="M76.7164 62.8256L75.5664 53.625H90.0586L88.9086 62.8256C88.8292 63.4605 88.5207 64.0445 88.041 64.4679C87.5614 64.8913 86.9436 65.125 86.3038 65.125H79.3212C78.6814 65.125 78.0636 64.8913 77.584 64.4679C77.1043 64.0445 76.7958 63.4605 76.7164 62.8256Z" fill="black" stroke="black"/>
<path d="M81.75 42.6875H83.875V52.625H81.75V42.6875Z" fill="black" stroke="black"/>
<path d="M90.461 43.2069C88.5535 45.1144 86.007 46.2358 83.3246 46.3629C83.3837 45.1173 83.6577 43.89 84.1359 42.7357C84.6795 41.4233 85.4762 40.2309 86.4806 39.2265L87.664 38.0431C89.5715 36.1356 92.118 35.0142 94.8004 34.8871C94.7413 36.1327 94.4673 37.36 93.9891 38.5143C93.4455 39.8267 92.6488 41.0191 91.6444 42.0235L90.461 43.2069Z" fill="black" stroke="black"/>
<path d="M71.6359 38.5143C71.1577 37.36 70.8837 36.1327 70.8246 34.8871C73.507 35.0142 76.0535 36.1356 77.961 38.0431L79.1444 39.2265C80.1488 40.2309 80.9455 41.4233 81.4891 42.7357C81.9673 43.89 82.2413 45.1173 82.3004 46.3629C79.618 46.2358 77.0715 45.1144 75.164 43.2069L73.9806 42.0235C72.9762 41.0191 72.1795 39.8267 71.6359 38.5143Z" fill="black" stroke="black"/>
<path d="M86.0721 16.553L82.6 24.3655L85.4557 25.6346L88.9278 17.8221L86.0721 16.553Z" fill="black"/>
<path d="M81.2111 27.4904L79.8222 30.6155L82.6779 31.8846L84.0667 28.7596L81.2111 27.4904Z" fill="black"/>
<path d="M71.375 73.4375V73.6446L71.5214 73.7911L84.8027 87.0723C85.064 87.3337 85.2713 87.644 85.4128 87.9854C85.5542 88.3269 85.627 88.6929 85.627 89.0625C85.627 89.4321 85.5542 89.7981 85.4128 90.1396C85.2713 90.4811 85.064 90.7914 84.8027 91.0527C84.5413 91.3141 84.231 91.5214 83.8895 91.6628C83.5481 91.8043 83.1821 91.8771 82.8125 91.8771C82.4428 91.8771 82.0768 91.8043 81.7354 91.6628C81.3939 91.5214 81.0836 91.3141 80.8223 91.0527L67.541 77.7715L67.3946 77.625H67.1875H63.7944C63.4497 77.625 63.1083 77.5571 62.7898 77.4252C62.4714 77.2933 62.182 77.0999 61.9382 76.8562L58.8132 73.7312C58.5695 73.4874 58.3761 73.198 58.2442 72.8796C58.1123 72.5611 58.0444 72.2197 58.0444 71.875C58.0444 71.5303 58.1123 71.189 58.2442 70.8705C58.3761 70.552 58.5695 70.2626 58.8132 70.0189L63.7688 65.0633C64.0126 64.8195 64.3019 64.6262 64.6204 64.4942C64.9389 64.3623 65.2802 64.2944 65.625 64.2944C65.9697 64.2944 66.311 64.3623 66.6295 64.4942C66.948 64.6262 67.2374 64.8195 67.4811 65.0633L70.6061 68.1883C70.8499 68.432 71.0432 68.7214 71.1751 69.0399C71.3071 69.3584 71.375 69.6997 71.375 70.0444V73.4375Z" fill="black" stroke="black"/>
<path d="M93.8846 16.553L90.4125 24.3655L93.2682 25.6346L96.7403 17.8221L93.8846 16.553Z" fill="black"/>
<path d="M89.0235 27.4903L87.6346 30.6154L90.4903 31.8845L91.8792 28.7595L89.0235 27.4903Z" fill="black"/>
<path d="M60.9375 94.8125H39.0625C37.5375 94.8125 36.075 94.2067 34.9966 93.1284C33.9183 92.05 33.3125 90.5875 33.3125 89.0625V86.4375H66.6875V89.0625C66.6875 90.5875 66.0817 92.05 65.0034 93.1284C63.925 94.2067 62.4625 94.8125 60.9375 94.8125Z" stroke="black"/>
<path d="M73.9375 52.0625H91.6875V54.1875H73.9375V52.0625Z" fill="black" stroke="black"/>
</svg>
