<svg width="30" height="30" viewBox="0 0 30 30" fill="none" xmlns="http://www.w3.org/2000/svg">
<circle cx="15" cy="15" r="14.5" stroke="black"/>
<path d="M6.8125 10.7969C6.78125 10.9115 6.71875 11.026 6.625 11.1406C6.54167 11.2448 6.44271 11.3333 6.32812 11.4062C6.22396 11.4688 6.11458 11.5104 6 11.5312C5.88542 11.5521 5.79167 11.5312 5.71875 11.4688C5.5 11.3021 5.38542 11.125 5.375 10.9375C5.36458 10.7396 5.41146 10.5573 5.51562 10.3906C5.61979 10.2135 5.75 10.0677 5.90625 9.95312C6.0625 9.82812 6.19792 9.75521 6.3125 9.73438C6.42708 9.71354 6.52083 9.73958 6.59375 9.8125C6.67708 9.875 6.73958 9.96354 6.78125 10.0781C6.82292 10.1823 6.84375 10.3021 6.84375 10.4375C6.85417 10.5729 6.84375 10.6927 6.8125 10.7969ZM4.65625 14.125C4.70833 14.0625 4.80729 14.0104 4.95312 13.9688C5.09896 13.9271 5.25 13.8958 5.40625 13.875C5.5625 13.8438 5.70312 13.8281 5.82812 13.8281C5.96354 13.8177 6.04167 13.8177 6.0625 13.8281C6.07292 13.8385 6.04688 13.9479 5.98438 14.1562C5.92188 14.3646 5.84375 14.6094 5.75 14.8906C5.65625 15.1719 5.55729 15.4635 5.45312 15.7656C5.34896 16.0573 5.27083 16.2969 5.21875 16.4844C5.16667 16.6719 5.10417 16.8854 5.03125 17.125C4.95833 17.3542 4.89062 17.5833 4.82812 17.8125C4.77604 18.0312 4.73958 18.2396 4.71875 18.4375C4.69792 18.6354 4.71354 18.7865 4.76562 18.8906C4.81771 19.0156 4.875 19.1042 4.9375 19.1562C5 19.1979 5.06771 19.2188 5.14062 19.2188C5.34896 19.2188 5.60938 19.1042 5.92188 18.875C6.24479 18.6458 6.56771 18.375 6.89062 18.0625C7.22396 17.7396 7.53125 17.4167 7.8125 17.0938C8.09375 16.7604 8.30208 16.4948 8.4375 16.2969C8.52083 16.1927 8.60417 16.125 8.6875 16.0938C8.78125 16.0625 8.85417 16.0677 8.90625 16.1094C8.96875 16.151 9 16.2188 9 16.3125C9.01042 16.4062 8.97917 16.5156 8.90625 16.6406C8.73958 16.9323 8.49479 17.2812 8.17188 17.6875C7.84896 18.0833 7.50521 18.4688 7.14062 18.8438C6.77604 19.2083 6.41667 19.5208 6.0625 19.7812C5.71875 20.0417 5.4375 20.1771 5.21875 20.1875C5.04167 20.1979 4.86458 20.1667 4.6875 20.0938C4.52083 20.0312 4.36458 19.9427 4.21875 19.8281C4.08333 19.7031 3.96875 19.5625 3.875 19.4062C3.78125 19.2396 3.72917 19.0677 3.71875 18.8906C3.6875 18.6302 3.6875 18.276 3.71875 17.8281C3.75 17.3698 3.80729 16.9062 3.89062 16.4375C3.97396 15.9583 4.07812 15.5052 4.20312 15.0781C4.33854 14.651 4.48958 14.3333 4.65625 14.125ZM10.125 16.1094C10.0521 16.3906 9.96875 16.6979 9.875 17.0312C9.79167 17.3542 9.72396 17.6875 9.67188 18.0312C9.61979 18.375 9.58854 18.7188 9.57812 19.0625C9.57812 19.4062 9.625 19.7344 9.71875 20.0469C9.625 20.099 9.51562 20.1354 9.39062 20.1562C9.26562 20.1875 9.14583 20.2083 9.03125 20.2188C8.90625 20.2396 8.77604 20.2448 8.64062 20.2344C8.46354 20.2344 8.32812 20.1979 8.23438 20.125C8.14062 20.0521 8.07292 19.9583 8.03125 19.8438C8 19.7188 7.99479 19.5781 8.01562 19.4219C8.03646 19.2552 8.07812 19.0833 8.14062 18.9062C8.24479 18.5521 8.45833 17.8177 8.78125 16.7031C9.11458 15.5885 9.46875 14.0625 9.84375 12.125C9.90625 11.7917 9.95833 11.5 10 11.25C10.0521 10.9896 10.099 10.7708 10.1406 10.5938C9.99479 10.5 9.84896 10.3906 9.70312 10.2656C9.55729 10.1302 9.44271 10.0052 9.35938 9.89062C9.36979 9.85938 9.44792 9.76042 9.59375 9.59375C9.75 9.42708 9.92708 9.25 10.125 9.0625C10.3229 8.875 10.5208 8.70833 10.7188 8.5625C10.9167 8.41667 11.0781 8.34375 11.2031 8.34375C11.2552 8.34375 11.3177 8.36979 11.3906 8.42188C11.474 8.47396 11.5521 8.53646 11.625 8.60938C11.7083 8.67188 11.7708 8.74479 11.8125 8.82812C11.8646 8.90104 11.8854 8.96354 11.875 9.01562L10.125 16.1094ZM17.7344 17.2188C17.724 17.5625 17.6354 17.9219 17.4688 18.2969C17.3125 18.6719 17.0885 19.0156 16.7969 19.3281C16.5156 19.6406 16.1823 19.8958 15.7969 20.0938C15.4115 20.2917 14.9948 20.3906 14.5469 20.3906C14.1719 20.3906 13.8229 20.3542 13.5 20.2812C13.1875 20.2083 12.9115 20.0781 12.6719 19.8906C12.4427 19.7031 12.2656 19.4583 12.1406 19.1562C12.0156 18.8438 11.9583 18.4531 11.9688 17.9844C11.9792 17.5365 12.0729 17.1146 12.25 16.7188C12.4271 16.3125 12.651 15.9323 12.9219 15.5781C13.1927 15.224 13.4948 14.901 13.8281 14.6094C14.1615 14.3073 14.4844 14.0365 14.7969 13.7969C14.5052 13.3385 14.3021 12.9323 14.1875 12.5781C14.0833 12.2135 14.0365 11.8385 14.0469 11.4531C14.0573 11.2344 14.1146 10.9427 14.2188 10.5781C14.3229 10.2135 14.4948 9.85938 14.7344 9.51562C14.9844 9.17188 15.3073 8.875 15.7031 8.625C16.1094 8.36458 16.6094 8.23438 17.2031 8.23438C17.526 8.23438 17.8125 8.28646 18.0625 8.39062C18.3125 8.49479 18.5156 8.63542 18.6719 8.8125C18.8385 8.98958 18.9583 9.19271 19.0312 9.42188C19.1146 9.64062 19.1562 9.86458 19.1562 10.0938C19.1354 10.4583 19.0417 10.8177 18.875 11.1719C18.7083 11.5156 18.4948 11.8438 18.2344 12.1562C17.9844 12.4688 17.7083 12.7604 17.4062 13.0312C17.1042 13.3021 16.8125 13.5365 16.5312 13.7344C16.8542 14.2135 17.1354 14.75 17.375 15.3438C17.625 15.9271 17.7448 16.5521 17.7344 17.2188ZM15.4219 10.8125C15.4115 11.1458 15.4427 11.474 15.5156 11.7969C15.599 12.1198 15.7604 12.4792 16 12.875C16.2708 12.6458 16.5365 12.4062 16.7969 12.1562C17.0677 11.9062 17.3073 11.651 17.5156 11.3906C17.7344 11.1302 17.9062 10.8802 18.0312 10.6406C18.1667 10.3906 18.2344 10.1562 18.2344 9.9375C18.2448 9.60417 18.1615 9.33854 17.9844 9.14062C17.8073 8.93229 17.5625 8.82812 17.25 8.82812C16.9271 8.82812 16.651 8.89583 16.4219 9.03125C16.1927 9.15625 16.0052 9.31771 15.8594 9.51562C15.7135 9.70312 15.6042 9.91667 15.5312 10.1562C15.4583 10.3854 15.4219 10.6042 15.4219 10.8125ZM16.2812 17.4844C16.2917 17.1406 16.276 16.8385 16.2344 16.5781C16.1927 16.3177 16.1302 16.0729 16.0469 15.8438C15.9635 15.6146 15.8594 15.3958 15.7344 15.1875C15.6094 14.9792 15.4688 14.7656 15.3125 14.5469C15.0625 14.7552 14.8125 15 14.5625 15.2812C14.3125 15.5521 14.0833 15.8438 13.875 16.1562C13.6667 16.4688 13.4948 16.7865 13.3594 17.1094C13.2344 17.4323 13.1667 17.75 13.1562 18.0625C13.1458 18.3646 13.1667 18.6198 13.2188 18.8281C13.2812 19.026 13.3594 19.1875 13.4531 19.3125C13.5573 19.4271 13.6771 19.5104 13.8125 19.5625C13.9479 19.6042 14.0833 19.625 14.2188 19.625C14.3854 19.625 14.5833 19.5938 14.8125 19.5312C15.0417 19.4583 15.2656 19.3385 15.4844 19.1719C15.7031 19.0052 15.8854 18.7865 16.0312 18.5156C16.1875 18.2344 16.2708 17.8906 16.2812 17.4844ZM23.875 20.3906C23.6354 20.3906 23.4271 20.3438 23.25 20.25C23.0833 20.1667 22.9479 20.0521 22.8438 19.9062C22.7396 19.7604 22.6719 19.5938 22.6406 19.4062C22.6094 19.2083 22.6198 19 22.6719 18.7812C22.7031 18.6354 22.7552 18.4427 22.8281 18.2031C22.901 17.9531 22.974 17.6875 23.0469 17.4062C23.1302 17.1146 23.2031 16.8281 23.2656 16.5469C23.3385 16.2552 23.3854 15.9948 23.4062 15.7656C23.4271 15.526 23.4167 15.3333 23.375 15.1875C23.3333 15.0312 23.2448 14.9531 23.1094 14.9531C22.9427 14.9531 22.7708 15.0104 22.5938 15.125C22.4167 15.2292 22.2344 15.375 22.0469 15.5625C21.8698 15.75 21.6875 15.9688 21.5 16.2188C21.3229 16.4583 21.1458 16.7083 20.9688 16.9688C20.875 17.3229 20.7969 17.6354 20.7344 17.9062C20.6719 18.1667 20.6146 18.4062 20.5625 18.625C20.5208 18.8333 20.4792 19.0208 20.4375 19.1875C20.3958 19.3438 20.3594 19.4948 20.3281 19.6406C20.2969 19.7448 20.2031 19.849 20.0469 19.9531C19.8906 20.0469 19.724 20.125 19.5469 20.1875C19.3698 20.25 19.2188 20.2812 19.0938 20.2812C18.9583 20.2812 18.901 20.2344 18.9219 20.1406C18.9323 20.0781 18.9688 19.9375 19.0312 19.7188C19.0833 19.5 19.151 19.2448 19.2344 18.9531C19.3073 18.651 19.3854 18.3333 19.4688 18C19.5521 17.6667 19.6302 17.349 19.7031 17.0469C19.7552 16.8073 19.8125 16.5417 19.875 16.25C19.9271 16 19.9896 15.7083 20.0625 15.375C20.1458 15.0417 20.2396 14.6771 20.3438 14.2812C20.4167 14.2188 20.4896 14.1719 20.5625 14.1406C20.6458 14.099 20.7292 14.0677 20.8125 14.0469C20.8958 14.0156 20.9844 13.9948 21.0781 13.9844C21.1615 13.9844 21.2448 13.9896 21.3281 14C21.401 14.0104 21.474 14.0312 21.5469 14.0625C21.6302 14.0833 21.7031 14.1198 21.7656 14.1719C21.7344 14.2448 21.6979 14.349 21.6562 14.4844C21.6146 14.6094 21.5729 14.7448 21.5312 14.8906C21.4896 15.0573 21.4375 15.2292 21.375 15.4062C21.5104 15.2188 21.6615 15.0312 21.8281 14.8438C22.0052 14.6458 22.1927 14.4688 22.3906 14.3125C22.599 14.1562 22.8177 14.0312 23.0469 13.9375C23.276 13.8333 23.5104 13.7812 23.75 13.7812C23.9479 13.7812 24.125 13.8385 24.2812 13.9531C24.4375 14.0677 24.5573 14.2292 24.6406 14.4375C24.7344 14.6354 24.7865 14.875 24.7969 15.1562C24.8177 15.4375 24.7812 15.7448 24.6875 16.0781L24.5156 16.7656C24.4635 16.9844 24.3958 17.2448 24.3125 17.5469C24.2396 17.8385 24.1458 18.1615 24.0312 18.5156C23.9688 18.7448 23.9427 18.9427 23.9531 19.1094C23.974 19.276 24.0781 19.3594 24.2656 19.3594C24.4531 19.3594 24.6875 19.2448 24.9688 19.0156C25.2604 18.7865 25.5521 18.5104 25.8438 18.1875C26.1354 17.8646 26.4115 17.5365 26.6719 17.2031C26.9323 16.8594 27.1302 16.5833 27.2656 16.375C27.3594 16.2396 27.4479 16.151 27.5312 16.1094C27.6146 16.0677 27.6771 16.0625 27.7188 16.0938C27.7708 16.125 27.7969 16.1979 27.7969 16.3125C27.7969 16.4167 27.7552 16.5521 27.6719 16.7188C27.599 16.8646 27.4844 17.0573 27.3281 17.2969C27.1823 17.5365 27.0052 17.7917 26.7969 18.0625C26.5885 18.3333 26.3646 18.6094 26.125 18.8906C25.8854 19.1615 25.6354 19.4115 25.375 19.6406C25.1146 19.8594 24.8542 20.0365 24.5938 20.1719C24.3438 20.3177 24.1042 20.3906 23.875 20.3906Z" fill="black"/>
</svg>
