<svg width="30" height="30" viewBox="0 0 30 30" fill="none" xmlns="http://www.w3.org/2000/svg">
<circle cx="15" cy="15" r="14.5" stroke="black"/>
<path d="M16.4409 8.62012L15.4831 8.33277L15.4795 8.34484L15.4762 8.357L16.4409 8.62012ZM16.1479 9.15723L15.3739 8.52395L15.3671 8.53253L16.1479 9.15723ZM15.6841 9.57227L16.1986 10.4298L16.2099 10.423L16.221 10.4159L15.6841 9.57227ZM15.1714 9.76758L14.9925 8.78371L15.1714 9.76758ZM14.7319 9.66992L15.3827 8.91067L15.3609 8.89193L15.338 8.87449L14.7319 9.66992ZM14.1948 8.83984L13.1962 8.8924L13.1964 8.89531L14.1948 8.83984ZM14.4146 7.98535L15.2625 8.51535L15.2697 8.50395L15.2765 8.49237L14.4146 7.98535ZM15.0249 7.30176L15.6163 8.10816L15.6332 8.09574L15.6496 8.08263L15.0249 7.30176ZM16.0991 7.08203L15.392 7.78914L15.4423 7.83939L15.4991 7.88203L16.0991 7.08203ZM16.3921 7.49707L15.4523 7.83881L15.4577 7.85373L15.4636 7.86846L16.3921 7.49707ZM16.4897 8.05859H15.4897V8.097L15.4927 8.13529L16.4897 8.05859ZM13.0718 13.8203L12.3036 13.1801L12.2972 13.1878L12.2909 13.1956L13.0718 13.8203ZM14.2437 13.4297L14.3758 14.4209L14.408 14.4166L14.4398 14.4103L14.2437 13.4297ZM14.9028 13.3564V14.3564H14.9412L14.9795 14.3535L14.9028 13.3564ZM15.269 13.3564L15.9761 12.6493L15.8614 12.5346L15.7163 12.462L15.269 13.3564ZM14.3169 16.3838L15.2587 16.7201L15.2623 16.7098L14.3169 16.3838ZM13.6577 18.5078L14.6107 18.811L14.6144 18.799L13.6577 18.5078ZM13.3403 19.582L12.3756 19.3189L12.3713 19.3346L12.3675 19.3504L13.3403 19.582ZM13.2427 21.2666L14.1658 20.882L14.1525 20.8502L14.1371 20.8194L13.2427 21.2666ZM13.5112 21.6816L12.871 22.4499L12.9121 22.4841L12.9565 22.5137L13.5112 21.6816ZM15.0493 21.2422L14.4706 20.4267L14.4642 20.4312L14.458 20.4358L15.0493 21.2422ZM16.563 19.9727L17.2584 20.6913L17.2588 20.6909L16.563 19.9727ZM18.0034 18.459L18.7575 19.1158L18.7627 19.1099L18.7677 19.1039L18.0034 18.459ZM18.98 17.2139L18.1991 16.5892L18.1758 16.6183L18.1547 16.6492L18.98 17.2139ZM19.3706 16.8965L19.0544 15.9478L19.0368 15.9537L19.0195 15.9602L19.3706 16.8965ZM19.7124 16.9209L19.0877 17.7018L19.1216 17.7289L19.1577 17.7529L19.7124 16.9209ZM19.8589 17.2383H18.8589V17.2937L18.865 17.3487L19.8589 17.2383ZM19.7124 17.751L18.8486 17.2471L18.8442 17.2548L19.7124 17.751ZM18.5649 19.3867L19.3399 20.0189L19.3478 20.009L18.5649 19.3867ZM16.9536 21.1934L17.6608 21.9005L17.6706 21.8904L16.9536 21.1934ZM15.269 22.6582L14.6767 21.8526L14.6709 21.8568L14.6652 21.8611L15.269 22.6582ZM13.9507 23.293L13.9031 22.294L13.892 22.2947L13.9507 23.293ZM13.1206 23.1465L13.5014 22.2218L13.4866 22.2157L13.4717 22.2102L13.1206 23.1465ZM12.3882 22.7314L11.7099 23.4662L11.7391 23.4932L11.7704 23.5178L12.3882 22.7314ZM11.8511 22.0723L10.9795 22.5625L10.9864 22.5747L10.9936 22.5868L11.8511 22.0723ZM11.6069 21.2666L12.6052 21.2079L12.6034 21.1776L12.5998 21.1475L11.6069 21.2666ZM11.6069 19.6064L12.6045 19.676L12.6046 19.6745L11.6069 19.6064ZM11.8755 17.4336L12.8601 17.6086L12.8607 17.6049L11.8755 17.4336ZM12.3638 15.3096L11.4105 15.0073L11.4072 15.018L11.404 15.0287L12.3638 15.3096ZM15.4762 8.357C15.4722 8.37161 15.4529 8.42758 15.374 8.52399L16.9219 9.79046C17.136 9.5288 17.312 9.2267 17.4057 8.88323L15.4762 8.357ZM15.3671 8.53253C15.3069 8.60781 15.2351 8.67265 15.1472 8.7286L16.221 10.4159C16.4911 10.244 16.7286 10.0322 16.9288 9.78192L15.3671 8.53253ZM15.1696 8.71477C15.1057 8.75313 15.0479 8.77364 14.9925 8.78371L15.3503 10.7514C15.6529 10.6964 15.937 10.5867 16.1986 10.4298L15.1696 8.71477ZM14.9925 8.78371C15.0069 8.78109 15.0628 8.7733 15.1442 8.79139C15.2312 8.81072 15.3151 8.85267 15.3827 8.91067L14.0811 10.4292C14.4725 10.7646 14.9446 10.8252 15.3503 10.7514L14.9925 8.78371ZM15.338 8.87449C15.2325 8.79412 15.1919 8.74086 15.1809 8.72384C15.1762 8.71666 15.1791 8.7195 15.1835 8.73219C15.1881 8.74548 15.1921 8.76363 15.1933 8.78437L13.1964 8.89531C13.2353 9.59547 13.662 10.1119 14.1259 10.4654L15.338 8.87449ZM15.1934 8.78728C15.1879 8.68124 15.2096 8.60009 15.2625 8.51535L13.5666 7.45535C13.294 7.89145 13.1692 8.37996 13.1962 8.8924L15.1934 8.78728ZM15.2765 8.49237C15.3746 8.32564 15.4882 8.20204 15.6163 8.10816L14.4335 6.49535C14.0733 6.75955 13.7801 7.09167 13.5526 7.47833L15.2765 8.49237ZM15.6496 8.08263C15.7378 8.01208 15.8012 7.97164 15.8408 7.9503C15.882 7.9281 15.8793 7.93642 15.8386 7.94383L15.4808 5.97609C15.0604 6.05252 14.6929 6.28676 14.4002 6.52089L15.6496 8.08263ZM15.8386 7.94383C15.8085 7.9493 15.7342 7.95681 15.6362 7.92958C15.5333 7.901 15.4494 7.84655 15.392 7.78914L16.8062 6.37492C16.4274 5.99612 15.9341 5.89367 15.4808 5.97609L15.8386 7.94383ZM15.4991 7.88203C15.4773 7.8657 15.462 7.84838 15.4531 7.83572C15.4448 7.82398 15.4464 7.82248 15.4523 7.83881L17.3319 7.15533C17.212 6.82554 17.0097 6.51494 16.6991 6.28203L15.4991 7.88203ZM15.4636 7.86846C15.4728 7.8914 15.4897 7.94855 15.4897 8.05859H17.4897C17.4897 7.74546 17.4416 7.42826 17.3206 7.12568L15.4636 7.86846ZM15.4927 8.13529C15.5018 8.25355 15.489 8.31319 15.4831 8.33277L17.3987 8.90747C17.4905 8.60152 17.5103 8.28681 17.4868 7.9819L15.4927 8.13529ZM13.84 14.4605C13.8047 14.5029 13.7721 14.5307 13.7509 14.5468C13.7298 14.5629 13.716 14.5702 13.7145 14.571C13.7128 14.5719 13.7192 14.5684 13.7361 14.5619C13.7529 14.5555 13.7772 14.5472 13.8104 14.5377L13.2609 12.6146C12.9829 12.6941 12.5837 12.844 12.3036 13.1801L13.84 14.4605ZM13.8104 14.5377C13.9897 14.4865 14.178 14.4473 14.3758 14.4209L14.1115 12.4385C13.8211 12.4772 13.5373 12.5357 13.2609 12.6146L13.8104 14.5377ZM14.4398 14.4103C14.636 14.371 14.7884 14.3564 14.9028 14.3564V12.3564C14.6266 12.3564 14.3396 12.3907 14.0475 12.4491L14.4398 14.4103ZM14.9795 14.3535C15.0754 14.3461 15.1296 14.3442 15.1531 14.3442C15.1659 14.3442 15.1524 14.3449 15.1232 14.3418C15.1082 14.3402 15.0768 14.3364 15.0357 14.3273C15.0145 14.3226 14.9859 14.3154 14.9523 14.3045C14.9195 14.2938 14.874 14.277 14.8218 14.2509L15.7163 12.462C15.5358 12.3718 15.3668 12.3564 15.3325 12.3528C15.2647 12.3456 15.2013 12.3442 15.1531 12.3442C15.0545 12.3442 14.9418 12.3505 14.8261 12.3594L14.9795 14.3535ZM14.5619 14.0636C14.3821 13.8838 14.3229 13.6878 14.3029 13.6104C14.2792 13.5182 14.2745 13.4435 14.2732 13.4068C14.2704 13.3325 14.2776 13.2786 14.279 13.2683C14.2827 13.2397 14.2856 13.2328 14.2779 13.2652C14.2644 13.3219 14.2365 13.4238 14.1891 13.5818L16.1048 14.1565C16.1551 13.9889 16.1963 13.8426 16.2235 13.7284C16.2362 13.6754 16.2523 13.6024 16.2622 13.527C16.2666 13.4932 16.2751 13.4208 16.2718 13.3328C16.2702 13.2893 16.2648 13.2089 16.2399 13.1123C16.2189 13.0303 16.158 12.8312 15.9761 12.6493L14.5619 14.0636ZM14.1891 13.5818C14.0952 13.8949 13.9764 14.2673 13.8321 14.7004L15.7294 15.3328C15.8781 14.887 16.0034 14.4944 16.1048 14.1565L14.1891 13.5818ZM13.8321 14.7004C13.6868 15.1363 13.5332 15.5888 13.3715 16.0578L15.2623 16.7098C15.4261 16.2348 15.5818 15.7758 15.7294 15.3328L13.8321 14.7004ZM13.3752 16.0475C13.2084 16.5143 13.0776 16.9137 12.9872 17.2392L14.9142 17.7745C14.9865 17.514 15.0998 17.1647 15.2586 16.7201L13.3752 16.0475ZM12.9872 17.2392C12.9085 17.5224 12.8132 17.848 12.701 18.2167L14.6144 18.799C14.7301 18.4189 14.8301 18.0772 14.9142 17.7745L12.9872 17.2392ZM12.7048 18.2046C12.5867 18.5758 12.4769 18.9472 12.3756 19.3189L14.3051 19.8451C14.399 19.5007 14.5009 19.156 14.6106 18.811L12.7048 18.2046ZM12.3675 19.3504C12.2774 19.7287 12.2125 20.0969 12.1749 20.4539L14.1639 20.6633C14.1915 20.4018 14.2405 20.1189 14.3131 19.8137L12.3675 19.3504ZM12.1749 20.4539C12.1349 20.8338 12.1404 21.2981 12.3482 21.7138L14.1371 20.8194C14.1639 20.873 14.1614 20.8973 14.158 20.8646C14.1548 20.8331 14.1528 20.7689 14.1639 20.6633L12.1749 20.4539ZM12.3196 21.6512C12.4267 21.9083 12.5932 22.2183 12.871 22.4499L14.1514 20.9134C14.1761 20.934 14.1921 20.9513 14.2008 20.9615C14.2094 20.9716 14.2123 20.9765 14.2104 20.9736C14.2086 20.9708 14.2033 20.9623 14.1953 20.9465C14.1873 20.9309 14.1773 20.9097 14.1658 20.882L12.3196 21.6512ZM12.9565 22.5137C13.2132 22.6848 13.511 22.7793 13.8286 22.7793V20.7793C13.8684 20.7793 13.9127 20.7852 13.9579 20.7991C14.0028 20.8129 14.0392 20.8318 14.0659 20.8496L12.9565 22.5137ZM13.8286 22.7793C14.4837 22.7793 15.1084 22.439 15.6407 22.0486L14.458 20.4358C14.253 20.5861 14.093 20.6779 13.9752 20.7297C13.855 20.7826 13.8119 20.7793 13.8286 20.7793V22.7793ZM15.6281 22.0577C16.179 21.6667 16.7222 21.2101 17.2584 20.6913L15.8676 19.2541C15.3946 19.7117 14.9288 20.1015 14.4706 20.4267L15.6281 22.0577ZM17.2588 20.6909C17.7982 20.1683 18.298 19.6433 18.7575 19.1158L17.2493 17.8022C16.8299 18.2838 16.3694 18.7679 15.8672 19.2544L17.2588 20.6909ZM18.7677 19.1039C19.2144 18.5745 19.5653 18.1293 19.8053 17.7786L18.1547 16.6492C17.9715 16.9169 17.6714 17.3018 17.2391 17.8141L18.7677 19.1039ZM19.7608 17.8386C19.7758 17.8199 19.7874 17.807 19.7955 17.7986C19.8037 17.7902 19.8072 17.7875 19.8059 17.7886C19.8039 17.7902 19.7762 17.8124 19.7217 17.8328L19.0195 15.9602C18.6566 16.0962 18.3897 16.3509 18.1991 16.5892L19.7608 17.8386ZM19.6868 17.8452C19.6766 17.8486 19.6062 17.8714 19.4947 17.8634C19.3698 17.8545 19.2205 17.808 19.0877 17.7018L20.3371 16.14C19.8784 15.7731 19.3568 15.847 19.0544 15.9478L19.6868 17.8452ZM19.1577 17.7529C19.0541 17.6839 18.9679 17.5842 18.9143 17.4681C18.8646 17.3604 18.8589 17.2736 18.8589 17.2383H20.8589C20.8589 16.8515 20.7131 16.3861 20.2671 16.0888L19.1577 17.7529ZM18.865 17.3487C18.8561 17.269 18.8688 17.2161 18.8729 17.2016C18.8767 17.1886 18.8744 17.203 18.8486 17.2471L20.5762 18.2548C20.7439 17.9673 20.9024 17.5746 20.8528 17.1278L18.865 17.3487ZM18.8442 17.2548C18.6187 17.6495 18.2701 18.1506 17.7821 18.7645L19.3478 20.009C19.8689 19.3533 20.2853 18.7639 20.5806 18.2471L18.8442 17.2548ZM17.7901 18.7546C17.3043 19.3501 16.7865 19.9307 16.2366 20.4963L17.6706 21.8904C18.26 21.2842 18.8165 20.6603 19.3398 20.0188L17.7901 18.7546ZM16.2465 20.4863C15.7066 21.0261 15.1831 21.4801 14.6767 21.8526L15.8614 23.4639C16.4617 23.0225 17.0613 22.4999 17.6607 21.9005L16.2465 20.4863ZM14.6652 21.8611C14.4312 22.0384 14.2447 22.1527 14.1028 22.2211C13.9564 22.2915 13.8958 22.2944 13.9031 22.2941L13.9982 24.2918C14.659 24.2604 15.3051 23.8854 15.8729 23.4553L14.6652 21.8611ZM13.892 22.2947C13.7771 22.3014 13.6502 22.2831 13.5014 22.2218L12.7399 24.0712C13.1444 24.2377 13.5708 24.317 14.0094 24.2912L13.892 22.2947ZM13.4717 22.2102C13.3114 22.15 13.1566 22.0635 13.006 21.9451L11.7704 23.5178C12.0755 23.7575 12.409 23.9476 12.7695 24.0828L13.4717 22.2102ZM13.0665 21.9966C12.924 21.8651 12.8055 21.7194 12.7086 21.5578L10.9936 22.5868C11.1896 22.9134 11.4292 23.2071 11.7099 23.4662L13.0665 21.9966ZM12.7226 21.582C12.6447 21.4434 12.6119 21.3214 12.6052 21.2079L10.6087 21.3253C10.6345 21.7652 10.7645 22.1803 10.9795 22.5625L12.7226 21.582ZM12.5998 21.1475C12.5619 20.8319 12.5574 20.3506 12.6045 19.676L10.6094 19.5368C10.5588 20.262 10.5543 20.8875 10.6141 21.3857L12.5998 21.1475ZM12.6046 19.6745C12.6509 18.9955 12.7359 18.3069 12.8601 17.6086L10.8909 17.2586C10.7546 18.0251 10.6606 18.7851 10.6092 19.5384L12.6046 19.6745ZM12.8607 17.6049C12.9851 16.8898 13.1397 16.2186 13.3235 15.5905L11.404 15.0287C11.1973 15.7351 11.0263 16.48 10.8903 17.2623L12.8607 17.6049ZM13.317 15.6118C13.5132 14.9931 13.7039 14.631 13.8526 14.445L12.2909 13.1956C11.9189 13.6607 11.6375 14.2914 11.4105 15.0073L13.317 15.6118Z" fill="black"/>
</svg>
