<svg width="32" height="32" viewBox="0 0 32 32" fill="none" xmlns="http://www.w3.org/2000/svg">
<g clip-path="url(#clip0)">
<path d="M29.8273 24.3105L29.8737 24.2911C29.7415 23.4639 29.4005 22.695 28.7031 21.9838C28.019 21.2862 27.0111 20.6635 25.5751 20.0786C25.3775 19.9865 25.1744 19.899 24.9818 19.8161C24.931 19.7942 24.8809 19.7726 24.8318 19.7514C24.5875 19.6456 24.3642 19.5457 24.1646 19.4402C23.7694 19.2314 23.5485 19.0413 23.4506 18.8446C23.3493 18.4646 23.3591 18.3415 23.3951 18.2212L23.3994 18.2068L23.4028 18.1922C23.4588 17.9534 23.6215 17.7874 23.8769 17.692C24.1435 17.5924 24.4844 17.585 24.7915 17.6764C25.1673 17.7932 25.5403 18.0862 25.7867 18.6091L26.0315 19.1286L26.5123 18.8147C27.3304 18.2806 27.6619 18.0641 27.9959 17.8517C28.2247 17.7062 28.4546 17.5626 28.8429 17.3201L29.273 17.0514L28.9983 16.6251C28.6452 16.0773 28.4415 15.7874 28.1572 15.5127C27.2002 14.4456 25.9287 13.9358 24.0095 13.9801L23.9836 13.9807L23.9579 13.984L23.0149 14.104L22.9871 14.1075L22.9599 14.1141C21.984 14.3513 21.0218 14.8743 20.4154 15.6158C19.5498 16.6024 19.2588 17.9316 19.4237 19.165C19.5882 20.3963 20.2151 21.5932 21.2668 22.3103C22.0818 22.9171 23.0561 23.3262 23.8779 23.6713C24.0323 23.7361 24.1813 23.7986 24.3229 23.8598C24.7892 24.0614 25.1689 24.2441 25.4494 24.4412C25.7207 24.632 25.8469 24.8002 25.8934 24.9573C25.9519 25.2585 25.9184 25.4691 25.8527 25.6174C25.7859 25.7683 25.6668 25.8977 25.4849 26.0032C25.1077 26.222 24.5063 26.3073 23.8406 26.2277C23.3774 26.1218 23.0357 25.9573 22.7395 25.7232C22.4316 25.4799 22.1506 25.1438 21.8329 24.664L21.5738 24.2726L21.1669 24.5065L18.7289 25.9075L18.3425 26.1295L18.5188 26.5387C18.7716 27.126 19.0806 27.4726 19.4204 27.8538C19.5037 27.9472 19.5888 28.0427 19.6755 28.1443L19.6876 28.1586L19.7009 28.172C20.9943 29.4771 23.1898 30.052 25.1639 29.8595C27.1394 29.6669 29.0946 28.6766 29.6963 26.6233C29.698 26.6178 29.7 26.6113 29.7023 26.6038C29.7612 26.4123 30.0223 25.5639 29.8273 24.3105ZM17.8994 14.7484L17.9432 14.208H17.401H14.406H13.906V14.708C13.906 15.9982 13.902 17.2847 13.898 18.5729L13.898 18.5742C13.894 19.8626 13.89 21.1526 13.89 22.448C13.89 22.7893 13.8934 23.1168 13.8966 23.428C13.9014 23.8855 13.9058 24.3079 13.8985 24.6872C13.8924 25.0012 13.8784 25.2641 13.8522 25.4703C13.8241 25.6916 13.7884 25.7895 13.7738 25.815L13.7653 25.83L13.7578 25.8455C13.6258 26.1186 13.3995 26.247 13.1102 26.2943C12.8226 26.3413 12.5125 26.2969 12.305 26.2377C11.9323 26.0443 11.7268 25.7861 11.4458 25.3092L11.4419 25.3026L11.4378 25.2961C11.4107 25.2531 11.393 25.2236 11.3747 25.193C11.3612 25.1704 11.3473 25.1471 11.3289 25.1175C11.314 25.0932 11.2904 25.0556 11.2643 25.0212C11.2522 25.0054 11.2263 24.9723 11.1893 24.9386C11.1705 24.9215 11.1371 24.8934 11.0904 24.8674C11.0464 24.8429 10.9596 24.803 10.843 24.803H10.7012L10.5805 24.8774L8.14852 26.3774L7.76428 26.6144L7.96093 27.0208C8.39948 27.9271 9.05303 28.7345 9.92041 29.2531L9.92047 29.2532C11.1886 30.0111 12.8543 30.2362 14.5622 29.8539L14.5773 29.8505L14.5922 29.8462C15.727 29.5173 16.7607 28.8272 17.3079 27.7164C17.6942 27.009 17.8359 26.2405 17.8861 25.4601C17.9213 24.9136 17.9122 24.3273 17.9031 23.7395C17.8994 23.5 17.8957 23.2602 17.895 23.0228C17.9057 21.1966 17.9021 19.3692 17.8986 17.5377C17.8968 16.627 17.895 15.7153 17.895 14.8022L17.8994 14.7484ZM0.5 0.5H31.5V31.5H0.5V0.5Z" stroke="black"/>
<path d="M17.7796 26.3155C17.7796 27.1439 15.08 30.3155 13.4231 30.3155C11.7663 30.3155 6.50002 27 8.5 26.5C11.5 25 10.5001 25 12.5001 26C14.1569 26 17.7796 25.487 17.7796 26.3155Z" fill="black"/>
<path d="M20 15.5L22.5 14L25 14.5L27 14.5L29 17L26.5 18.5L24 17.5L23.5 19L29 22.5L30 25.5L29 28L27 29.5L24 30L20.5 29L18.5 26.5L19.5 25.5L21.5 24.5L24 26.5L26 25.5L25.5 24.5L21 21.5981L20 20.5L19.5 19L20 15.5Z" fill="black"/>
<rect x="14" y="14" width="4" height="12" fill="black"/>
</g>
<defs>
<clipPath id="clip0">
<rect width="32" height="32" fill="white"/>
</clipPath>
</defs>
</svg>
