<svg width="133" height="109" viewBox="0 0 133 109" fill="none" xmlns="http://www.w3.org/2000/svg">
<path d="M97.7266 63.5438H93.1808C92.5168 63.5438 91.9721 63.7565 91.5482 64.1839C91.1208 64.6088 90.9081 65.1533 90.9081 65.8165V88.5433C90.9081 91.6685 89.7962 94.3431 87.571 96.5688C85.3459 98.7939 82.6702 99.9056 79.5451 99.9056H20.4539C17.329 99.9056 14.6536 98.7939 12.428 96.5688C10.2028 94.3434 9.09039 91.6687 9.09039 88.5433V29.4529C9.09039 26.328 10.2026 23.6536 12.428 21.4282C14.6536 19.2026 17.329 18.0904 20.4539 18.0904H70.4529C71.1169 18.0904 71.6617 17.8767 72.0873 17.4511C72.5129 17.025 72.7256 16.4809 72.7256 15.8175V11.2714C72.7256 10.6092 72.5129 10.0642 72.0873 9.63881C71.6617 9.21269 71.1169 9 70.4529 9H20.4539C14.82 9 10.0021 11.0005 6.00056 15.0013C2.00052 19.0018 0 23.8198 0 29.4537V88.5443C0 94.178 2.00052 98.9967 6.00081 102.996C10.0023 106.997 14.8203 108.999 20.4542 108.999H79.5451C85.1787 108.999 89.9972 106.997 93.9982 102.996C97.9995 98.9967 100 94.1782 100 88.5443V65.8182C100 65.1543 99.7871 64.6095 99.3597 64.1839C98.9336 63.7565 98.3888 63.5438 97.7266 63.5438Z" fill="black"/>
<line x1="50.8662" y1="64.6129" x2="109.637" y2="23.4608" stroke="black" stroke-width="7" stroke-linecap="round"/>
<path d="M121.089 14.8358C121.796 14.825 122.29 15.5313 122.038 16.1919L113.611 38.2917C113.326 39.0412 112.318 39.1661 111.858 38.509L96.6356 16.7693C96.1755 16.1122 96.6375 15.208 97.4395 15.1958L121.089 14.8358Z" fill="black"/>
</svg>
