<?xml version="1.0" ?><!DOCTYPE svg  PUBLIC '-//W3C//DTD SVG 1.1//EN'  'http://www.w3.org/Graphics/SVG/1.1/DTD/svg11.dtd'><svg enable-background="new 0 0 512 512" height="512px" id="Слой_1" version="1.1" viewBox="0 0 512 512" width="512px" xml:space="preserve" xmlns="http://www.w3.org/2000/svg" xmlns:xlink="http://www.w3.org/1999/xlink"><g><g><g><path clip-rule="evenodd" d="M208.748,113.745c-5.849,5.824-8.777,12.864-8.789,21.121      c0.012,8.254,2.94,15.295,8.789,21.119c5.824,5.826,12.866,8.735,21.124,8.728c8.257,0.008,15.299-2.901,21.125-8.728      c0.756-0.765,1.453-1.54,2.095-2.327l21.708,9.948c-0.33,1.716-0.502,3.5-0.525,5.354v0.059c0.02,8.251,2.951,15.29,8.789,21.12      c5.811,5.798,12.832,8.688,21.064,8.668c8.256,0.02,15.295-2.87,21.127-8.668c0.75-0.759,1.445-1.534,2.096-2.327l21.705,10.007      c-0.273,1.709-0.41,3.474-0.408,5.294c-0.006,8.275,2.904,15.335,8.73,21.179c4.816,4.799,10.463,7.61,16.936,8.437      l3.258,28.858c-3.859,1.441-7.371,3.75-10.533,6.923c-5.85,5.823-8.777,12.864-8.787,21.121      c0.014,4.365,0.848,8.399,2.502,12.102l-31.891,24.784l-4.771-42.995c3.955-1.457,7.547-3.805,10.766-7.041      c5.867-5.825,8.814-12.866,8.846-21.119c-0.031-8.275-2.979-15.335-8.846-21.179c-5.826-5.847-12.867-8.774-21.125-8.785      c-8.258,0.011-15.299,2.938-21.125,8.785c-0.777,0.785-1.496,1.601-2.154,2.443l-21.531-9.891      c0.316-1.776,0.471-3.618,0.467-5.527c0.008-8.256-2.902-15.296-8.73-21.119c-5.844-5.847-12.906-8.775-21.183-8.785      c-8.276,0.01-15.339,2.938-21.183,8.785c-5.828,5.823-8.737,12.863-8.729,21.119c-0.008,8.274,2.901,15.334,8.729,21.178      c5.844,5.826,12.906,8.735,21.183,8.728c8.277,0.008,15.339-2.901,21.183-8.728c0.756-0.762,1.455-1.558,2.096-2.385      l21.59,9.949c-0.316,1.73-0.471,3.535-0.467,5.411c0.008,4.526,0.881,8.694,2.619,12.508l-19.436,15.709      c-5.156-3.959-11.13-5.938-17.925-5.934c-8.276,0.011-15.337,2.938-21.182,8.786c-0.801,0.788-1.538,1.603-2.212,2.443      l-21.59-9.95c0.314-1.786,0.469-3.627,0.465-5.527c0.009-8.255-2.901-15.294-8.729-21.119      c-5.845-5.826-12.905-8.735-21.183-8.728c-8.259-0.008-15.301,2.901-21.126,8.728c-0.784,0.772-1.521,1.568-2.212,2.385      l-21.473-9.891c0.313-1.786,0.47-3.649,0.465-5.585c-0.004-4.586-0.895-8.795-2.677-12.625l19.438-15.651      c5.197,4.022,11.23,6.04,18.098,6.051c8.277-0.011,15.339-2.939,21.185-8.785c5.827-5.825,8.737-12.864,8.729-21.12      c0.008-8.256-2.902-15.296-8.729-21.121c-5.846-5.825-12.907-8.734-21.185-8.727c-8.276-0.008-15.337,2.901-21.183,8.727      c-5.827,5.825-8.737,12.865-8.729,21.121c0.002,4.53,0.895,8.701,2.677,12.509l-19.437,15.651      c-5.203-4.004-11.236-6.001-18.099-5.993c-8.257-0.008-15.299,2.901-21.125,8.728c-5.848,5.863-8.777,12.941-8.787,21.236      c0.01,8.255,2.939,15.295,8.787,21.119c5.826,5.827,12.867,8.736,21.125,8.728c8.277,0.009,15.337-2.9,21.183-8.728      c0.717-0.728,1.397-1.464,2.037-2.21l21.59,9.892c-0.314,1.731-0.47,3.536-0.465,5.409c0.012,8.295,2.94,15.373,8.787,21.236      c5.825,5.827,12.867,8.736,21.126,8.728c8.277,0.009,15.338-2.9,21.183-8.728c0.756-0.782,1.455-1.596,2.096-2.443l21.706,9.95      c-0.334,1.766-0.509,3.591-0.523,5.468c0.011,8.257,2.939,15.296,8.788,21.121c5.845,5.827,12.905,8.736,21.182,8.727      c8.257,0.01,15.298-2.899,21.125-8.727c5.848-5.825,8.775-12.864,8.789-21.121c-0.004-4.608-0.895-8.838-2.678-12.684      l19.379-15.709c4.09,3.187,8.705,5.106,13.852,5.761c6.07,54.517,12.143,109.032,18.213,163.548l-20.193,6.228l-30.9-79.709      h-31.426c-6.769,0.014-13.033-2.371-18.796-7.157c-5.764-4.784-9.333-10.563-10.708-17.338l-0.757-3.666h-37.71      c-6.704-0.003-12.911-2.368-18.623-7.098c-0.06-0.021-0.117-0.041-0.176-0.06c-5.763-4.782-9.332-10.563-10.708-17.336      l-0.756-3.609h-37.652c-6.806-0.002-13.111-2.407-18.914-7.214c-5.764-4.802-9.333-10.6-10.708-17.396l-0.698-3.55H49.99      c-1.073-0.014-2.121-0.093-3.143-0.231c-5.209-0.75-9.767-3.078-13.676-6.982c-4.782-4.805-7.168-10.602-7.158-17.397v-29.032      c-0.01-6.771,2.375-12.549,7.158-17.338c4.791-4.802,10.571-7.206,17.342-7.215h1.047v-29.033      c-0.009-6.787,2.376-12.586,7.158-17.396c4.83-4.801,10.649-7.206,17.458-7.215h3.201l7.391-29.033      c1.675-6.808,5.497-12.626,11.465-17.454c6.016-4.762,12.418-7.128,19.204-7.098h29.621l0.756-3.608      c1.376-6.776,4.945-12.556,10.708-17.338c5.763-4.808,12.03-7.212,18.799-7.215h104.868c6.787,0.002,13.07,2.407,18.854,7.215      c5.766,4.782,9.334,10.562,10.709,17.338l0.697,3.608h37.652c6.779-0.019,13.064,2.328,18.857,7.04      c0.035,0.038,0.076,0.078,0.115,0.115c5.742,4.803,9.293,10.602,10.65,17.396h15.012c6.766,0.014,13.146,2.399,19.148,7.157      c5.984,4.828,9.826,10.646,11.523,17.454l7.391,29.032h3.199c6.809-0.011,12.629,2.375,17.459,7.157      c4.781,4.809,7.168,10.607,7.158,17.396v29.032h1.047c6.77-0.01,12.553,2.375,17.342,7.156      c4.801,4.809,7.209,10.607,7.217,17.396v29.091c-0.008,6.796-2.416,12.593-7.217,17.396c-3.908,3.866-8.469,6.154-13.676,6.866      c-1.021,0.159-2.07,0.257-3.143,0.291h-12.104l-3.201,17.513c-1.211,6.814-4.646,12.632-10.301,17.455      c-5.662,4.766-11.891,7.134-18.682,7.098h-11.289l-0.059,0.231c-1.275,15.894-9.809,26.25-25.605,31.071      c-15.783,4.788-21.971,21.115-18.563,48.988l-20.484,6.459l-11.117-100.654l38.816-30.198c5.291,4.275,11.479,6.409,18.564,6.4      c8.275,0.009,15.336-2.9,21.184-8.728c5.828-5.843,8.738-12.902,8.729-21.177c0.01-8.257-2.9-15.298-8.729-21.121      c-4.906-4.899-10.666-7.752-17.285-8.552l-3.26-28.626c4.008-1.446,7.637-3.792,10.883-7.04      c5.848-5.844,8.777-12.903,8.789-21.179c-0.012-8.274-2.941-15.334-8.789-21.179c-5.824-5.825-12.867-8.734-21.123-8.727      c-8.279-0.008-15.34,2.901-21.184,8.727c-0.826,0.837-1.602,1.69-2.328,2.561l-21.533-9.948      c0.314-1.789,0.469-3.631,0.467-5.527v-0.059c-0.004-7.661-2.525-14.274-7.566-19.84c-0.371-0.413-0.76-0.82-1.162-1.223      c-5.832-5.798-12.871-8.688-21.127-8.668c-8.232-0.02-15.254,2.87-21.064,8.668c-0.402,0.402-0.791,0.81-1.164,1.223      c-0.355,0.383-0.705,0.771-1.049,1.164l-21.588-9.95c0.313-1.756,0.467-3.578,0.463-5.468c0.01-8.257-2.901-15.297-8.728-21.121      c-5.826-5.846-12.868-8.775-21.125-8.785C221.614,104.97,214.572,107.899,208.748,113.745z" fill="#333333" fill-rule="evenodd"/></g><g><path clip-rule="evenodd" d="M239.881,295.332c2.69-2.036,5.775-3.046,9.252-3.027      c2.075-0.016,4.015,0.332,5.819,1.048c1.81,0.764,3.479,1.906,5.006,3.434c2.295,2.291,3.713,4.928,4.248,7.911      c0.168,0.93,0.246,1.9,0.232,2.909c0.014,4.171-1.48,7.762-4.48,10.764c-3.026,3.021-6.633,4.534-10.826,4.539      c-4.19-0.005-7.799-1.519-10.824-4.539c-2.74-2.733-4.214-5.954-4.422-9.656c-0.042-0.368-0.062-0.736-0.059-1.107      c-0.015-4.19,1.479-7.798,4.48-10.82C238.825,296.264,239.348,295.779,239.881,295.332z" fill="#333333" fill-rule="evenodd"/></g><g><path clip-rule="evenodd" d="M190.007,272.466c0.001,0.298,0.001,0.606,0,0.93      c-0.006,4.19-1.519,7.8-4.538,10.822c-0.534,0.541-1.096,1.046-1.688,1.514c-2.622,1.993-5.647,2.982-9.078,2.966      c-4.192,0.014-7.8-1.479-10.825-4.479c-2.738-2.754-4.213-5.99-4.423-9.716c-0.063-0.363-0.102-0.731-0.116-1.106      c0.006-4.171,1.519-7.759,4.539-10.764c0.518-0.527,1.061-1.012,1.629-1.454c2.66-2.055,5.725-3.083,9.196-3.083      c4.172,0.005,7.762,1.519,10.767,4.537C188.25,265.404,189.763,268.682,190.007,272.466z" fill="#333333" fill-rule="evenodd"/></g><g><path clip-rule="evenodd" d="M115.75,238.255c0,0.306,0,0.615,0,0.931      c-0.005,4.171-1.519,7.759-4.54,10.764c-0.57,0.579-1.152,1.104-1.746,1.571c-2.637,1.971-5.643,2.96-9.02,2.967      c-4.192-0.006-7.799-1.518-10.824-4.538c-3.021-3.005-4.534-6.593-4.539-10.764c0.005-4.191,1.518-7.798,4.539-10.822      c3.025-3.021,6.632-4.532,10.824-4.538c2.136-0.001,4.115,0.388,5.937,1.163c1.754,0.771,3.363,1.895,4.829,3.375      c2.324,2.319,3.76,4.977,4.307,7.971C115.621,236.963,115.698,237.603,115.75,238.255z" fill="#333333" fill-rule="evenodd"/></g><g><path clip-rule="evenodd" d="M180.581,187.055c-0.006,4.19-1.52,7.798-4.54,10.821      c-3.024,3.021-6.632,4.533-10.825,4.539c-2.154-0.015-4.152-0.442-5.994-1.281c-1.728-0.725-3.318-1.81-4.771-3.258      c-2.352-2.359-3.787-5.073-4.307-8.146c-0.146-0.864-0.224-1.757-0.233-2.676c0.006-4.172,1.519-7.759,4.54-10.764      c3.005-3.021,6.594-4.533,10.766-4.539c4.193,0.006,7.801,1.519,10.825,4.539C179.061,179.296,180.575,182.883,180.581,187.055z      " fill="#333333" fill-rule="evenodd"/></g><g><path clip-rule="evenodd" d="M250.997,211.084c0.172,0.192,0.347,0.387,0.523,0.582      c0.135,0.181,0.27,0.375,0.407,0.582c1.749,2.349,2.719,5.005,2.91,7.97c0,0.33,0,0.66,0,0.989      c-0.006,4.171-1.519,7.759-4.54,10.764c-0.543,0.553-1.105,1.058-1.687,1.514c-2.657,2.012-5.702,3.021-9.138,3.024      c-4.172-0.006-7.761-1.518-10.766-4.538c-3.021-3.005-4.534-6.593-4.539-10.764c0.005-4.191,1.518-7.798,4.539-10.822      c3.005-3.02,6.594-4.532,10.766-4.537c4.192,0.005,7.801,1.518,10.824,4.537c0.137,0.138,0.272,0.273,0.408,0.408      C250.804,210.897,250.901,210.995,250.997,211.084z" fill="#333333" fill-rule="evenodd"/></g><g><path clip-rule="evenodd" d="M313.73,240.058c4.191-0.014,7.799,1.479,10.824,4.481      c3.021,3.022,4.533,6.63,4.541,10.821c-0.008,4.189-1.52,7.799-4.541,10.821c-0.715,0.691-1.451,1.291-2.211,1.805      c-2.539,1.782-5.41,2.675-8.613,2.675c-2.104,0.003-4.063-0.386-5.877-1.163h-0.059c-1.744-0.741-3.355-1.846-4.83-3.316      c-2.363-2.366-3.797-5.1-4.307-8.203c-0.074-0.485-0.131-0.99-0.176-1.513c-0.039-0.363-0.061-0.731-0.059-1.105      c0.006-4.191,1.52-7.799,4.541-10.821c0.516-0.505,1.057-0.971,1.629-1.397C307.229,241.085,310.271,240.058,313.73,240.058z" fill="#333333" fill-rule="evenodd"/></g><g><path clip-rule="evenodd" d="M219.047,124.043c3.024-3,6.632-4.494,10.824-4.479      c4.172-0.015,7.761,1.479,10.766,4.479c2.776,2.772,4.29,6.031,4.54,9.775c0,0.353,0,0.701,0,1.048      c-0.006,4.171-1.52,7.759-4.54,10.764c-0.533,0.541-1.096,1.045-1.688,1.512c-2.621,2.014-5.648,3.022-9.078,3.025      c-4.192-0.006-7.8-1.519-10.824-4.537c-3.002-3.005-4.495-6.593-4.48-10.764C214.552,130.674,216.045,127.067,219.047,124.043z" fill="#333333" fill-rule="evenodd"/></g><g><path clip-rule="evenodd" d="M294.932,156.8c2.66-2.014,5.725-3.021,9.195-3.024      c4.18-0.007,7.748,1.447,10.711,4.363l0.057,0.174c0.223,0.171,0.434,0.345,0.641,0.523l0.057,0.059      c2.342,2.599,3.602,5.643,3.783,9.135c0.004,0.311,0.004,0.622,0,0.931v0.059c-0.006,4.205-1.5,7.794-4.48,10.764      c-0.553,0.543-1.135,1.028-1.746,1.454c-2.594,1.972-5.6,2.96-9.021,2.967c-4.225,0.011-7.836-1.463-10.822-4.421      c-2.705-2.705-4.16-5.924-4.365-9.658c-0.045-0.362-0.063-0.73-0.059-1.105v-0.059c0.01-3.884,1.291-7.238,3.842-10.065      l0.057-0.059c0.166-0.179,0.342-0.353,0.525-0.523l0.057-0.174C293.877,157.641,294.4,157.194,294.932,156.8z" fill="#333333" fill-rule="evenodd"/></g><g><path clip-rule="evenodd" d="M378.561,187.812c4.172,0.004,7.762,1.517,10.766,4.537      c3.02,3.005,4.533,6.592,4.537,10.764c-0.004,4.191-1.518,7.798-4.537,10.821c-0.711,0.712-1.447,1.333-2.211,1.863      c-2.518,1.782-5.367,2.675-8.555,2.676c-2.137,0.001-4.115-0.387-5.938-1.164c-1.752-0.77-3.365-1.895-4.828-3.375      c-2.748-2.712-4.26-5.893-4.541-9.54c-0.039-0.429-0.061-0.856-0.059-1.281c0.025-4.172,1.557-7.759,4.6-10.764      c0.459-0.471,0.945-0.896,1.455-1.279C371.93,188.909,375.033,187.824,378.561,187.812z" fill="#333333" fill-rule="evenodd"/></g><g><path clip-rule="evenodd" d="M388.162,274.327c1.996-0.014,3.861,0.316,5.586,0.988      c1.887,0.757,3.611,1.921,5.182,3.491c3.018,3.025,4.531,6.632,4.537,10.823c-0.006,4.17-1.52,7.757-4.537,10.764      c-3.006,3.021-6.596,4.531-10.768,4.538c-2.266,0.007-4.359-0.418-6.285-1.281c-1.635-0.777-3.148-1.864-4.539-3.257      c-2.408-2.405-3.842-5.18-4.307-8.321c-0.127-0.795-0.186-1.608-0.174-2.442c-0.016-4.191,1.479-7.798,4.48-10.823      c0.627-0.62,1.287-1.184,1.977-1.687C381.893,275.252,384.844,274.322,388.162,274.327z" fill="#333333" fill-rule="evenodd"/></g></g></g></svg>