<svg width="225" height="225" viewBox="0 0 225 225" fill="none" xmlns="http://www.w3.org/2000/svg">
<path fill-rule="evenodd" clip-rule="evenodd" d="M112.5 225C174.632 225 225 174.632 225 112.5C225 50.368 174.632 0 112.5 0C50.368 0 0 50.368 0 112.5C0 174.632 50.368 225 112.5 225ZM112.54 218.743C170.796 218.743 218.021 171.159 218.021 112.46C218.021 53.7612 170.796 6.17647 112.54 6.17647C54.2844 6.17647 7.05884 53.7612 7.05884 112.46C7.05884 171.159 54.2844 218.743 112.54 218.743Z" fill="black"/>
<path fill-rule="evenodd" clip-rule="evenodd" d="M112 212C167.229 212 212 167.228 212 112C212 56.7715 167.229 12 112 12C56.7715 12 12 56.7715 12 112C12 167.228 56.7715 212 112 212ZM145.265 164V151.329H92.6035C94.0684 148.937 95.9238 146.568 98.1699 144.225C100.416 141.832 105.494 137.315 113.404 130.675C122.877 122.667 129.64 116.368 133.692 111.778C137.794 107.188 140.724 102.818 142.481 98.668C144.239 94.5176 145.118 90.2939 145.118 85.9971C145.118 77.5498 142.115 70.4697 136.109 64.7568C130.104 59.0439 121.949 56.1875 111.646 56.1875C101.441 56.1875 93.3115 58.8486 87.2568 64.1709C81.2021 69.4443 77.7109 77.1348 76.7832 87.2422L90.333 88.6338C90.3818 81.8955 92.3105 76.6221 96.1191 72.8135C99.9277 69.0049 105.006 67.1006 111.354 67.1006C117.359 67.1006 122.218 68.9072 125.929 72.5205C129.688 76.085 131.568 80.4795 131.568 85.7041C131.568 90.6846 129.518 95.9824 125.416 101.598C121.314 107.164 113.429 114.732 101.759 124.303C94.2393 130.455 88.4775 135.875 84.4736 140.562C80.5186 145.25 77.6377 150.011 75.8311 154.845C74.708 157.774 74.1953 160.826 74.293 164H145.265ZM57.989 45.1007C57.3564 43.0066 57.1387 41.1545 57.3357 39.5444C57.4869 38.3561 57.8387 37.2246 58.3914 36.1497C58.9533 35.072 59.6551 34.1868 60.4965 33.4939C61.6134 32.5648 63.0086 31.8475 64.6819 31.342C67.7108 30.427 70.4159 30.6351 72.7971 31.9663C75.1877 33.2946 76.8884 35.6321 77.8994 38.9789C78.902 42.2975 78.7849 45.1689 77.5483 47.593C76.3089 50.0077 74.1794 51.6711 71.1599 52.5833C68.1029 53.5067 65.3914 53.3108 63.0252 51.9955C60.6561 50.6709 58.9774 48.3726 57.989 45.1007ZM62.2235 43.6684C62.9267 45.9962 63.998 47.6007 65.4373 48.4818C66.8739 49.3537 68.4195 49.5397 70.0741 49.0398C71.7288 48.54 72.905 47.5369 73.6027 46.0305C74.3069 44.512 74.299 42.5608 73.5789 40.1769C72.8672 37.8211 71.8175 36.2204 70.4296 35.3746C69.0511 34.5261 67.5065 34.3602 65.7957 34.877C64.085 35.3938 62.884 36.3993 62.1928 37.8935C61.4988 39.3783 61.509 41.3033 62.2235 43.6684ZM98.8854 42.9914L103.559 42.3539L92.1368 22.2385L87.5939 22.8582L82.2088 45.2663L86.7662 44.6446L87.8631 39.5719L96.3684 38.4117L98.8854 42.9914ZM90.4916 27.5191L94.5005 35.0148L88.6949 35.8067L90.4916 27.5191ZM107.255 21.5582L111.59 21.6257L111.409 33.2551C111.381 35.1006 111.416 36.2976 111.515 36.8461C111.686 37.7278 112.115 38.4425 112.8 38.9903C113.495 39.5286 114.447 39.8071 115.658 39.8259C116.889 39.8451 117.82 39.6105 118.453 39.1222C119.086 38.6242 119.471 38.01 119.609 37.2797C119.748 36.5493 119.83 35.3346 119.857 33.6356L120.041 21.7572L124.377 21.8246L124.201 33.1026C124.161 35.6804 124.016 37.4996 123.765 38.5603C123.514 39.621 123.065 40.5125 122.419 41.235C121.783 41.9576 120.934 42.5304 119.873 42.9534C118.812 43.3666 117.431 43.56 115.732 43.5336C113.682 43.5017 112.128 43.2431 111.071 42.7579C110.024 42.263 109.199 41.6348 108.595 40.8734C107.992 40.1022 107.599 39.3001 107.417 38.4671C107.153 37.2324 107.039 35.414 107.077 33.0119L107.255 21.5582ZM135.244 27.5724L132.44 45.1925L136.722 45.8738L139.526 28.2537L145.804 29.2527L146.375 25.6651L129.522 22.9833L128.951 26.571L135.244 27.5724ZM144.961 49.8412L151.308 29.3259L155.45 30.6074L152.952 38.682L161.069 41.193L163.567 33.1185L167.709 34.4L161.362 54.9152L157.22 53.6337L159.995 44.6636L151.878 42.1525L149.103 51.1227L144.961 49.8412ZM167.657 186C167.854 184.39 167.637 182.538 167.004 180.444C166.016 177.172 164.337 174.874 161.968 173.549C159.602 172.234 156.89 172.038 153.833 172.961C150.814 173.873 148.684 175.537 147.445 177.952C146.208 180.376 146.091 183.247 147.093 186.566C148.104 189.912 149.805 192.25 152.196 193.578C154.577 194.909 157.282 195.118 160.311 194.203C161.984 193.697 163.379 192.98 164.496 192.051C165.338 191.358 166.04 190.473 166.602 189.395C167.154 188.32 167.506 187.188 167.657 186ZM159.556 177.063C160.995 177.944 162.066 179.548 162.769 181.876C163.484 184.241 163.494 186.166 162.8 187.651C162.109 189.145 160.908 190.151 159.197 190.668C157.486 191.184 155.942 191.018 154.563 190.17C153.175 189.324 152.126 187.723 151.414 185.368C150.694 182.984 150.686 181.033 151.39 179.514C152.088 178.008 153.264 177.005 154.919 176.505C156.573 176.005 158.119 176.191 159.556 177.063ZM121.434 183.191L126.107 182.553L128.625 187.133L137.13 185.973L138.227 180.9L142.784 180.278L137.399 202.686L132.856 203.306L121.434 183.191ZM130.492 190.53L134.501 198.025L136.298 189.738L130.492 190.53ZM113.403 203.919L117.738 203.986L117.916 192.533C117.954 190.131 117.84 188.312 117.576 187.077C117.394 186.244 117.001 185.442 116.398 184.671C115.794 183.91 114.969 183.282 113.922 182.787C112.865 182.301 111.311 182.043 109.261 182.011C107.562 181.985 106.181 182.178 105.12 182.591C104.059 183.014 103.21 183.587 102.574 184.31C101.928 185.032 101.479 185.924 101.228 186.984C100.977 188.045 100.832 189.864 100.792 192.442L100.616 203.72L104.952 203.787L105.136 191.909C105.163 190.21 105.245 188.995 105.383 188.265C105.522 187.535 105.907 186.92 106.54 186.422C107.173 185.934 108.104 185.699 109.335 185.719C110.546 185.737 111.498 186.016 112.193 186.554C112.878 187.102 113.306 187.817 113.478 188.699C113.577 189.247 113.612 190.444 113.584 192.289L113.403 203.919ZM92.5529 180.352L89.7492 197.972L96.0421 198.974L95.4713 202.561L78.6179 199.88L79.1887 196.292L85.4672 197.291L88.2709 179.671L92.5529 180.352ZM73.6851 196.219L80.032 175.703L75.8898 174.422L73.1146 183.392L64.9981 180.881L67.7733 171.911L63.631 170.629L57.2841 191.145L61.4263 192.426L63.9244 184.352L72.0409 186.863L69.5429 194.937L73.6851 196.219Z" fill="black"/>
</svg>
