<svg width="319" height="477" viewBox="0 0 319 477" fill="none" xmlns="http://www.w3.org/2000/svg">
<g clip-path="url(#clip0_1216_214)">
<path d="M99.7124 157.251C97.8826 157.782 96.7903 157.978 96.1829 158.039C95.6738 157.664 95.0059 157.467 94.2929 157.584C93.5647 157.703 93.1125 158.101 92.9388 158.272C92.7287 158.478 92.5964 158.681 92.5203 158.813C92.4022 159.018 92.327 159.214 92.2783 159.381C92.1467 159.589 91.8311 160.052 91.1569 160.868C90.1581 162.077 88.4639 163.955 85.6263 166.795C80.1891 172.239 70.6418 181.131 53.9411 195.505C40.6792 173.275 34.454 144.743 32.8555 120.134C32.0278 107.392 32.4475 95.8016 33.7337 86.8025C34.3772 82.2997 35.23 78.501 36.2258 75.5553C37.2461 72.5373 38.3256 70.6931 39.2525 69.8099C40.123 68.9806 41.6935 68.2263 44.1561 67.807C46.583 67.3937 49.6557 67.3445 53.2637 67.722C60.4743 68.4764 69.5224 70.9025 79.2106 75.1007C98.5918 83.4991 120.169 98.8277 134.459 121.358C141.823 132.967 145.766 139.631 147.209 143.492C147.8 145.073 147.791 145.742 147.771 145.933C147.655 145.999 147.366 146.121 146.73 146.23C145.496 146.443 143.77 146.475 141.328 146.51L141.31 146.511C138.955 146.545 136.108 146.586 132.917 146.873C126.516 147.447 118.717 149.007 110.215 153.461C105.384 155.415 102.028 156.58 99.7124 157.251ZM95.6529 158.056C95.6533 158.056 95.6575 158.057 95.6654 158.058C95.6566 158.057 95.6525 158.056 95.6529 158.056ZM147.837 145.886C147.838 145.886 147.833 145.892 147.818 145.903C147.829 145.891 147.836 145.885 147.837 145.886Z" fill="black" stroke="black" stroke-width="5"/>
<path d="M268.503 218.956C268.403 218.813 268.294 218.655 268.176 218.48C267.631 217.669 266.998 216.66 266.233 215.441C266.129 215.275 266.022 215.105 265.913 214.931C265.012 213.496 263.961 211.835 262.745 210.009C257.916 202.766 250.468 192.943 238.878 183.797C228.998 168.443 215.456 161.458 205.924 156.542C203.543 155.314 201.412 154.215 199.651 153.146C197.38 151.769 195.891 150.562 195.046 149.364C194.292 148.297 193.995 147.166 194.318 145.603C194.672 143.894 195.79 141.592 198.19 138.444C200.57 135.323 204.076 131.541 208.971 126.878C228.273 108.487 253.065 99.0883 274.064 95.8813C284.559 94.2783 294.009 94.238 301.254 95.3443C304.879 95.8978 307.879 96.7275 310.157 97.7443C312.472 98.7769 313.828 99.906 314.474 100.925C315.158 102.003 315.75 104.034 315.992 107.176C316.228 110.243 316.113 114.093 315.618 118.568C314.629 127.511 312.153 138.729 308.187 150.764C300.436 174.283 287.114 200.568 268.503 218.956Z" fill="black" stroke="black" stroke-width="5"/>
<path d="M220.48 123.929C218.662 138.732 216.519 147.465 213.898 152.347C212.619 154.729 211.32 156.013 210.056 156.697C208.807 157.375 207.323 157.614 205.387 157.407C203.41 157.196 201.103 156.535 198.324 155.535C196.534 154.891 194.655 154.148 192.607 153.338C191.454 152.882 190.247 152.404 188.973 151.912C181.994 149.214 173.52 146.273 163.305 145.019C153.076 143.763 144.769 144.647 138.247 145.707C136.623 145.971 135.108 146.247 133.717 146.5L133.658 146.511C132.281 146.762 131.04 146.988 129.897 147.168C127.527 147.542 125.856 147.67 124.631 147.492C123.546 147.334 122.959 146.965 122.507 146.317C121.954 145.524 121.43 144.059 121.182 141.342C120.686 135.903 121.387 126.841 123.211 111.986C126.784 82.8793 139.732 55.1175 153.494 34.8234C160.371 24.6818 167.4 16.4819 173.477 10.9531C176.52 8.18468 179.266 6.13902 181.586 4.84815C183.986 3.51217 185.59 3.17547 186.477 3.2843C187.358 3.39247 188.814 4.10034 190.786 5.9687C192.693 7.77486 194.82 10.4154 197.053 13.8301C201.511 20.6493 206.213 30.2875 210.298 41.7759C218.473 64.7629 224.056 94.8081 220.48 123.929Z" fill="black" stroke="black" stroke-width="5"/>
<path d="M298.5 343.355C298.5 397.561 281.849 430.095 255.44 449.215C228.857 468.462 191.893 474.5 150.473 474.5C109.054 474.5 72.1037 468.462 45.5338 449.215C19.1386 430.095 2.5 397.562 2.5 343.355C2.5 289.099 19.1899 239.8 46.0641 204.119C72.9381 168.438 109.876 146.5 150.473 146.5C191.071 146.5 228.022 168.439 254.91 204.119C281.797 239.8 298.5 289.1 298.5 343.355Z" stroke="black" stroke-width="5"/>
<path d="M246.5 310.999C246.5 312.829 244.845 314.954 241.07 316.71C237.419 318.408 232.269 319.499 226.5 319.499C220.731 319.499 215.581 318.408 211.93 316.71C208.155 314.954 206.5 312.829 206.5 310.999C206.5 309.169 208.155 307.044 211.93 305.288C215.581 303.59 220.731 302.499 226.5 302.499C232.269 302.499 237.419 303.59 241.07 305.288C244.845 307.044 246.5 309.169 246.5 310.999Z" stroke="black" stroke-width="3"/>
<path d="M88.3509 307.437C88.1279 309.253 86.2262 311.161 82.2656 312.444C78.4344 313.684 73.1901 314.139 67.4641 313.436C61.738 312.733 56.7595 311.023 53.3424 308.893C49.8096 306.69 48.426 304.379 48.649 302.562C48.872 300.746 50.7737 298.838 54.7344 297.556C58.5655 296.315 63.8098 295.86 69.5358 296.563C75.2619 297.266 80.2404 298.976 83.6575 301.107C87.1903 303.31 88.5739 305.621 88.3509 307.437Z" stroke="black" stroke-width="3"/>
<path d="M164.247 307.458C157.776 312.716 150.302 314.862 141.825 313.893C133.348 312.924 127.065 309.406 122.975 303.337" stroke="black" stroke-width="6" stroke-linecap="round" stroke-linejoin="round"/>
<path fill-rule="evenodd" clip-rule="evenodd" d="M96.3968 261.18C92.3725 257.427 86.9166 255.21 80.9827 255.417C75.0493 255.625 69.7618 258.217 66.0095 262.241C62.2572 266.265 60.04 271.72 60.2472 277.654C60.4544 283.588 63.0467 288.876 67.0705 292.628C71.0944 296.381 76.5499 298.598 82.4834 298.391C88.4174 298.184 93.7054 295.591 97.4582 291.567C101.211 287.543 103.428 282.087 103.221 276.153C103.014 270.22 100.421 264.932 96.3968 261.18ZM74.872 266.637C78.7337 266.502 81.9766 269.525 82.1115 273.388C82.2464 277.252 79.2223 280.492 75.3606 280.628C71.4966 280.763 68.2549 277.74 68.12 273.877C67.9851 270.014 71.008 266.772 74.872 266.637Z" fill="black"/>
<path fill-rule="evenodd" clip-rule="evenodd" d="M226.666 266.636C222.642 262.883 217.186 260.666 211.252 260.873C205.319 261.081 200.031 263.673 196.279 267.697C192.526 271.721 190.309 277.177 190.516 283.11C190.723 289.044 193.316 294.332 197.339 298.084C201.364 301.837 206.82 304.054 212.753 303.847C218.687 303.64 223.975 301.048 227.727 297.023C231.48 292.999 233.697 287.544 233.49 281.609C233.282 275.676 230.69 270.388 226.666 266.636ZM205.141 272.094C209.004 271.959 212.246 274.982 212.381 278.845C212.516 282.709 209.493 285.95 205.63 286.085C201.766 286.22 198.524 283.197 198.39 279.334C198.255 275.471 201.278 272.229 205.141 272.094Z" fill="black"/>
<path d="M36.5 353.5L110.5 430.5" stroke="black" stroke-width="11" stroke-linecap="round"/>
<path d="M100.5 362.5L53.5 412.5" stroke="black" stroke-width="11" stroke-linecap="round"/>
<path d="M263.5 353.5L189.5 430.5" stroke="black" stroke-width="11" stroke-linecap="round"/>
<path d="M199.5 362.5L246.5 412.5" stroke="black" stroke-width="11" stroke-linecap="round"/>
<path d="M180.5 183.5L131.5 232.5" stroke="black" stroke-width="11" stroke-linecap="round"/>
<path d="M170.5 232.5L121.5 183.5" stroke="black" stroke-width="11" stroke-linecap="round"/>
</g>
<defs>
<clipPath id="clip0_1216_214">
<rect width="319" height="477" fill="white"/>
</clipPath>
</defs>
</svg>
