<svg width="60" height="40" viewBox="0 0 60 40" fill="none" xmlns="http://www.w3.org/2000/svg">
<path fill-rule="evenodd" clip-rule="evenodd" d="M26.7432 31.5805C25.7605 32.3788 24.5076 32.8572 23.1429 32.8572C21.7782 32.8572 20.5252 32.3788 19.5426 31.5806C19.752 30.9269 19.9931 30.3811 20.225 29.9997C20.3436 29.8046 20.456 29.6589 20.5554 29.5644C20.6636 29.4616 20.7215 29.4524 20.7268 29.4524L20.7297 29.4524C20.7657 29.4532 20.8191 29.469 20.9384 29.5271C20.9634 29.5393 20.9908 29.5531 21.0205 29.568L21.0205 29.568C21.1217 29.6188 21.2495 29.683 21.4036 29.7456C21.7761 29.8969 22.3084 30.0432 23.1429 30.0678C23.9773 30.0432 24.5097 29.8969 24.8822 29.7456C25.0363 29.683 25.1641 29.6188 25.2653 29.5679C25.295 29.5531 25.3223 29.5393 25.3474 29.5271C25.4666 29.469 25.5201 29.4532 25.556 29.4524L25.5589 29.4524C25.5643 29.4524 25.6221 29.4616 25.7304 29.5644C25.8297 29.6589 25.9421 29.8046 26.0608 29.9997C26.2926 30.3811 26.5338 30.9269 26.7432 31.5805ZM27.0494 31.3133C26.8505 30.7285 26.6255 30.2297 26.4023 29.8627C26.2769 29.6564 26.1482 29.4853 26.0199 29.3633C25.9006 29.2498 25.7441 29.1429 25.5589 29.1429C25.4044 29.1429 25.267 29.2053 25.1514 29.2617C25.1201 29.2769 25.0886 29.2927 25.0562 29.309C24.961 29.3568 24.8581 29.4084 24.7292 29.4616L24.7118 29.4687C24.3917 29.5988 23.9166 29.7338 23.1429 29.7581C22.3691 29.7338 21.8941 29.5988 21.5739 29.4687L21.5566 29.4616C21.4277 29.4084 21.3247 29.3568 21.2295 29.309L21.2295 29.309C21.1971 29.2927 21.1657 29.2769 21.1344 29.2617C21.0188 29.2053 20.8814 29.1429 20.7268 29.1429C20.5417 29.1429 20.3852 29.2498 20.2658 29.3633C20.1375 29.4853 20.0089 29.6564 19.8834 29.8627C19.6603 30.2297 19.4353 30.7286 19.2364 31.3133C18.1238 30.2707 17.4286 28.788 17.4286 27.1429C17.4286 23.987 19.987 21.4286 23.1429 21.4286C26.2988 21.4286 28.8572 23.987 28.8572 27.1429C28.8572 28.788 28.162 30.2707 27.0494 31.3133ZM23.1429 28.9286C24.4447 28.9286 25.5 27.8733 25.5 26.5714C25.5 25.2696 24.4447 24.2143 23.1429 24.2143C21.8411 24.2143 20.7857 25.2696 20.7857 26.5714C20.7857 27.8733 21.8411 28.9286 23.1429 28.9286ZM23.1429 29.4286C24.7208 29.4286 26 28.1494 26 26.5714C26 24.9935 24.7208 23.7143 23.1429 23.7143C21.5649 23.7143 20.2857 24.9935 20.2857 26.5714C20.2857 28.1494 21.5649 29.4286 23.1429 29.4286Z" fill="black"/>
<line x1="39.1072" y1="23.3214" x2="49.3215" y2="23.3214" stroke="black" stroke-width="0.5" stroke-linecap="round" stroke-linejoin="round"/>
<line x1="37.6786" y1="26.8929" x2="47.8929" y2="26.8929" stroke="black" stroke-width="0.5" stroke-linecap="round" stroke-linejoin="round"/>
<line x1="36.25" y1="30.4643" x2="46.4643" y2="30.4643" stroke="black" stroke-width="0.5" stroke-linecap="round" stroke-linejoin="round"/>
<path d="M19.0133 12.9338C19.0949 12.7565 19.2722 12.6429 19.4674 12.6429H39.1992H58.0858C58.4406 12.6429 58.6826 13.0023 58.549 13.3311L48.0436 39.1882C47.9671 39.3767 47.7839 39.5 47.5804 39.5H7.56137C7.19667 39.5 6.95467 39.1222 7.10721 38.7909L19.0133 12.9338Z" stroke="black"/>
<path fill-rule="evenodd" clip-rule="evenodd" d="M3 39H44.5714V40H3C1.89543 40 1 39.1046 1 38V2C1 0.895431 1.89543 0 3 0H26.0714C26.7009 0 27.2937 0.296388 27.6714 0.8L30.7571 4.91429C31.1348 5.4179 31.7276 5.71429 32.3571 5.71429H48.5915C49.5691 5.71429 50.4035 6.42111 50.5642 7.38549L51.4762 12.8571H50.4624L49.5779 7.54989C49.4975 7.0677 49.0803 6.71429 48.5915 6.71429H32.3571C31.4129 6.71429 30.5237 6.2697 29.9571 5.51429L26.8714 1.4C26.6826 1.14819 26.3862 1 26.0714 1H3C2.44772 1 2 1.44772 2 2V38C2 38.5523 2.44772 39 3 39Z" fill="black"/>
<path d="M1.35718 1.07141C1.71432 2.85713 4.57146 17.8571 5.28575 19.2857C6.00003 20.7143 18.8572 12.5 18.8572 12.5" stroke="black"/>
</svg>
