<svg width="31" height="28" viewBox="0 0 31 28" fill="none" xmlns="http://www.w3.org/2000/svg">
<path fill-rule="evenodd" clip-rule="evenodd" d="M14.1855 22.1064C13.6822 22.6651 13.0405 23 12.3415 23C11.6425 23 11.0007 22.6651 10.4974 22.1064C10.6047 21.6488 10.7282 21.2667 10.8469 20.9998C10.9077 20.8632 10.9653 20.7612 11.0162 20.6951C11.0716 20.6231 11.1012 20.6167 11.104 20.6167L11.1055 20.6167C11.1239 20.6173 11.1513 20.6283 11.2123 20.6689C11.2252 20.6775 11.2392 20.6871 11.2543 20.6975L11.2544 20.6976C11.3062 20.7331 11.3717 20.7781 11.4506 20.8219C11.6414 20.9278 11.9141 21.0302 12.3415 21.0475C12.7689 21.0302 13.0415 20.9278 13.2324 20.8219C13.3113 20.7781 13.3767 20.7331 13.4286 20.6976C13.4438 20.6871 13.4578 20.6775 13.4706 20.6689C13.5317 20.6283 13.5591 20.6173 13.5775 20.6167L13.579 20.6167C13.5817 20.6167 13.6113 20.6231 13.6668 20.6951C13.7177 20.7612 13.7752 20.8632 13.836 20.9998C13.9548 21.2667 14.0783 21.6488 14.1855 22.1064ZM14.3424 21.9193C14.2405 21.51 14.1253 21.1608 14.011 20.9038C13.9467 20.7594 13.8808 20.6397 13.8151 20.5543C13.7539 20.4749 13.6738 20.4 13.579 20.4C13.4998 20.4 13.4294 20.4437 13.3702 20.4832C13.3542 20.4938 13.3381 20.5049 13.3215 20.5162L13.3215 20.5163C13.2727 20.5497 13.22 20.5859 13.154 20.6231L13.1451 20.6281C12.9811 20.7191 12.7378 20.8137 12.3415 20.8306C11.9452 20.8137 11.7018 20.7191 11.5379 20.6281L11.529 20.6231C11.4629 20.5859 11.4102 20.5497 11.3615 20.5163L11.3614 20.5162C11.3449 20.5049 11.3287 20.4938 11.3127 20.4832C11.2535 20.4437 11.1831 20.4 11.104 20.4C11.0091 20.4 10.929 20.4749 10.8679 20.5543C10.8021 20.6397 10.7362 20.7594 10.672 20.9038C10.5577 21.1608 10.4425 21.51 10.3406 21.9193C9.77071 21.1895 9.41464 20.1516 9.41464 19C9.41464 16.7909 10.725 15 12.3415 15C13.9579 15 15.2683 16.7909 15.2683 19C15.2683 20.1516 14.9122 21.1895 14.3424 21.9193ZM12.9728 19.719C13.1685 19.4514 13.3049 19.0574 13.3049 18.6C13.3049 18.1426 13.1685 17.7486 12.9728 17.481C12.7767 17.2131 12.5475 17.1 12.3415 17.1C12.1354 17.1 11.9062 17.2131 11.7102 17.481C11.5144 17.7486 11.3781 18.1426 11.3781 18.6C11.3781 19.0574 11.5144 19.4514 11.7102 19.719C11.9062 19.9869 12.1354 20.1 12.3415 20.1C12.5475 20.1 12.7767 19.9869 12.9728 19.719ZM12.3415 20.6C13.1497 20.6 13.8049 19.7046 13.8049 18.6C13.8049 17.4954 13.1497 16.6 12.3415 16.6C11.5333 16.6 10.8781 17.4954 10.8781 18.6C10.8781 19.7046 11.5333 20.6 12.3415 20.6Z" fill="black"/>
<line x1="20.6402" y1="16.25" x2="25.628" y2="16.25" stroke="black" stroke-width="0.5" stroke-linecap="round" stroke-linejoin="round"/>
<line x1="19.9085" y1="18.75" x2="24.8963" y2="18.75" stroke="black" stroke-width="0.5" stroke-linecap="round" stroke-linejoin="round"/>
<line x1="19.1768" y1="21.25" x2="24.1646" y2="21.25" stroke="black" stroke-width="0.5" stroke-linecap="round" stroke-linejoin="round"/>
<path d="M30.1387 9.64248L24.9363 27.1425C24.8733 27.3546 24.6783 27.5 24.4571 27.5H4.95313C4.61117 27.5 4.37011 27.1644 4.47929 26.8404L10.3754 9.34036C10.4439 9.13697 10.6346 9 10.8492 9H20.5654H29.6595C29.9939 9 30.234 9.32193 30.1387 9.64248Z" stroke="black"/>
<path fill-rule="evenodd" clip-rule="evenodd" d="M3 27H23.3171V28H3C1.89543 28 1 27.1046 1 26V2C1 0.895431 1.89543 0 3 0H13.1699C13.8999 0 14.572 0.397791 14.9232 1.0378L15.9793 2.96219C16.3305 3.60221 17.0025 4 17.7326 4H24.473C25.4839 4 26.3359 4.75439 26.4583 5.75789L26.8537 9H25.8462L25.4656 5.87895C25.4044 5.37719 24.9785 5 24.473 5H17.7326C16.6375 5 15.6294 4.40331 15.1026 3.44329L14.0465 1.5189C13.8709 1.19889 13.5349 1 13.1699 1H3C2.44772 1 2 1.44772 2 2V26C2 26.5523 2.44772 27 3 27Z" fill="black"/>
<path d="M1.18292 0.75C1.36585 2 2.82926 12.5 3.19512 13.5C3.56097 14.5 10.1463 8.75 10.1463 8.75" stroke="black"/>
</svg>
