<svg width="512" height="512" viewBox="0 0 512 512" fill="none" xmlns="http://www.w3.org/2000/svg">
<g clip-path="url(#clip0)">
<path d="M287.999 89.1733C282.111 89.1733 277.332 84.3947 277.332 78.5067V42.6667C277.332 30.912 267.753 21.3333 255.999 21.3333C244.244 21.3333 234.665 30.912 234.665 42.6667V78.5067C234.665 84.3947 229.887 89.1733 223.999 89.1733C218.111 89.1733 213.332 84.416 213.332 78.5067V42.6667C213.332 19.136 232.468 0 255.999 0C279.529 0 298.665 19.136 298.665 42.6667V78.5067C298.665 84.416 293.887 89.1733 287.999 89.1733Z" fill="black"/>
<path d="M255.999 512C214.825 512 181.332 478.507 181.332 437.334C181.332 431.446 186.111 426.667 191.999 426.667C197.887 426.667 202.665 431.446 202.665 437.334C202.665 466.731 226.601 490.667 255.999 490.667C285.396 490.667 309.332 466.731 309.332 437.334C309.332 431.446 314.111 426.667 319.999 426.667C325.887 426.667 330.665 431.446 330.665 437.334C330.665 478.507 297.172 512 255.999 512Z" fill="black"/>
<path d="M437.335 449H74.668C57.0253 449 42.668 434.643 42.668 417C42.668 407.635 46.7426 398.781 53.868 392.68C87.4893 364.264 106.668 322.92 106.668 279.144V214.333C106.668 131.987 173.655 65 256.001 65C338.348 65 405.335 131.987 405.335 214.333V279.144C405.335 322.941 424.513 364.264 457.964 392.531C465.26 398.781 469.335 407.635 469.335 417C469.335 434.643 454.999 449 437.335 449ZM256.001 86.3333C185.409 86.3333 128.001 143.741 128.001 214.333V279.144C128.001 329.235 106.071 376.488 67.82 408.829C65.3666 410.92 64.0013 413.885 64.0013 417C64.0013 422.888 68.78 427.667 74.668 427.667H437.335C443.223 427.667 448.001 422.888 448.001 417C448.001 413.885 446.636 410.92 444.268 408.893C405.953 376.488 384.001 329.213 384.001 279.144V214.333C384.001 143.741 326.593 86.3333 256.001 86.3333Z" fill="black"/>
<path fill-rule="evenodd" clip-rule="evenodd" d="M331 315C386.228 315 431 270.228 431 215C431 159.772 386.228 115 331 115C275.772 115 231 159.772 231 215C231 270.228 275.772 315 331 315ZM327.863 203.505H316.584V220.057H327.79C339.509 220.057 345.368 225.38 345.368 236.024C345.368 240.419 343.928 243.959 341.047 246.644C338.215 249.281 334.284 250.599 329.255 250.599C324.861 250.599 321.15 249.33 318.122 246.791C315.144 244.252 313.654 240.98 313.654 236.976H292.487C292.487 246.205 295.857 253.627 302.595 259.242C309.382 264.857 318.098 267.665 328.742 267.665C340.119 267.665 349.25 264.808 356.135 259.096C363.069 253.383 366.535 245.79 366.535 236.317C366.535 230.458 365.046 225.38 362.068 221.083C359.138 216.786 354.67 213.563 348.664 211.415C353.498 209.218 357.404 206.068 360.383 201.967C363.362 197.865 364.851 193.373 364.851 188.49C364.851 179.017 361.653 171.596 355.256 166.224C348.86 160.804 340.022 158.095 328.742 158.095C322.248 158.095 316.291 159.34 310.871 161.83C305.5 164.32 301.301 167.787 298.274 172.23C295.295 176.625 293.806 181.605 293.806 187.172H314.973C314.973 183.607 316.34 180.726 319.074 178.529C321.809 176.283 325.202 175.16 329.255 175.16C333.747 175.16 337.263 176.356 339.802 178.749C342.39 181.141 343.684 184.486 343.684 188.783C343.684 193.226 342.39 196.791 339.802 199.476C337.214 202.162 333.235 203.505 327.863 203.505Z" fill="black"/>
</g>
<defs>
<clipPath id="clip0">
<rect width="512" height="512" fill="white"/>
</clipPath>
</defs>
</svg>
