<svg width="1989" height="1103" viewBox="0 0 1989 1103" fill="none" xmlns="http://www.w3.org/2000/svg">
<path d="M1388.62 788.303L1445.01 645.704H1607.83L1530.56 429.389L1627.2 185L1904 919.932H1699.87L1652.57 788.303H1388.62Z" fill="black"/>
<path d="M1266.47 919.933L1562.79 185L1366.34 185.001L1163.64 659.931L1019.5 185.002H868.5L713.732 659.931L604.586 443.515L505.812 747.817L606.096 919.933H799.427L939.284 494.023L1072.63 919.933H1266.47Z" fill="black"/>
<path d="M277.476 667.643H398.479C435.133 667.643 467.772 663.552 496.396 655.37L527.689 558.962L615.148 289.516C608.484 278.953 600.876 268.966 592.324 259.556C547.419 209.852 481.719 185 395.222 185H91V919.933H277.476V667.643ZM437.642 354.079C455.182 371.732 463.951 395.355 463.951 424.95C463.951 454.772 456.238 478.424 440.813 495.906C423.903 515.331 392.766 525.043 347.404 525.043H277.476V327.598H347.918C390.195 327.598 420.103 336.425 437.642 354.079Z" fill="black"/>
</svg>
