<svg id="Capa_1" enable-background="new 0 0 512 512" height="512" viewBox="0 0 512 512" width="512" xmlns="http://www.w3.org/2000/svg"><g><path id="XMLID_695_" d="m437.019 74.98c-48.352-48.351-112.639-74.98-181.019-74.98s-132.667 26.629-181.019 74.98c-48.353 48.353-74.981 112.64-74.981 181.02s26.628 132.667 74.981 181.02c48.352 48.351 112.639 74.98 181.019 74.98s132.667-26.629 181.019-74.98c48.353-48.353 74.981-112.64 74.981-181.02s-26.628-132.667-74.981-181.02zm54.754 171.02h-33.905c-3.082-8.055-9.773-14.32-18.098-16.818-5.882-40.49-24.865-76.793-52.513-104.44l35.541-35.541c40.534 40.532 66.415 95.703 68.975 156.799zm-207.261 173.251c-3.493-7.942-10.217-14.136-18.512-16.921v-31.339c55.685-4.802 100.189-49.305 104.991-104.991h34.57c2.587 6.761 7.715 12.261 14.22 15.332-10.795 70.069-65.642 125.794-135.269 137.919zm-193.916-153.251h50.413c4.802 55.686 49.305 100.188 104.991 104.991v31.425c-8.191 2.831-14.823 8.995-18.275 16.875-74.749-12.905-132.508-76.053-137.129-153.291zm329.184-35.332c-6.505 3.07-11.633 8.571-14.22 15.332h-34.57c-2.401-27.843-14.72-52.894-33.409-71.582l35.541-35.541c24.352 24.351 41.179 56.225 46.658 91.791zm-244.242-25.924c1.903.486 3.897.745 5.951.745 13.255 0 24-10.745 24-24 0-2.054-.259-4.048-.745-5.951 12.161-7.774 26.193-12.867 41.256-14.443v50.893c-16.875 3.833-30.18 17.138-34.013 34.012h-50.893c1.576-15.063 6.669-29.095 14.444-41.256zm80.462 76.399c-13.864 0-25.143-11.279-25.143-25.143s11.279-25.143 25.143-25.143 25.143 11.279 25.143 25.143-11.279 25.143-25.143 25.143zm-44.013-15.143c3.833 16.874 17.138 30.18 34.013 34.012v50.893c-44.65-4.671-80.235-40.256-84.906-84.906h50.893zm54.013 34.012c16.875-3.833 30.18-17.138 34.013-34.012h50.893c-4.671 44.649-40.256 80.235-84.906 84.906zm34.013-54.012c-1.916-8.437-6.19-15.989-12.107-21.906l35.541-35.541c15.062 15.062 25.124 35.122 27.459 57.447zm-54.013-104.991c-19.824 1.709-38.23 8.448-53.934 18.934-3.191-1.57-6.78-2.455-10.577-2.455-13.255 0-24 10.745-24 24 0 3.797.885 7.386 2.455 10.577-10.487 15.704-17.225 34.11-18.934 53.934h-50.414c4.991-83.425 71.978-150.411 155.404-155.402zm0-120.782v50.331c-94.46 5.036-170.406 80.982-175.443 175.442h-50.33c5.12-122.192 103.581-220.653 225.773-225.773zm-225.773 245.773h50.33c4.677 87.712 70.498 159.453 155.506 173.289 2.554 10.167 10.13 18.334 19.937 21.724v30.76c-122.192-5.121-220.653-103.582-225.773-225.773zm245.773 225.773v-30.674c9.944-3.34 17.636-11.579 20.201-21.854 79.381-13.038 141.97-76.578 153.57-156.427 8.325-2.498 15.016-8.763 18.098-16.818h33.905c-5.121 122.191-103.582 220.652-225.774 225.773z"/></g></svg>