<svg width="100" height="100" viewBox="0 0 100 100" fill="none" xmlns="http://www.w3.org/2000/svg">
<g clip-path="url(#clip0)">
<path d="M52.8263 11.5724C51.6605 12.4717 50.4943 13.4474 49.3326 14.4902C48.5007 13.7734 47.6674 13.0904 46.8341 12.4476C38.2197 5.80389 30.405 3.91756 24.8302 7.13631C19.2552 10.3549 16.9816 18.0648 18.4281 28.848C18.5806 29.9847 18.774 31.1451 19.0037 32.324C17.8308 32.7252 16.6947 33.15 15.6017 33.5996C5.54079 37.7383 -3.05176e-05 43.5627 -3.05176e-05 50C-3.05176e-05 56.4373 5.54079 62.2617 15.6017 66.4002C16.6947 66.8498 17.8308 67.2746 19.0037 67.6758C18.7742 68.8547 18.5806 70.0152 18.4281 71.1517C16.9818 81.9338 19.2552 89.6447 24.8302 92.8635C30.4052 96.0822 38.2197 94.1959 46.8341 87.5521C47.6674 86.9096 48.5007 86.2265 49.3326 85.5096C50.4943 86.5525 51.6603 87.5281 52.8263 88.4273C61.4408 95.0711 69.2554 96.9574 74.8302 93.7387C79.3095 91.1525 81.6574 85.6681 81.6574 78.0191C81.6574 76.1482 81.5168 74.1463 81.2324 72.0271C81.0492 70.6623 80.8078 69.2635 80.5138 67.8385C81.8584 67.3902 83.1562 66.9111 84.3984 66.4002C94.4591 62.2617 100 56.4373 100 50C100 43.5627 94.4591 37.7383 84.3982 33.5998C83.156 33.0888 81.8582 32.6097 80.5136 32.1615C80.8076 30.7365 81.0492 29.3377 81.2322 27.9728C81.5166 25.8531 81.6572 23.8523 81.6572 21.9808C81.6572 14.3326 79.3092 8.84705 74.83 6.26131C69.2552 3.04237 61.4408 4.92869 52.8263 11.5724V11.5724ZM23.8527 22.823C23.8527 17.4672 25.2123 13.6816 27.7597 12.2107C31.0933 10.2861 36.7414 12.0637 43.2556 17.0875C43.8763 17.5662 44.4974 18.0703 45.1183 18.5953C42.3238 21.5326 39.5894 24.839 36.9836 28.4363C32.6443 28.9332 28.4978 29.6803 24.6425 30.6572C24.1133 27.7892 23.8527 25.1558 23.8527 22.823V22.823ZM64.0609 42.2217C65.5814 44.8554 66.9455 47.4549 68.1584 49.9982C66.9451 52.5431 65.5824 55.1431 64.0609 57.7783C62.3824 60.6855 60.6058 63.4678 58.7605 66.0926C55.9578 66.3129 53.0334 66.432 50 66.432C46.6019 66.432 43.34 66.283 40.234 66.0088C38.6267 63.6681 37.0752 61.2094 35.5996 58.6537C33.9037 55.7162 32.4049 52.8222 31.091 50.0002C32.4049 47.1779 33.9037 44.284 35.5996 41.3465C37.0752 38.7906 38.6267 36.332 40.234 33.9914C43.34 33.7172 46.6019 33.5681 50 33.5681C53.0334 33.5681 55.9578 33.6873 58.7605 33.9076C60.6058 36.5322 62.3824 39.3144 64.0609 42.2217V42.2217ZM66.407 34.8014C68.9011 35.1939 71.2636 35.6701 73.4777 36.217C72.8463 38.3902 72.0822 40.6545 71.182 42.9898C70.5259 41.7543 69.8445 40.5205 69.1353 39.292C68.2517 37.7619 67.3406 36.2644 66.407 34.8014ZM71.1818 57.0105C72.0822 59.3463 72.8455 61.6099 73.4769 63.7834C71.2632 64.3301 68.9009 64.8062 66.407 65.1988C67.3406 63.7357 68.2517 62.2383 69.1351 60.7082C69.8445 59.4797 70.5259 58.2461 71.1818 57.0105ZM54.0906 72.2199C52.5535 74.0754 50.9875 75.8138 49.4068 77.4179C47.8566 75.7924 46.3234 74.0408 44.8201 72.1775C46.53 72.2523 48.2582 72.2914 50 72.2914C51.3728 72.2914 52.7369 72.2666 54.0906 72.2199ZM32.5992 65.0367C30.2646 64.6428 28.0517 64.1748 25.973 63.6445C26.5549 61.5627 27.2611 59.3931 28.0933 57.1547C28.8658 58.6347 29.6763 60.1127 30.5254 61.5832C31.2011 62.7539 31.8935 63.9049 32.5992 65.0367V65.0367ZM28.0931 42.8455C27.2609 40.607 26.5545 38.4375 25.9728 36.3555C28.0517 35.8252 30.2646 35.3572 32.5992 34.9633C31.8935 36.0951 31.2011 37.2461 30.5254 38.4166C29.6761 39.8875 28.8656 41.3652 28.0931 42.8455ZM44.8201 27.8224C46.3234 25.9592 47.8566 24.2076 49.4068 22.582C50.9875 24.1861 52.5535 25.9246 54.0906 27.7801C52.7369 27.7334 51.3728 27.7086 50 27.7086C48.258 27.7086 46.53 27.7476 44.8201 27.8224V27.8224ZM5.85934 50C5.85934 45.7619 11.2506 41.2599 20.3705 38.042C21.4601 41.9191 22.9049 45.9383 24.6709 50C22.9049 54.0617 21.4603 58.0808 20.3705 61.958C11.2506 58.74 5.85934 54.2381 5.85934 50ZM27.7599 87.7892C25.2121 86.3181 23.8529 82.5344 23.8529 77.1769C23.8529 74.8443 24.1134 72.2107 24.6429 69.3426C28.4982 70.3197 32.6447 71.0666 36.9838 71.5635C39.5896 75.1607 42.324 78.4672 45.1185 81.4045C44.4976 81.9295 43.8765 82.4336 43.2558 82.9123C36.7416 87.9363 31.0935 89.7138 27.7599 87.7892ZM75.8076 78.0521C75.8072 83.408 74.448 87.1935 71.9006 88.6644C68.567 90.589 62.9189 88.8115 56.4047 83.7877C55.4763 83.0719 54.547 82.3025 53.6193 81.4844C56.4744 78.5803 59.275 75.284 61.9492 71.6801C66.4933 71.2056 70.84 70.4607 74.8744 69.4648C75.5015 72.6267 75.8078 75.5164 75.8076 78.0521V78.0521ZM94.1406 50C94.1406 54.3203 88.5371 58.9142 79.0935 62.1431C77.9474 58.2006 76.4382 54.1181 74.6039 50C76.4382 45.8818 77.9474 41.7994 79.0935 37.8568C88.5371 41.0857 94.1406 45.6797 94.1406 50ZM71.9006 11.3355C75.6545 13.5027 76.8265 20.6926 74.8744 30.5353C70.84 29.5392 66.4933 28.7945 61.9492 28.3201C59.275 24.716 56.4744 21.4197 53.6193 18.5158C54.547 17.6976 55.4765 16.9283 56.4047 16.2125C62.9189 11.1883 68.567 9.41072 71.9006 11.3355Z" fill="black"/>
<path d="M59.0527 50C59.0527 45.0003 54.9996 40.9473 49.9999 40.9473C45.0003 40.9473 40.9472 45.0003 40.9472 50C40.9472 54.9997 45.0003 59.0527 49.9999 59.0527C54.9996 59.0527 59.0527 54.9997 59.0527 50Z" fill="black"/>
</g>
<defs>
<clipPath id="clip0">
<rect width="100" height="100" fill="white" transform="translate(-3.05176e-05 100) rotate(-90)"/>
</clipPath>
</defs>
</svg>
