<svg width="100" height="100" viewBox="0 0 100 100" fill="none" xmlns="http://www.w3.org/2000/svg">
<path d="M73.5614 13.3202H58.1414C57.5904 11.5953 56.5054 10.0903 55.0432 9.02236C53.581 7.95443 51.8171 7.37891 50.0064 7.37891C48.1957 7.37891 46.4319 7.95443 44.9696 9.02236C43.5074 10.0903 42.4224 11.5953 41.8714 13.3202H26.4414C23.524 13.3202 20.7261 14.4791 18.6632 16.542C16.6003 18.6049 15.4414 21.4028 15.4414 24.3202V81.6302C15.4414 84.5476 16.6003 87.3455 18.6632 89.4084C20.7261 91.4713 23.524 92.6302 26.4414 92.6302H73.5614C76.4788 92.6302 79.2767 91.4713 81.3396 89.4084C83.4025 87.3455 84.5614 84.5476 84.5614 81.6302V24.3202C84.5614 21.4028 83.4025 18.6049 81.3396 16.542C79.2767 14.4791 76.4788 13.3202 73.5614 13.3202ZM42.6414 15.3202C42.874 15.3254 43.101 15.2493 43.2836 15.1051C43.4661 14.9609 43.5926 14.7576 43.6414 14.5302C43.9592 13.0718 44.7664 11.7661 45.9287 10.8297C47.0911 9.8934 48.5388 9.38284 50.0314 9.38284C51.524 9.38284 52.9717 9.8934 54.1341 10.8297C55.2964 11.7661 56.1036 13.0718 56.4214 14.5302C56.4702 14.7576 56.5967 14.9609 56.7793 15.1051C56.9618 15.2493 57.1889 15.3254 57.4214 15.3202H62.8014V21.8702C62.8014 22.6658 62.4853 23.4289 61.9227 23.9915C61.3601 24.5541 60.5971 24.8702 59.8014 24.8702H40.2514C39.4558 24.8702 38.6927 24.5541 38.1301 23.9915C37.5675 23.4289 37.2514 22.6658 37.2514 21.8702V15.3202H42.6414ZM82.5614 81.6302C82.5614 84.0171 81.6132 86.3063 79.9254 87.9941C78.2375 89.682 75.9484 90.6302 73.5614 90.6302H26.4414C24.0545 90.6302 21.7653 89.682 20.0774 87.9941C18.3896 86.3063 17.4414 84.0171 17.4414 81.6302V24.3202C17.4414 21.9332 18.3896 19.644 20.0774 17.9562C21.7653 16.2684 24.0545 15.3202 26.4414 15.3202H35.2514V21.8702C35.2514 23.1963 35.7782 24.468 36.7159 25.4057C37.6536 26.3434 38.9253 26.8702 40.2514 26.8702H59.7514C61.0775 26.8702 62.3493 26.3434 63.2869 25.4057C64.2246 24.468 64.7514 23.1963 64.7514 21.8702V15.3202H73.5614C75.9484 15.3202 78.2375 16.2684 79.9254 17.9562C81.6132 19.644 82.5614 21.9332 82.5614 24.3202V81.6302Z" fill="black"/>
<path d="M71.6 45.9199H54C53.7348 45.9199 53.4804 46.0253 53.2929 46.2128C53.1054 46.4004 53 46.6547 53 46.9199C53 47.1851 53.1054 47.4395 53.2929 47.627C53.4804 47.8146 53.7348 47.9199 54 47.9199H71.6C71.8652 47.9199 72.1196 47.8146 72.3071 47.627C72.4946 47.4395 72.6 47.1851 72.6 46.9199C72.6 46.6547 72.4946 46.4004 72.3071 46.2128C72.1196 46.0253 71.8652 45.9199 71.6 45.9199Z" fill="black"/>
<path d="M73.6 45.9199H56C55.7348 45.9199 55.4804 46.0253 55.2929 46.2128C55.1054 46.4004 55 46.6547 55 46.9199C55 47.1851 55.1054 47.4395 55.2929 47.627C55.4804 47.8146 55.7348 47.9199 56 47.9199H73.6C73.8652 47.9199 74.1196 47.8146 74.3071 47.627C74.4946 47.4395 74.6 47.1851 74.6 46.9199C74.6 46.6547 74.4946 46.4004 74.3071 46.2128C74.1196 46.0253 73.8652 45.9199 73.6 45.9199Z" fill="black"/>
<path d="M71.0992 69.4902H53.4492C53.184 69.4902 52.9296 69.5956 52.7421 69.7831C52.5546 69.9707 52.4492 70.225 52.4492 70.4902C52.4492 70.7555 52.5546 71.0098 52.7421 71.1973C52.9296 71.3849 53.184 71.4902 53.4492 71.4902H71.0992C71.3644 71.4902 71.6188 71.3849 71.8063 71.1973C71.9939 71.0098 72.0992 70.7555 72.0992 70.4902C72.0992 70.225 71.9939 69.9707 71.8063 69.7831C71.6188 69.5956 71.3644 69.4902 71.0992 69.4902Z" fill="black"/>
<path d="M74.0992 69.4902H56.4492C56.184 69.4902 55.9296 69.5956 55.7421 69.7831C55.5546 69.9707 55.4492 70.225 55.4492 70.4902C55.4492 70.7555 55.5546 71.0098 55.7421 71.1973C55.9296 71.3849 56.184 71.4902 56.4492 71.4902H74.0992C74.3644 71.4902 74.6188 71.3849 74.8063 71.1973C74.9939 71.0098 75.0992 70.7555 75.0992 70.4902C75.0992 70.225 74.9939 69.9707 74.8063 69.7831C74.6188 69.5956 74.3644 69.4902 74.0992 69.4902Z" fill="black"/>
<path d="M43.6 45.9199H26C25.7348 45.9199 25.4804 46.0253 25.2929 46.2128C25.1054 46.4004 25 46.6547 25 46.9199C25 47.1851 25.1054 47.4395 25.2929 47.627C25.4804 47.8146 25.7348 47.9199 26 47.9199H43.6C43.8652 47.9199 44.1196 47.8146 44.3071 47.627C44.4946 47.4395 44.6 47.1851 44.6 46.9199C44.6 46.6547 44.4946 46.4004 44.3071 46.2128C44.1196 46.0253 43.8652 45.9199 43.6 45.9199Z" fill="black"/>
<path d="M44.0992 69.4902H26.4492C26.184 69.4902 25.9296 69.5956 25.7421 69.7831C25.5546 69.9707 25.4492 70.225 25.4492 70.4902C25.4492 70.7555 25.5546 71.0098 25.7421 71.1973C25.9296 71.3849 26.184 71.4902 26.4492 71.4902H44.0992C44.3644 71.4902 44.6188 71.3849 44.8063 71.1973C44.9939 71.0098 45.0992 70.7555 45.0992 70.4902C45.0992 70.225 44.9939 69.9707 44.8063 69.7831C44.6188 69.5956 44.3644 69.4902 44.0992 69.4902Z" fill="black"/>
</svg>
