<svg width="368" height="368" viewBox="0 0 368 368" fill="none" xmlns="http://www.w3.org/2000/svg">
<g clip-path="url(#clip0)">
<path d="M345 35.002H220.312L190.656 5.346C187.528 2.218 182.472 2.218 179.344 5.346L149.688 35.002H25C11.768 35.002 1 45.77 1 59.002V83.002C1 87.418 4.576 91.002 9 91.002C13.424 91.002 17 87.418 17 83.002V59.002C17 54.594 20.584 51.002 25 51.002H153C155.128 51.002 157.16 50.162 158.656 48.658L185 22.314L211.344 48.658C212.84 50.162 214.872 51.002 217 51.002H345C349.416 51.002 353 54.594 353 59.002V83.002C353 87.418 356.576 91.002 361 91.002C365.424 91.002 369 87.418 369 83.002V59.002C369 45.77 358.232 35.002 345 35.002Z" fill="black"/>
<path d="M357 264.001C352.576 264.001 349 267.585 349 272.001V296.001C349 300.409 345.416 304.001 341 304.001H213C210.872 304.001 208.84 304.841 207.344 306.345L181 332.689L154.656 306.345C153.16 304.841 151.128 304.001 149 304.001H21C16.584 304.001 13 300.409 13 296.001V272.001C13 267.585 9.424 264.001 5 264.001C0.576 264.001 -3 267.585 -3 272.001V296.001C-3 309.233 7.768 320.001 21 320.001H145.688L175.344 349.657C176.904 351.217 178.952 352.001 181 352.001C183.048 352.001 185.096 351.217 186.656 349.657L216.312 320.001H341C354.232 320.001 365 309.233 365 296.001V272.001C365 267.585 361.424 264.001 357 264.001Z" fill="black"/>
<path d="M126.346 214.6L118.046 240.1H134.446L126.346 214.6ZM98.2457 265V259.6L106.346 258.4L126.646 199.2H136.946L157.446 259.1L163.546 259.8V265H132.646V259.8L140.346 258.8L136.246 245.9H116.146L112.146 258.4L119.746 259.6V265H98.2457ZM194.833 205.1H192.533C192.467 209.233 192.4 213.4 192.333 217.6C192.333 221.8 192.333 226.033 192.333 230.3V234.3H195.233C199.633 234.3 202.933 232.9 205.133 230.1C207.333 227.233 208.433 223.533 208.433 219C208.433 214.4 207.233 210.933 204.833 208.6C202.5 206.267 199.167 205.1 194.833 205.1ZM167.833 204.7V199.3H195.033C201.967 199.3 207.567 200.133 211.833 201.8C216.1 203.4 219.2 205.7 221.133 208.7C223.133 211.633 224.133 215.1 224.133 219.1C224.133 222.9 223.2 226.4 221.333 229.6C219.533 232.733 216.533 235.233 212.333 237.1C208.133 238.967 202.4 239.9 195.133 239.9H192.333C192.333 242.767 192.333 245.8 192.333 249C192.4 252.133 192.467 255.367 192.533 258.7L201.433 259.6V265H167.833V259.6L175.333 258.8C175.467 254.733 175.533 250.633 175.533 246.5C175.533 242.367 175.533 238.2 175.533 234V230.3C175.533 226.167 175.533 222.033 175.533 217.9C175.533 213.7 175.467 209.567 175.333 205.5L167.833 204.7ZM228.185 204.7V199.3H260.385V204.7L252.885 205.5C252.818 209.567 252.751 213.667 252.685 217.8C252.685 221.933 252.685 226.1 252.685 230.3V233.9C252.685 238.033 252.685 242.2 252.685 246.4C252.751 250.533 252.818 254.667 252.885 258.8L260.385 259.6V265H228.185V259.6L235.685 258.8C235.818 254.733 235.885 250.633 235.885 246.5C235.885 242.367 235.885 238.2 235.885 234V230.3C235.885 226.167 235.885 222.033 235.885 217.9C235.885 213.7 235.818 209.567 235.685 205.5L228.185 204.7Z" fill="black"/>
<path d="M91.4227 96.1H87.4227C87.356 100.233 87.2893 104.367 87.2227 108.5C87.2227 112.567 87.2227 116.467 87.2227 120.2H91.0227C94.356 120.2 96.956 119.633 98.8227 118.5C100.689 117.367 102.023 115.867 102.823 114C103.623 112.133 104.023 110.133 104.023 108C104.023 100.067 99.8227 96.1 91.4227 96.1ZM63.0227 95.7V90.3H95.5227C103.389 90.3 109.423 91.7667 113.623 94.7C117.889 97.6333 120.023 101.7 120.023 106.9C120.023 109.1 119.456 111.3 118.323 113.5C117.189 115.633 115.323 117.533 112.723 119.2C110.123 120.8 106.589 121.967 102.123 122.7C105.923 123.167 108.889 124.1 111.023 125.5C113.156 126.833 114.756 128.6 115.823 130.8C116.889 132.933 117.656 135.567 118.123 138.7L120.023 149.8L127.623 150.6V156C126.023 156.333 124.689 156.6 123.623 156.8C122.556 157.067 121.489 157.233 120.423 157.3C119.423 157.367 118.156 157.4 116.623 157.4C112.356 157.4 108.989 156.667 106.523 155.2C104.123 153.733 102.656 151.067 102.123 147.2L100.323 135.6C99.856 132.267 98.8893 129.8 97.4227 128.2C96.0227 126.6 93.8227 125.8 90.8227 125.8H87.2227C87.2227 130.067 87.2227 134.167 87.2227 138.1C87.2893 142.033 87.356 145.933 87.4227 149.8L95.2227 150.6V156H63.0227V150.6L70.5227 149.8C70.656 145.733 70.7227 141.633 70.7227 137.5C70.7227 133.367 70.7227 129.2 70.7227 125V121.3C70.7227 117.167 70.7227 113.033 70.7227 108.9C70.7227 104.7 70.656 100.567 70.5227 96.5L63.0227 95.7ZM131.284 95.7V90.3H182.284L182.984 107.5H174.684L172.684 95.9H155.984C155.918 99.7 155.851 103.533 155.784 107.4C155.784 111.267 155.784 115.167 155.784 119.1H166.584L167.784 111.3H173.584V132.8H167.784L166.584 125H155.784C155.784 129.6 155.784 133.967 155.784 138.1C155.851 142.233 155.918 146.333 155.984 150.4H174.684L176.684 138.8H184.984L184.284 156H131.284V150.6L138.784 149.8C138.918 145.733 138.984 141.633 138.984 137.5C138.984 133.367 138.984 129.2 138.984 125V121.3C138.984 117.167 138.984 113.033 138.984 108.9C138.984 104.7 138.918 100.567 138.784 96.5L131.284 95.7ZM212.557 157.9C208.824 157.9 204.99 157.467 201.057 156.6C197.124 155.733 193.724 154.4 190.857 152.6L191.457 137.8H200.757L202.757 150.1C204.29 150.7 205.824 151.167 207.357 151.5C208.89 151.767 210.59 151.9 212.457 151.9C216.057 151.9 218.79 151 220.657 149.2C222.524 147.333 223.457 145.067 223.457 142.4C223.457 139.733 222.757 137.667 221.357 136.2C220.024 134.733 217.857 133.333 214.857 132L210.557 130.1C204.69 127.367 200.124 124.333 196.857 121C193.657 117.667 192.057 113.233 192.057 107.7C192.057 101.7 194.29 97 198.757 93.6C203.29 90.1333 209.324 88.4 216.857 88.4C220.457 88.4 223.89 88.8667 227.157 89.8C230.49 90.6667 233.357 91.9 235.757 93.5L234.957 107.5H225.757L223.857 95.7C222.79 95.3 221.724 95 220.657 94.8C219.59 94.5333 218.424 94.4 217.157 94.4C214.29 94.4 211.857 95.2333 209.857 96.9C207.857 98.5667 206.857 100.767 206.857 103.5C206.857 106.167 207.624 108.3 209.157 109.9C210.757 111.433 213.024 112.867 215.957 114.2L220.657 116.3C226.99 119.167 231.557 122.2 234.357 125.4C237.224 128.533 238.657 132.633 238.657 137.7C238.657 143.567 236.424 148.4 231.957 152.2C227.557 156 221.09 157.9 212.557 157.9ZM241.898 108.9L242.298 90.3H300.998L301.298 108.9H292.998L291.198 95.9H280.198C280.132 100.033 280.065 104.233 279.998 108.5C279.998 112.7 279.998 116.967 279.998 121.3V124.9C279.998 129.033 279.998 133.167 279.998 137.3C280.065 141.433 280.132 145.567 280.198 149.7L288.798 150.6V156H254.498V150.6L262.998 149.7C263.132 145.633 263.198 141.533 263.198 137.4C263.198 133.267 263.198 129.133 263.198 125V121.3C263.198 117.1 263.198 112.9 263.198 108.7C263.198 104.433 263.132 100.167 262.998 95.9H252.098L250.198 108.9H241.898Z" fill="black"/>
</g>
<defs>
<clipPath id="clip0">
<rect width="368" height="368" fill="white"/>
</clipPath>
</defs>
</svg>
