<svg width="100" height="100" viewBox="0 0 100 100" fill="none" xmlns="http://www.w3.org/2000/svg">
<path fill-rule="evenodd" clip-rule="evenodd" d="M89.7682 39.9863L97.551 41.251C98.9643 41.4855 100 42.7072 100 44.1406V55.8594C100 57.2928 98.9643 58.5145 97.5512 58.7488L89.7684 60.0135C88.7928 63.8986 87.2594 67.5894 85.1965 71.0312L89.6711 77.2998C90.5035 78.4643 90.3721 80.0605 89.3592 81.0734L81.0736 89.359C80.0551 90.3689 78.4615 90.4977 77.3 89.6709L71.0314 85.1963C67.5897 87.259 63.899 88.7926 60.0137 89.7682L58.749 97.551C58.5145 98.9643 57.2928 100 55.8594 100H44.1406C42.7072 100 41.4855 98.9643 41.2512 97.5512L39.9865 89.7684C36.1014 88.7928 32.4106 87.2594 28.9688 85.1965L22.7002 89.6711C21.5357 90.4978 19.9365 90.3691 18.9266 89.3592L10.641 81.0736C9.62813 80.0609 9.49649 78.4644 10.3291 77.3L14.8037 71.0314C12.741 67.5896 11.2074 63.899 10.2318 60.0137L2.44902 58.749C1.03574 58.5145 0 57.2928 0 55.8594V44.1406C0 42.7072 1.03574 41.4855 2.44882 41.251L10.2316 39.9863C11.2072 36.1012 12.7406 32.4103 14.8035 28.9686L10.3289 22.7C9.49649 21.5356 9.62793 19.9393 10.6408 18.9264L18.9264 10.641C19.9363 9.62518 21.5356 9.49081 22.7 10.3291L28.9686 14.8037C32.4103 12.741 36.101 11.2074 39.9863 10.2318L41.251 2.44904C41.4855 1.03574 42.7072 0 44.1406 0H55.8594C57.2928 0 58.5145 1.03574 58.7488 2.44882L60.0135 10.2316C63.8986 11.2072 67.5894 12.7406 71.0312 14.8035L77.2998 10.3289C78.4613 9.49063 80.0549 9.62518 81.0734 10.6408L89.359 18.9264C90.3719 19.9391 90.5035 21.5356 89.6709 22.7L85.1963 28.9686C87.259 32.4103 88.7926 36.101 89.7682 39.9863ZM17.7734 50C17.7734 62.3588 24.7664 73.115 35.0033 78.5198C34.9406 73.9009 35.7829 69.3269 36.9358 65.6841C37.6456 63.4412 38.479 61.5329 39.3049 60.1743C39.7165 59.4974 40.1386 58.9361 40.5596 58.5359C40.9514 58.1635 41.4648 57.8125 42.0723 57.8125C42.5793 57.8125 43.0302 58.0173 43.4095 58.2023C43.5114 58.252 43.614 58.3034 43.7194 58.3563L43.7206 58.3569L43.7218 58.3576L43.7221 58.3577C44.0343 58.5144 44.372 58.6839 44.7949 58.8584L44.8518 58.8817C45.9023 59.3085 47.4611 59.7516 50 59.8311C52.5389 59.7516 54.0977 59.3085 55.1482 58.8817L55.2051 58.8584C55.628 58.6839 55.9657 58.5144 56.2779 58.3577L56.2782 58.3576C56.3844 58.3042 56.4878 58.2523 56.5905 58.2023C56.9698 58.0173 57.4206 57.8125 57.9276 57.8125C58.5352 57.8125 59.0486 58.1635 59.4404 58.5359C59.8614 58.9361 60.2835 59.4974 60.6951 60.1743C61.521 61.5329 62.3544 63.4412 63.0642 65.6841C64.2171 69.3269 65.0594 73.9009 64.9967 78.5198C75.2336 73.115 82.2266 62.3588 82.2266 50C82.2266 32.2303 67.7697 17.7734 50 17.7734C32.2303 17.7734 17.7734 32.2303 17.7734 50ZM50 58.75C55.1777 58.75 59.375 54.5527 59.375 49.375C59.375 44.1973 55.1777 40 50 40C44.8223 40 40.625 44.1973 40.625 49.375C40.625 54.5527 44.8223 58.75 50 58.75Z" fill="black"/>
</svg>
