<?xml version="1.0" encoding="iso-8859-1"?>
<!-- Generator: Adobe Illustrator 18.1.1, SVG Export Plug-In . SVG Version: 6.00 Build 0)  -->
<svg version="1.1" id="Capa_1" xmlns="http://www.w3.org/2000/svg" xmlns:xlink="http://www.w3.org/1999/xlink" x="0px" y="0px"
	 viewBox="0 0 478.165 478.165" style="enable-background:new 0 0 478.165 478.165;" xml:space="preserve">
<g>
	<path id="Skype_2_" d="M458.142,273.67c1.853-11.237,2.769-22.852,2.769-34.587c0-122.55-99.379-221.829-221.848-221.829
		c-11.715,0-23.33,0.956-34.587,2.769C183.994,7.272,159.906,0,134.045,0C60.01,0,0,60.01,0,134.045
		c0,25.861,7.292,49.928,20.023,70.43c-1.813,11.317-2.769,22.753-2.769,34.607c0,122.45,99.279,221.809,221.809,221.809
		c11.735,0,23.33-0.897,34.607-2.749c20.501,12.612,44.688,20.023,70.43,20.023c74.175,0,134.065-59.89,134.065-134.065
		C478.165,318.358,470.773,294.191,458.142,273.67z M344.498,339.955c-9.583,13.548-23.271,24.187-41.341,31.718
		c-17.931,7.551-39.349,11.297-64.054,11.297c-29.467,0-53.953-5.14-73.319-15.5c-13.608-7.471-24.745-17.592-33.232-29.965
		c-8.647-12.532-12.99-24.745-12.99-36.819c0-7.013,2.73-13.07,7.91-18.17c5.32-5.061,12.114-7.551,20.242-7.551
		c6.575,0,12.193,1.953,16.815,5.997c4.483,3.845,8.288,9.504,11.476,17.015c3.746,8.766,7.89,16.158,12.153,21.916
		c4.383,5.638,10.46,10.579,18.27,14.345c7.83,3.746,18.15,5.638,31.16,5.638c17.712,0,32.157-3.785,42.975-11.297
		c10.918-7.79,16.278-17.074,16.278-28.331c0-8.886-2.829-15.959-8.766-21.537c-5.977-5.618-13.568-9.822-22.912-12.95
		c-9.464-2.929-22.334-6.136-38.293-9.484c-21.438-4.602-39.389-10.161-53.913-16.437c-14.624-6.296-26.14-14.783-34.767-25.701
		c-8.627-10.958-12.871-24.546-12.871-40.664c0-15.401,4.483-29.188,13.608-41.122c9.085-11.934,22.175-21.219,39.349-27.694
		c16.955-6.356,37.137-9.583,60.069-9.583c18.409,0,34.308,2.112,47.816,6.435c13.488,4.264,24.685,9.862,33.611,16.895
		c8.866,7.133,15.401,14.484,19.585,22.354c4.204,7.77,6.156,15.441,6.156,22.872c0,6.854-2.729,13.289-7.93,18.708
		c-5.16,5.579-11.795,8.368-19.665,8.368c-7.013,0-12.552-1.654-16.357-5.14c-3.965-3.267-7.79-8.607-12.034-16.058
		c-5.479-10.281-11.715-18.23-19.186-24.028c-7.392-5.618-19.445-8.607-35.982-8.607c-15.54,0-27.893,3.208-37.237,9.464
		c-9.384,6.196-13.847,13.548-13.847,21.996c0,5.379,1.474,9.842,4.662,13.727c3.088,3.965,7.511,7.232,13.09,10.081
		c5.618,2.989,11.396,5.12,17.074,6.734c5.818,1.654,15.401,4.025,28.909,7.212c16.796,3.586,31.898,7.71,45.744,11.994
		c13.628,4.443,25.303,9.802,35.006,16.258c9.523,6.196,17.274,14.345,22.534,24.247c5.559,9.543,8.308,21.597,8.308,35.623
		C358.584,311.106,353.862,326.447,344.498,339.955z"/>
</g>
<g>
</g>
<g>
</g>
<g>
</g>
<g>
</g>
<g>
</g>
<g>
</g>
<g>
</g>
<g>
</g>
<g>
</g>
<g>
</g>
<g>
</g>
<g>
</g>
<g>
</g>
<g>
</g>
<g>
</g>
</svg>
