<svg id="_x31__x2C_5" enable-background="new 0 0 24 24" height="512" viewBox="0 0 24 24" width="512" xmlns="http://www.w3.org/2000/svg"><path d="m12 5c-.717 0-7-.07-7-2.5s6.283-2.5 7-2.5 7 .07 7 2.5-6.283 2.5-7 2.5zm-5.436-2.5c.471.401 2.447 1 5.436 1s4.965-.599 5.436-1c-.471-.401-2.447-1-5.436-1s-4.965.599-5.436 1zm10.957.094h.01z"/><path d="m12 9c-.717 0-7-.07-7-2.5 0-.414.336-.75.75-.75s.75.336.75.75c.219.299 2.268 1 5.5 1s5.281-.701 5.521-1.094c0-.415.325-.703.739-.703.415 0 .74.383.74.797 0 2.43-6.283 2.5-7 2.5z"/><path d="m12 13c-.717 0-7-.07-7-2.5 0-.414.336-.75.75-.75s.75.336.75.75c.219.299 2.268 1 5.5 1s5.281-.701 5.521-1.094c0-.415.325-.703.739-.703.415 0 .74.383.74.797 0 2.43-6.283 2.5-7 2.5z"/><path d="m17.08 16.27c-.414 0-.755-.336-.755-.75 0-.342.226-.631.538-.721.549-.223.656-.391.657-.393l-.02-11.906c0-.414.336-.75.75-.75s.75.336.75.75v12c0 .712-.554 1.291-1.646 1.718-.087.034-.18.052-.274.052z"/><path d="m6.88 16.25c-.092 0-.185-.017-.275-.052-1.327-.523-1.605-1.212-1.605-1.698v-12c0-.414.336-.75.75-.75s.75.336.75.75v12c.009-.051.189.12.655.302.385.152.574.587.423.973-.117.295-.399.475-.698.475z"/><path d="m12.25 24h-.5c-.965 0-1.75-.785-1.75-1.75v-2.5c0-.965.785-1.75 1.75-1.75h.5c.965 0 1.75.785 1.75 1.75v2.5c0 .965-.785 1.75-1.75 1.75zm-.5-4.5c-.138 0-.25.112-.25.25v2.5c0 .138.112.25.25.25h.5c.138 0 .25-.112.25-.25v-2.5c0-.138-.112-.25-.25-.25z"/><path d="m13.25 24c-.192 0-.384-.073-.53-.22l-1-1c-.293-.293-.293-.768 0-1.061s.768-.293 1.061 0l1 1c.293.293.293.768 0 1.061-.147.147-.339.22-.531.22z"/><path d="m6.208 24h-1.458c-.414 0-.75-.336-.75-.75s.336-.75.75-.75h1.458c.158 0 .292-.172.292-.375s-.134-.375-.292-.375h-.416c-.988 0-1.792-.841-1.792-1.875s.804-1.875 1.792-1.875h1.458c.414 0 .75.336.75.75s-.336.75-.75.75h-1.458c-.158 0-.292.172-.292.375s.134.375.292.375h.416c.988 0 1.792.841 1.792 1.875s-.804 1.875-1.792 1.875z"/><path d="m19.25 24h-2.5c-.414 0-.75-.336-.75-.75v-4.5c0-.414.336-.75.75-.75s.75.336.75.75v3.75h1.75c.414 0 .75.336.75.75s-.336.75-.75.75z"/></svg>