<svg width="24" height="12" viewBox="0 0 24 12" fill="none" xmlns="http://www.w3.org/2000/svg">
<path d="M16.214 0.761963L16.139 1.15296C16.023 1.89396 16.065 2.10596 16.383 2.38096L16.69 2.63496L16.372 4.05296C16.182 4.89896 15.949 5.60796 15.801 5.84096C15.674 6.04196 15.526 6.33796 15.494 6.49696C15.441 6.68696 15.261 6.87796 14.986 7.04696C14.743 7.18496 14.266 7.55496 13.928 7.85196C13.658 8.09496 13.472 8.24396 13.371 8.30796L13.041 8.56896C12.935 8.73896 12.875 8.87596 12.852 8.97996C12.829 9.08696 12.842 9.15796 12.876 9.20996C12.909 9.25996 12.966 9.29496 13.044 9.31696C13.1363 9.3386 13.2314 9.34636 13.326 9.33996C13.5401 9.32534 13.7519 9.28779 13.958 9.22796C14.028 9.20896 14.083 9.19096 14.131 9.17496C14.205 9.08396 14.376 8.91196 14.679 8.61296C15.483 7.81996 15.79 7.38596 15.473 7.50296C15.356 7.54496 15.409 7.43896 15.61 7.22696C16.034 6.81396 16.277 6.18996 16.785 4.23296C17.187 2.68796 17.187 2.66596 17.483 2.66596C17.622 2.66596 18.015 2.68996 18.015 2.68996V0.761963H17.113H16.214ZM20.053 3.92696C19.989 3.92696 19.883 4.02296 19.82 4.12896C19.704 4.31896 19.841 4.43496 21.587 5.52496C22.624 6.18196 23.46 6.74196 23.439 6.78496C23.418 6.81596 22.571 7.36696 21.556 8.00196C19.714 9.14396 19.704 9.15496 19.873 9.38796C20.085 9.66296 19.873 9.75796 22.264 8.26596L24 7.15496V6.31896L22.063 5.12296C21.016 4.46696 20.106 3.93796 20.053 3.92696ZM3.968 4.04396C3.915 4.04396 3.005 4.58396 1.958 5.22896L0 6.42496V7.26096L1.947 8.47796C3.027 9.14396 3.937 9.69496 3.979 9.69496C4.021 9.69496 4.106 9.59896 4.191 9.48296C4.318 9.28196 4.211 9.19696 2.423 8.06496C0.72 6.99596 0.54 6.84796 0.71 6.73196C0.816 6.65796 1.62 6.15996 2.488 5.62096C4.467 4.40396 4.361 4.48796 4.202 4.23396C4.139 4.12896 4.032 4.03396 3.969 4.04396H3.968ZM12.652 4.06696C12.36 4.06496 11.732 4.50996 9.852 6.04496C9.771 6.23796 9.764 6.37096 9.801 6.45696C9.825 6.51596 9.869 6.55696 9.93 6.58696C9.99 6.61696 10.068 6.63496 10.154 6.64196C10.325 6.65696 10.527 6.62996 10.69 6.59796L10.8 6.57296C10.8377 6.52247 10.8871 6.48196 10.944 6.45496C11.06 6.39096 11.547 5.94696 12.034 5.47096C12.891 4.60296 13.092 4.21096 12.743 4.08396C12.7144 4.07257 12.6838 4.0668 12.653 4.06696H12.652ZM14.848 4.66996C14.591 4.67696 14.128 4.97496 13.335 5.60796C12.937 5.93096 12.685 6.10496 12.55 6.14096L12.026 6.55496C11.829 6.91496 11.8 7.13796 11.852 7.26096C11.865 7.2913 11.8839 7.31877 11.9076 7.34177C11.9313 7.36477 11.9593 7.38285 11.99 7.39496C12.0664 7.42513 12.1479 7.44041 12.23 7.43996C12.4263 7.43787 12.6214 7.40928 12.81 7.35496C12.9083 7.32858 13.0054 7.29789 13.101 7.26296L13.13 7.25096L13.183 7.22296C13.283 7.09396 13.513 6.85096 13.801 6.57096C14.711 5.69296 15.176 5.06896 15.081 4.83596C15.038 4.72296 14.964 4.66596 14.848 4.66996V4.66996ZM12.424 5.74996C12.35 5.75796 12.184 5.88596 11.885 6.14796C11.453 6.52996 10.982 6.74996 10.819 6.65196C10.7811 6.66052 10.7431 6.66852 10.705 6.67596C10.539 6.70896 10.332 6.73596 10.147 6.72096C10.0598 6.71568 9.9744 6.69432 9.895 6.65796C9.82011 6.62372 9.76035 6.56325 9.727 6.48796C9.69 6.39796 9.69 6.28596 9.732 6.14296L9.082 6.67696L7.611 7.89396V9.86696L12.431 6.06996C12.4301 6.02839 12.4355 5.98691 12.447 5.94696C12.484 5.81296 12.482 5.74496 12.424 5.75096V5.74996ZM14.498 6.38896C14.425 6.38896 14.303 6.49196 14.108 6.69896C13.843 6.98196 13.426 7.25596 13.205 7.31196L13.171 7.32996C13.1347 7.34495 13.098 7.35895 13.061 7.37196C13.001 7.39196 12.923 7.41596 12.833 7.43996C12.653 7.48896 12.429 7.53396 12.229 7.52896C12.1347 7.52884 12.0413 7.51051 11.954 7.47496C11.8717 7.44104 11.8057 7.37651 11.77 7.29496C11.712 7.15596 11.735 6.96096 11.862 6.68396L7.61 10.033V11.238H9.478L13.44 8.12596C13.543 8.01196 13.698 7.85596 13.907 7.66096C14.467 7.14196 14.594 6.96296 14.594 6.69796C14.594 6.49196 14.571 6.38796 14.498 6.38796V6.38896ZM15.441 8.33896L15.102 8.67696C14.912 8.85696 14.573 9.07896 14.341 9.17396L14.295 9.19396L14.292 9.19896L14.282 9.20896C14.273 9.21596 14.269 9.21696 14.262 9.21996C14.1694 9.25502 14.0753 9.28605 13.98 9.31296C13.7681 9.37464 13.5502 9.4132 13.33 9.42796C13.2259 9.43464 13.1214 9.42553 13.02 9.40096C12.932 9.38159 12.8543 9.33029 12.802 9.25696C12.754 9.18296 12.74 9.08396 12.767 8.96196C12.7885 8.87511 12.8204 8.79116 12.862 8.71196L9.665 11.238H13.917L14.425 10.656C15.123 9.84196 15.441 9.25996 15.441 8.76196V8.33896Z" fill="black"/>
</svg>
