<svg width="12" height="11" viewBox="0 0 12 11" fill="none" xmlns="http://www.w3.org/2000/svg">
<path fill-rule="evenodd" clip-rule="evenodd" d="M9.27701 0L9.202 0.390991C9.086 1.13202 9.12799 1.34399 9.44598 1.61902L9.75299 1.87299L9.435 3.29102C9.245 4.13702 9.01199 4.84601 8.86401 5.07898C8.737 5.27997 8.58899 5.57599 8.55701 5.73499C8.504 5.92499 8.32401 6.11597 8.04901 6.28497C7.806 6.42297 7.32901 6.79297 6.991 7.09003C6.72101 7.33301 6.535 7.48199 6.43399 7.54602L6.104 7.80701C5.99799 7.97699 5.93799 8.11401 5.91501 8.21802C5.90558 8.26184 5.90219 8.29962 5.90384 8.33252C5.90619 8.37994 5.91891 8.4173 5.939 8.448C5.95862 8.47772 5.98669 8.50214 6.02261 8.52167C6.04715 8.53503 6.07535 8.54608 6.10699 8.55499C6.15732 8.56683 6.20847 8.57446 6.25992 8.578C6.30286 8.58093 6.34598 8.58093 6.38901 8.578C6.48105 8.57172 6.57266 8.56122 6.66357 8.54651C6.74994 8.53253 6.83569 8.51477 6.92056 8.49329C6.95419 8.4848 6.98767 8.47571 7.021 8.466C7.091 8.44702 7.146 8.42902 7.194 8.41302C7.26801 8.32202 7.439 8.15002 7.742 7.85101C8.54599 7.05798 8.853 6.62402 8.53601 6.74097C8.41901 6.78302 8.47198 6.677 8.673 6.46503C9.09698 6.052 9.34 5.42798 9.84799 3.47101L9.87045 3.38458C10.2501 1.92517 10.2556 1.90399 10.546 1.90399C10.685 1.90399 11.078 1.92798 11.078 1.92798V0H10.176H9.27701ZM5.715 3.30499C5.423 3.30298 4.79501 3.74799 2.91501 5.28302C2.83401 5.47601 2.827 5.60901 2.86401 5.69501C2.888 5.75397 2.93201 5.79498 2.99301 5.82501C3.02515 5.84106 3.06244 5.8537 3.10336 5.86304C3.13885 5.87115 3.17706 5.87677 3.21701 5.88C3.388 5.89502 3.59 5.86798 3.75299 5.836L3.86301 5.81097C3.88025 5.7879 3.89993 5.76691 3.92166 5.74829C3.94745 5.72626 3.9761 5.70764 4.00699 5.69299C4.12299 5.62897 4.60999 5.185 5.09698 4.70898C5.95401 3.841 6.155 3.44897 5.806 3.32202C5.79761 3.31866 5.78897 3.3158 5.78015 3.31342C5.77515 3.31207 5.77008 3.31091 5.76501 3.30988C5.7485 3.30652 5.73163 3.30487 5.715 3.30499ZM7.91101 3.90802C7.65399 3.91498 7.19101 4.21301 6.39801 4.84601C6 5.16901 5.74799 5.34302 5.61301 5.37897L5.08899 5.79297C4.892 6.15302 4.86301 6.37598 4.91501 6.49902C4.92801 6.52936 4.9469 6.55682 4.97061 6.57983C4.97925 6.5882 4.98846 6.59595 4.9982 6.60297C5.01511 6.61517 5.03351 6.62531 5.05301 6.633C5.12939 6.66315 5.21091 6.67847 5.293 6.67798C5.48929 6.6759 5.68439 6.64734 5.87299 6.59302C5.97131 6.56659 6.06839 6.53595 6.164 6.50098L6.19299 6.48901L6.246 6.461C6.34601 6.33197 6.57599 6.08899 6.86401 5.80902C7.77399 4.93097 8.23901 4.30701 8.14401 4.07397C8.10101 3.961 8.02701 3.90399 7.91101 3.90802ZM5.487 4.98798C5.41299 4.99597 5.24701 5.12402 4.948 5.38599C4.51599 5.76801 4.04501 5.98798 3.88199 5.89001C3.86136 5.89465 3.84073 5.89911 3.82004 5.90344C3.8027 5.9071 3.78537 5.91058 3.76801 5.914C3.60199 5.94702 3.39499 5.974 3.20999 5.95898C3.1228 5.95374 3.03741 5.93237 2.95801 5.896C2.88312 5.86176 2.82336 5.80127 2.79001 5.72601C2.75299 5.63599 2.75299 5.52399 2.79501 5.38098L2.14499 5.91498L0.674011 7.13202V9.10498L5.49399 5.30798C5.4931 5.26642 5.4985 5.22498 5.51001 5.185C5.547 5.05103 5.54501 4.98199 5.487 4.98798ZM7.561 5.62701C7.48801 5.62701 7.366 5.72998 7.17099 5.93701C6.90601 6.21997 6.48901 6.49402 6.26801 6.54999L6.23401 6.56799C6.21777 6.57471 6.20148 6.58118 6.18512 6.58746C6.16486 6.59528 6.14447 6.60278 6.12399 6.60999C6.064 6.63 5.98599 6.65399 5.896 6.67798C5.716 6.72699 5.492 6.77197 5.29199 6.76697C5.19769 6.76691 5.10431 6.74854 5.017 6.71301C4.93469 6.67908 4.86871 6.61456 4.83301 6.53302C4.77499 6.39398 4.798 6.19897 4.92499 5.922L0.673004 9.27106V10.476H2.54099L6.50299 7.36401C6.60599 7.25 6.76099 7.09399 6.97 6.89899C7.53 6.38 7.65701 6.20099 7.65701 5.93597C7.65701 5.72998 7.634 5.62701 7.561 5.62701ZM8.504 7.57703L8.16501 7.91498C7.97501 8.09497 7.63599 8.31702 7.40399 8.41199L7.358 8.43201L7.35501 8.43701L7.345 8.44702C7.336 8.45398 7.332 8.45502 7.32501 8.45801C7.27826 8.47571 7.23114 8.49237 7.18369 8.508C7.13712 8.52338 7.09021 8.53772 7.043 8.55103C6.96112 8.57483 6.87836 8.59521 6.79489 8.61212C6.66235 8.63892 6.52811 8.65698 6.39301 8.66602C6.28891 8.67267 6.18439 8.66357 6.08301 8.63898C6.05634 8.63312 6.03061 8.62433 6.00623 8.61285C5.95023 8.58649 5.90143 8.54608 5.86499 8.495C5.81699 8.42102 5.80301 8.32202 5.82999 8.20001C5.8515 8.11316 5.88339 8.02917 5.92499 7.95001L2.728 10.476H6.98001L7.48801 9.89404C8.186 9.08002 8.504 8.49799 8.504 8V7.57703Z" fill="black"/>
</svg>
