<svg width="32" height="32" viewBox="0 0 32 32" fill="none" xmlns="http://www.w3.org/2000/svg">
<g clip-path="url(#clip0)">
<path d="M26.7072 14.5104L26.768 14.4497L25.9066 14.2375C25.5775 14.1564 25.0684 14.1112 24.5922 14.0973C24.1173 14.0835 23.6039 14.0987 23.2662 14.1639C21.3577 14.5252 19.9753 15.7692 19.5899 17.5873L19.5894 17.5894C19.53 17.876 19.5163 18.3221 19.5274 18.7258C19.5386 19.1299 19.5771 19.5756 19.6527 19.861L19.6525 19.8611L19.656 19.8732C19.8488 20.5334 20.1868 21.1436 20.6397 21.6613L20.6396 21.6613L20.6476 21.67C21.366 22.4531 22.1603 22.9239 23.8275 23.6449C23.8274 23.6449 23.8274 23.6448 23.8273 23.6448L26.7072 14.5104ZM26.7072 14.5104C27.2482 14.7496 27.7137 15.0843 28.1491 15.531L28.1561 15.5383L28.1561 15.5383C28.3173 15.7107 28.5111 15.9465 28.6692 16.1565C28.7485 16.262 28.8232 16.3668 28.8826 16.4585C28.9121 16.5041 28.9409 16.5513 28.9655 16.5968C28.9855 16.634 29.0202 16.7014 29.0406 16.7791L29.0435 16.7902L29.0434 16.7902C29.0842 16.9618 29.0221 17.0938 29.0074 17.1245C28.9846 17.1722 28.9592 17.206 28.9473 17.2211C28.9218 17.2536 28.8968 17.2775 28.8857 17.2881C28.8596 17.3125 28.8311 17.3357 28.8086 17.3535C28.7603 17.3916 28.6958 17.439 28.6229 17.491C28.4752 17.5964 28.2716 17.7361 28.044 17.889C27.5901 18.1938 27.0281 18.5594 26.5997 18.824C26.4233 18.9358 26.248 18.9026 26.1769 18.8819C26.0983 18.8589 26.0405 18.8224 26.0116 18.8026C25.9495 18.7603 25.898 18.7095 25.8623 18.6716C25.7859 18.5905 25.7043 18.4841 25.627 18.3683C25.4491 18.1096 25.2872 17.9543 25.1245 17.8564C24.9643 17.7601 24.7717 17.7002 24.5021 17.6809C24.1074 17.6555 23.845 17.7495 23.6915 17.8741C23.5473 17.9912 23.4453 18.178 23.447 18.4711L23.447 18.4785L23.4469 18.486C23.4438 18.6127 23.4729 18.7391 23.5272 18.8455L23.5323 18.8555L23.5322 18.8555C23.6529 19.1054 23.8655 19.3091 25.1343 19.859C27.4295 20.8445 28.5353 21.543 29.233 22.5991C30.011 23.7753 30.1682 25.5907 29.6595 26.9556L29.6578 26.9603L29.6578 26.9603C29.068 28.496 27.6276 29.4864 25.7346 29.8046C25.412 29.8625 24.9123 29.8823 24.4401 29.877C23.9645 29.8716 23.4587 29.8401 23.1217 29.778C21.7466 29.5327 20.4223 28.852 19.5862 27.9246C19.4123 27.7349 19.1791 27.4185 19.0001 27.1539C18.9088 27.0189 18.8238 26.8861 18.7621 26.7785C18.7323 26.7266 18.701 26.6687 18.6773 26.6139C18.6663 26.5886 18.6487 26.5453 18.6365 26.4941C18.6305 26.4688 18.6214 26.4237 18.6213 26.3679C18.6212 26.3196 18.627 26.2047 18.7036 26.0868L18.7139 26.071L18.7253 26.056C18.7647 26.0043 18.8073 25.9699 18.8154 25.9631C18.8326 25.9489 18.8494 25.9364 18.8625 25.9269C18.8894 25.9075 18.92 25.8872 18.9501 25.8679C19.0112 25.8286 19.0874 25.7826 19.1657 25.7376C19.2251 25.7034 19.3461 25.6332 19.5028 25.5423C19.7355 25.4073 20.0471 25.2265 20.3524 25.0503C20.3526 25.0502 20.3529 25.0501 20.3531 25.0499L21.2737 24.5147L21.6779 24.2798L21.9395 24.6673L22.1325 24.9533L22.1355 24.9577L22.1354 24.9578C22.2433 25.1213 22.4299 25.336 22.6391 25.5362C22.8529 25.7408 23.049 25.8905 23.165 25.9516L23.1664 25.9524C23.5888 26.1766 24.1028 26.2775 24.5866 26.2524C25.0772 26.227 25.4779 26.0763 25.7136 25.8654L25.7202 25.8595L25.727 25.8538C25.887 25.7206 25.9766 25.5135 25.9648 25.3088L25.964 25.2944V25.28C25.964 25.1121 25.9526 25.0338 25.9366 24.9793C25.9219 24.9293 25.8947 24.8691 25.8148 24.7543L26.7072 14.5104ZM18.776 16.0592L18.776 16.0569L18.76 14.7499L18.7539 14.2574L18.2614 14.256L12.6674 14.24L12.6668 14.24C11.1297 14.2375 9.72764 14.2387 8.70742 14.2433C8.19753 14.2455 7.78188 14.2486 7.49211 14.2524C7.34764 14.2543 7.23217 14.2565 7.15123 14.2589C7.11153 14.26 7.07578 14.2614 7.04766 14.2631C7.03486 14.2639 7.01574 14.2652 6.99593 14.2675C6.98765 14.2685 6.96666 14.2711 6.9414 14.2766C6.92992 14.2792 6.90294 14.2854 6.87026 14.2977C6.85379 14.3039 6.82565 14.3155 6.79313 14.3346C6.7652 14.351 6.70365 14.3903 6.64828 14.463L6.64834 14.463C6.60136 14.5245 6.58141 14.5789 6.57762 14.5892C6.5774 14.5898 6.57723 14.5903 6.57712 14.5906C6.56436 14.6239 6.5576 14.6521 6.55453 14.6658C6.54791 14.6951 6.54434 14.7217 6.54244 14.7372C6.53825 14.7713 6.53526 14.8103 6.53291 14.8479C6.52805 14.9256 6.52399 15.0303 6.52068 15.1522C6.51403 15.3974 6.51 15.7289 6.51 16.089V17.37V17.87H7.01H10.671V29.209V29.709H11.171H14.119H14.619V29.209V17.87H18.286H18.7898L18.786 17.3662L18.776 16.0592ZM0.5 16V0.5H31.5V31.5H0.5V16Z" stroke="black"/>
<path d="M11 14.5H15V30H11V14.5Z" fill="black"/>
<path d="M7 18V14H19V18H7Z" fill="black"/>
<path d="M20 16.5L22.5 14.5L25.5 14.5L27.5 15L29 17L26 19L25 17.5L23 18.5L28.5 21.8108L30 24.5L29.5 27L27.5 29.5L24.5 30L21.5 29L19.5 27.5L19 26L20 25L21.5 24.5L23.5 26.5L25 26L26 25L25.5 24.5L21 21.8108L19.5 19L20 16.5Z" fill="black"/>
</g>
<defs>
<clipPath id="clip0">
<rect width="32" height="32" fill="white"/>
</clipPath>
</defs>
</svg>
