<svg id="svg" version="1.1" xmlns="http://www.w3.org/2000/svg" xmlns:xlink="http://www.w3.org/1999/xlink" width="400" height="400" viewBox="0, 0, 400,400"><g id="svgg"><path id="path0" d="M141.539 55.506 C 141.506 55.668,141.460 56.062,141.438 56.382 C 141.416 56.702,140.948 57.071,140.399 57.200 L 139.400 57.436 139.305 103.118 L 139.210 148.800 140.205 148.800 C 141.115 148.800,141.434 149.322,141.247 150.502 C 141.220 150.668,158.614 150.758,179.899 150.702 L 218.600 150.600 218.725 149.725 C 218.802 149.179,219.179 148.802,219.725 148.725 L 220.600 148.600 220.702 102.899 C 220.758 77.764,220.668 57.220,220.502 57.247 C 219.550 57.398,218.945 57.097,218.595 56.300 L 218.200 55.400 179.900 55.306 C 158.835 55.254,141.573 55.344,141.539 55.506 M211.200 61.409 C 211.200 61.743,211.650 62.222,212.200 62.473 C 212.750 62.723,213.200 63.173,213.200 63.473 C 213.200 63.772,213.651 64.223,214.202 64.474 L 215.204 64.930 215.102 103.165 C 215.021 133.496,214.897 141.379,214.500 141.300 C 214.225 141.245,214.045 141.425,214.100 141.700 C 214.155 141.975,213.975 142.155,213.700 142.100 C 213.425 142.045,213.245 142.209,213.300 142.465 C 213.355 142.720,212.950 143.042,212.400 143.181 C 211.776 143.338,211.352 143.765,211.272 144.316 L 211.144 145.200 179.980 145.200 L 148.815 145.200 148.564 144.200 C 148.417 143.615,148.026 143.200,147.621 143.200 C 147.240 143.200,146.723 142.750,146.473 142.200 C 146.222 141.650,145.742 141.200,145.407 141.200 C 144.863 141.200,144.807 137.017,144.898 102.900 C 144.965 77.706,145.137 64.598,145.400 64.594 C 146.062 64.584,146.827 63.967,146.611 63.618 C 146.500 63.438,146.677 63.068,147.004 62.796 C 147.332 62.524,147.600 62.436,147.600 62.600 C 147.600 62.764,147.864 62.679,148.187 62.411 C 148.510 62.143,148.759 61.806,148.740 61.662 C 148.721 61.518,148.727 61.265,148.753 61.100 C 148.857 60.441,211.200 60.749,211.200 61.409 M151.200 74.000 L 151.200 76.800 180.000 76.800 L 208.800 76.800 208.800 74.000 L 208.800 71.200 180.000 71.200 L 151.200 71.200 151.200 74.000 M151.200 92.000 L 151.200 94.800 154.000 94.800 L 156.800 94.800 156.800 92.000 L 156.800 89.200 154.000 89.200 L 151.200 89.200 151.200 92.000 M157.200 92.000 L 157.200 94.800 183.000 94.800 L 208.800 94.800 208.800 92.000 L 208.800 89.200 183.000 89.200 L 157.200 89.200 157.200 92.000 M229.200 104.000 L 229.200 106.800 241.200 106.800 L 253.200 106.800 253.200 158.000 L 253.200 209.200 241.200 209.200 L 229.200 209.200 229.200 212.000 L 229.200 214.800 244.200 214.800 L 259.200 214.800 259.200 158.000 L 259.200 101.200 244.200 101.200 L 229.200 101.200 229.200 104.000 M151.200 112.000 L 151.200 114.800 154.000 114.800 L 156.800 114.800 156.800 112.000 L 156.800 109.200 154.000 109.200 L 151.200 109.200 151.200 112.000 M157.200 112.000 L 157.200 114.800 183.000 114.800 L 208.800 114.800 208.800 112.000 L 208.800 109.200 183.000 109.200 L 157.200 109.200 157.200 112.000 M151.200 132.000 L 151.200 134.800 154.000 134.800 L 156.800 134.800 156.800 132.000 L 156.800 129.200 154.000 129.200 L 151.200 129.200 151.200 132.000 M157.200 132.000 L 157.200 134.800 183.000 134.800 L 208.800 134.800 208.800 132.000 L 208.800 129.200 183.000 129.200 L 157.200 129.200 157.200 132.000 M141.539 163.506 C 141.506 163.668,141.460 164.062,141.438 164.382 C 141.416 164.702,140.948 165.071,140.399 165.200 L 139.400 165.436 139.305 211.118 L 139.210 256.800 140.205 256.800 C 141.115 256.800,141.434 257.322,141.247 258.502 C 141.220 258.668,158.614 258.758,179.899 258.702 L 218.600 258.600 218.725 257.725 C 218.802 257.179,219.179 256.802,219.725 256.725 L 220.600 256.600 220.702 210.899 C 220.758 185.764,220.668 165.220,220.502 165.247 C 219.550 165.398,218.945 165.097,218.595 164.300 L 218.200 163.400 179.900 163.306 C 158.835 163.254,141.573 163.344,141.539 163.506 M211.200 169.409 C 211.200 169.743,211.650 170.222,212.200 170.473 C 212.750 170.723,213.200 171.173,213.200 171.473 C 213.200 171.772,213.651 172.223,214.202 172.474 L 215.204 172.930 215.102 211.165 C 215.021 241.496,214.897 249.379,214.500 249.300 C 214.225 249.245,214.045 249.425,214.100 249.700 C 214.155 249.975,213.975 250.155,213.700 250.100 C 213.425 250.045,213.245 250.209,213.300 250.465 C 213.355 250.720,212.950 251.042,212.400 251.181 C 211.776 251.338,211.352 251.765,211.272 252.316 L 211.144 253.200 179.980 253.200 L 148.815 253.200 148.564 252.200 C 148.417 251.615,148.026 251.200,147.621 251.200 C 147.240 251.200,146.723 250.750,146.473 250.200 C 146.222 249.650,145.742 249.200,145.407 249.200 C 144.863 249.200,144.807 245.017,144.898 210.900 C 144.965 185.706,145.137 172.598,145.400 172.594 C 146.062 172.584,146.827 171.967,146.611 171.618 C 146.500 171.438,146.677 171.068,147.004 170.796 C 147.332 170.524,147.600 170.436,147.600 170.600 C 147.600 170.764,147.864 170.679,148.187 170.411 C 148.510 170.143,148.759 169.806,148.740 169.662 C 148.721 169.518,148.727 169.265,148.753 169.100 C 148.857 168.441,211.200 168.749,211.200 169.409 M151.200 182.000 L 151.200 184.800 180.000 184.800 L 208.800 184.800 208.800 182.000 L 208.800 179.200 180.000 179.200 L 151.200 179.200 151.200 182.000 M151.200 200.000 L 151.200 202.800 154.000 202.800 L 156.800 202.800 156.800 200.000 L 156.800 197.200 154.000 197.200 L 151.200 197.200 151.200 200.000 M157.200 200.000 L 157.200 202.800 183.000 202.800 L 208.800 202.800 208.800 200.000 L 208.800 197.200 183.000 197.200 L 157.200 197.200 157.200 200.000 M151.200 220.000 L 151.200 222.800 154.000 222.800 L 156.800 222.800 156.800 220.000 L 156.800 217.200 154.000 217.200 L 151.200 217.200 151.200 220.000 M157.200 220.000 L 157.200 222.800 183.000 222.800 L 208.800 222.800 208.800 220.000 L 208.800 217.200 183.000 217.200 L 157.200 217.200 157.200 220.000 M151.200 240.000 L 151.200 242.800 154.000 242.800 L 156.800 242.800 156.800 240.000 L 156.800 237.200 154.000 237.200 L 151.200 237.200 151.200 240.000 M157.200 240.000 L 157.200 242.800 183.000 242.800 L 208.800 242.800 208.800 240.000 L 208.800 237.200 183.000 237.200 L 157.200 237.200 157.200 240.000 " stroke="none" fill="#949494" fill-rule="evenodd"></path><path id="path1" d="M88.800 18.200 C 88.006 19.045,87.499 19.200,85.530 19.200 C 83.818 19.200,83.200 19.346,83.200 19.751 C 83.200 20.633,82.290 21.150,80.561 21.253 C 79.223 21.331,78.956 21.487,78.976 22.174 C 78.995 22.834,78.735 23.013,77.677 23.066 C 75.773 23.161,75.200 23.467,75.200 24.387 C 75.200 24.988,74.938 25.200,74.200 25.200 C 73.400 25.200,73.200 25.400,73.200 26.200 C 73.200 26.923,72.985 27.200,72.424 27.200 C 71.274 27.200,71.100 27.783,71.560 30.106 C 71.788 31.258,72.157 34.248,72.380 36.750 C 73.095 44.782,76.984 52.358,82.109 55.706 C 84.661 57.373,84.512 55.069,84.457 91.911 C 84.429 110.330,84.405 127.082,84.403 129.137 C 84.400 132.499,84.322 132.895,83.624 133.078 C 82.970 133.249,82.804 133.781,82.571 136.455 C 82.361 138.862,82.118 139.752,81.564 140.140 C 81.154 140.427,80.712 141.411,80.557 142.379 C 80.365 143.578,80.054 144.165,79.540 144.300 C 79.133 144.406,78.800 144.840,78.800 145.265 C 78.800 145.689,78.395 146.444,77.900 146.943 C 77.405 147.442,76.755 148.314,76.456 148.881 C 76.157 149.448,75.482 150.142,74.956 150.424 C 74.430 150.705,74.000 151.168,74.000 151.454 C 74.000 152.082,72.748 152.800,71.654 152.800 C 71.131 152.800,70.812 153.110,70.728 153.700 C 70.636 154.344,70.288 154.636,69.500 154.727 C 68.748 154.813,68.400 155.084,68.400 155.584 C 68.400 156.424,67.641 156.800,65.944 156.800 C 65.252 156.800,64.856 156.968,65.000 157.200 C 65.136 157.420,65.973 157.600,66.861 157.600 C 68.138 157.600,68.519 157.767,68.684 158.400 C 68.849 159.032,69.230 159.200,70.493 159.200 C 71.975 159.200,72.079 159.272,71.906 160.179 C 71.744 161.028,71.882 161.174,72.944 161.279 C 73.873 161.371,74.225 161.641,74.401 162.400 C 74.543 163.011,74.958 163.447,75.471 163.522 C 76.035 163.604,76.386 164.029,76.544 164.822 C 76.679 165.493,77.036 166.000,77.376 166.000 C 78.122 166.000,78.800 167.226,78.800 168.574 C 78.800 169.312,79.011 169.600,79.553 169.600 C 80.351 169.600,80.785 170.616,80.795 172.500 C 80.799 173.311,80.999 173.600,81.557 173.600 C 82.581 173.600,82.800 174.346,82.800 177.833 C 82.800 180.643,82.848 180.800,83.700 180.800 L 84.600 180.800 84.515 218.465 L 84.431 256.130 83.137 257.465 C 82.425 258.199,81.703 258.800,81.532 258.800 C 81.361 258.800,80.631 259.448,79.910 260.240 C 79.190 261.032,78.325 261.982,77.989 262.351 C 74.920 265.721,72.884 271.515,72.351 278.400 C 72.121 281.370,71.744 284.193,71.513 284.673 C 70.964 285.816,71.369 286.800,72.387 286.800 C 72.988 286.800,73.200 287.062,73.200 287.800 C 73.200 288.600,73.400 288.800,74.200 288.800 C 75.115 288.800,75.434 289.318,75.247 290.500 C 75.221 290.665,76.100 290.800,77.200 290.800 C 79.067 290.800,79.200 290.867,79.200 291.800 C 79.200 292.672,79.375 292.800,80.571 292.800 C 81.557 292.800,82.163 293.081,82.729 293.800 C 83.434 294.697,83.804 294.800,86.330 294.800 C 88.944 294.800,89.153 294.864,89.272 295.700 L 89.400 296.600 103.111 296.705 L 116.823 296.811 116.787 286.397 C 116.767 280.670,116.602 276.075,116.421 276.187 C 116.239 276.299,115.893 276.152,115.650 275.861 C 115.321 275.464,113.430 275.307,108.125 275.237 C 101.173 275.145,101.022 275.125,100.130 274.162 C 99.630 273.623,99.126 273.185,99.010 273.190 C 95.680 273.341,94.851 273.169,94.728 272.300 C 94.647 271.730,94.279 271.354,93.725 271.275 C 93.179 271.198,92.802 270.821,92.725 270.275 C 92.646 269.721,92.270 269.353,91.700 269.272 C 90.855 269.152,90.459 267.821,90.786 266.200 C 90.830 265.980,90.731 265.935,90.566 266.101 C 89.738 266.929,88.800 265.032,88.800 262.529 C 88.800 260.201,88.714 259.944,87.800 259.527 L 86.800 259.072 86.800 220.408 L 86.800 181.744 85.860 180.927 C 85.040 180.214,84.909 179.710,84.837 176.979 C 84.743 173.448,84.661 173.200,83.576 173.200 C 82.911 173.200,82.800 172.913,82.800 171.200 C 82.800 169.346,82.729 169.200,81.823 169.200 C 80.960 169.200,80.832 169.002,80.723 167.500 C 80.629 166.203,80.392 165.709,79.725 165.416 C 79.243 165.204,78.762 164.696,78.654 164.286 C 78.547 163.876,78.101 163.447,77.664 163.333 C 77.226 163.218,76.762 162.704,76.633 162.190 C 76.490 161.619,76.049 161.206,75.499 161.128 C 75.005 161.057,74.600 160.746,74.600 160.436 C 74.600 160.125,73.992 159.667,73.249 159.417 C 72.506 159.166,71.606 158.610,71.249 158.181 C 70.892 157.751,70.240 157.338,69.800 157.262 C 68.476 157.034,68.582 156.803,70.033 156.753 C 70.785 156.727,71.535 156.727,71.700 156.753 C 71.865 156.779,71.955 156.575,71.900 156.300 C 71.845 156.025,72.025 155.845,72.300 155.900 C 72.575 155.955,72.755 155.791,72.700 155.535 C 72.645 155.280,73.050 154.958,73.600 154.819 C 74.224 154.662,74.648 154.235,74.728 153.684 C 74.820 153.050,75.130 152.800,75.828 152.800 C 76.598 152.800,76.800 152.592,76.800 151.800 C 76.800 151.000,77.000 150.800,77.800 150.800 C 78.600 150.800,78.800 150.600,78.800 149.800 C 78.800 149.000,79.000 148.800,79.800 148.800 C 80.600 148.800,80.800 148.600,80.800 147.800 C 80.800 147.250,80.980 146.778,81.200 146.750 C 81.420 146.722,81.816 146.678,82.081 146.650 C 82.345 146.623,82.623 145.880,82.698 145.000 C 82.878 142.894,83.106 142.294,83.607 142.604 C 83.834 142.745,83.970 142.621,83.910 142.330 C 83.849 142.038,84.001 141.837,84.246 141.882 C 84.541 141.936,84.718 140.792,84.769 138.493 C 84.853 134.673,84.821 134.785,85.863 134.632 C 86.572 134.528,86.604 133.035,86.706 94.790 C 86.764 72.936,86.882 54.985,86.969 54.898 C 87.056 54.811,87.458 54.692,87.863 54.632 C 88.476 54.543,88.620 54.094,88.718 51.962 C 88.848 49.122,89.044 48.258,89.497 48.533 C 89.792 48.711,90.825 47.824,90.808 47.408 C 90.720 45.233,90.848 44.849,91.700 44.728 C 92.278 44.646,92.646 44.278,92.728 43.700 C 92.820 43.049,93.124 42.800,93.828 42.800 C 94.598 42.800,94.800 42.592,94.800 41.800 C 94.800 40.861,94.933 40.797,97.000 40.750 C 100.173 40.678,100.600 40.526,100.600 39.467 C 100.600 39.136,102.402 38.968,106.783 38.889 C 111.115 38.811,113.059 38.632,113.277 38.289 C 113.515 37.915,113.589 37.924,113.594 38.329 C 113.601 38.934,115.517 38.842,116.268 38.200 C 116.601 37.916,116.749 34.824,116.780 27.500 L 116.823 17.200 103.281 17.200 L 89.739 17.200 88.800 18.200 M283.200 19.339 C 283.200 21.729,282.134 24.455,281.556 23.542 C 281.167 22.929,281.058 35.164,281.443 36.167 C 281.576 36.515,282.116 36.800,282.643 36.800 C 283.508 36.800,283.664 36.983,283.570 37.884 C 283.502 38.538,285.349 38.745,291.471 38.772 C 297.882 38.800,297.949 38.809,298.729 39.800 C 299.357 40.599,299.873 40.800,301.293 40.800 C 302.802 40.800,303.141 40.952,303.527 41.800 C 303.826 42.457,304.308 42.800,304.929 42.800 C 305.878 42.800,307.200 43.896,307.200 44.683 C 307.200 44.913,307.468 45.324,307.796 45.596 C 308.123 45.868,308.275 46.278,308.134 46.507 C 307.990 46.740,308.068 46.805,308.311 46.655 C 308.857 46.317,309.083 46.684,309.260 48.200 C 309.337 48.860,309.805 49.781,310.300 50.246 C 311.097 50.995,311.200 51.483,311.200 54.503 C 311.200 57.245,311.324 57.962,311.833 58.157 C 312.827 58.539,313.200 58.447,313.200 57.819 C 313.200 57.499,313.864 56.922,314.676 56.537 C 320.222 53.905,324.759 45.733,325.855 36.400 C 327.028 26.412,327.029 27.287,325.848 26.749 C 325.272 26.487,324.800 26.134,324.800 25.967 C 324.800 25.347,322.314 23.200,321.597 23.200 C 321.133 23.200,320.808 22.864,320.728 22.300 C 320.619 21.532,320.321 21.382,318.700 21.278 C 316.881 21.161,316.580 20.898,316.733 19.560 C 316.748 19.428,315.475 19.283,313.904 19.237 C 310.818 19.147,310.240 18.982,310.655 18.311 C 310.805 18.068,310.740 17.990,310.507 18.134 C 310.278 18.275,309.868 18.123,309.596 17.796 C 309.177 17.291,307.132 17.200,296.151 17.200 L 283.200 17.200 283.200 19.339 M54.400 140.600 C 53.992 141.091,54.020 141.200,54.551 141.200 C 54.908 141.200,55.200 140.930,55.200 140.600 C 55.200 140.270,55.132 140.000,55.049 140.000 C 54.966 140.000,54.674 140.270,54.400 140.600 M49.782 143.782 C 49.040 144.654,49.201 145.200,50.200 145.200 C 50.981 145.200,51.200 144.996,51.200 144.267 C 51.200 143.285,50.430 143.022,49.782 143.782 M43.436 145.600 C 42.996 146.598,43.553 147.009,45.500 147.121 C 47.622 147.243,48.039 146.910,47.272 145.703 C 46.974 145.233,43.638 145.144,43.436 145.600 M327.829 157.829 C 327.074 158.583,327.342 159.200,328.424 159.200 C 328.925 159.200,329.200 158.925,329.200 158.424 C 329.200 157.342,328.583 157.074,327.829 157.829 M322.604 161.606 C 322.839 161.987,322.750 162.067,322.286 161.888 C 321.811 161.706,321.706 161.811,321.888 162.286 C 322.067 162.750,321.987 162.839,321.606 162.604 C 321.254 162.386,321.172 162.431,321.362 162.738 C 321.844 163.519,323.200 163.287,323.200 162.424 C 323.200 161.997,322.992 161.519,322.738 161.362 C 322.431 161.172,322.386 161.254,322.604 161.606 M320.604 163.606 C 320.839 163.987,320.750 164.067,320.286 163.888 C 319.811 163.706,319.706 163.811,319.888 164.286 C 320.067 164.750,319.987 164.839,319.606 164.604 C 319.254 164.386,319.172 164.431,319.362 164.738 C 319.844 165.519,321.200 165.287,321.200 164.424 C 321.200 163.997,320.992 163.519,320.738 163.362 C 320.431 163.172,320.386 163.254,320.604 163.606 M318.369 166.913 C 317.214 167.805,317.134 169.200,318.237 169.200 C 319.071 169.200,319.200 169.012,319.200 167.800 C 319.200 166.223,319.226 166.251,318.369 166.913 M350.298 167.822 C 350.105 168.830,350.133 168.843,352.352 168.733 C 354.374 168.633,354.608 168.529,354.659 167.711 C 354.751 166.225,350.583 166.332,350.298 167.822 M346.209 169.572 C 346.071 170.005,345.445 170.458,344.782 170.604 C 344.132 170.747,343.600 171.016,343.600 171.203 C 343.600 171.390,342.958 172.224,342.173 173.056 C 341.388 173.888,340.646 175.071,340.523 175.684 C 340.374 176.429,340.051 176.800,339.550 176.800 C 338.917 176.800,338.800 177.111,338.800 178.800 C 338.800 180.667,338.867 180.800,339.800 180.800 C 340.672 180.800,340.800 180.625,340.800 179.429 C 340.800 178.443,341.081 177.837,341.800 177.271 C 342.350 176.839,342.800 176.106,342.800 175.642 C 342.800 175.011,343.050 174.800,343.800 174.800 C 344.592 174.800,344.800 174.598,344.800 173.828 C 344.800 173.124,345.049 172.820,345.700 172.728 C 346.278 172.646,346.646 172.278,346.728 171.700 C 346.820 171.049,347.124 170.800,347.828 170.800 C 348.363 170.800,348.803 170.575,348.806 170.300 C 348.810 169.970,348.912 169.944,349.106 170.222 C 349.299 170.499,349.630 170.407,350.069 169.953 C 350.894 169.101,350.352 168.800,347.994 168.800 C 346.824 168.800,346.395 168.985,346.209 169.572 M315.637 170.500 C 315.435 171.040,315.459 171.501,315.696 171.652 C 315.930 171.801,315.868 171.991,315.545 172.120 C 315.245 172.239,315.495 172.351,316.100 172.368 C 317.096 172.397,317.200 172.268,317.200 171.000 C 317.200 169.367,316.183 169.041,315.637 170.500 M313.787 176.100 C 313.286 177.438,313.327 179.126,313.856 178.923 C 314.155 178.808,314.400 178.543,314.400 178.334 C 314.400 178.124,314.580 178.064,314.800 178.200 C 315.038 178.347,315.200 177.871,315.200 177.024 C 315.200 175.599,314.216 174.956,313.787 176.100 M336.800 187.613 C 336.800 188.046,337.025 188.403,337.300 188.406 C 337.657 188.411,337.641 188.513,337.242 188.766 C 336.915 188.973,336.792 189.403,336.946 189.805 C 337.156 190.350,337.327 190.393,337.783 190.014 C 338.193 189.674,338.256 189.273,338.004 188.610 C 337.810 188.100,337.737 187.596,337.843 187.491 C 337.948 187.385,337.757 187.192,337.417 187.062 C 336.990 186.898,336.800 187.067,336.800 187.613 M312.400 255.922 C 311.394 256.254,311.212 256.879,311.206 260.030 C 311.201 262.741,311.095 263.160,310.200 264.000 C 309.532 264.627,309.200 265.370,309.200 266.236 C 309.200 268.033,306.298 271.181,304.522 271.310 C 303.838 271.359,303.351 271.519,303.440 271.664 C 303.960 272.509,303.003 273.200,301.315 273.200 C 299.872 273.200,299.359 273.398,298.729 274.200 C 297.955 275.183,297.847 275.200,292.221 275.200 C 285.297 275.200,284.229 275.380,283.654 276.641 C 283.414 277.168,282.873 277.600,282.451 277.600 C 282.030 277.600,281.576 277.885,281.443 278.233 C 281.013 279.353,281.170 291.064,281.606 290.400 C 281.935 289.899,282.041 289.948,282.245 290.696 C 282.380 291.188,282.655 291.490,282.855 291.366 C 283.056 291.242,283.194 291.289,283.163 291.470 C 283.131 291.652,283.127 292.929,283.153 294.309 L 283.200 296.819 296.500 296.781 C 309.722 296.743,310.692 296.648,310.622 295.400 C 310.610 295.180,311.747 294.946,313.149 294.880 C 315.584 294.765,316.800 294.215,316.800 293.229 C 316.800 292.981,317.644 292.800,318.800 292.800 C 320.667 292.800,320.800 292.733,320.800 291.800 C 320.800 291.028,321.006 290.800,321.705 290.800 C 322.252 290.800,322.767 290.451,323.005 289.919 C 323.229 289.419,323.960 288.896,324.695 288.709 C 326.013 288.374,327.451 286.438,326.884 285.764 C 326.728 285.578,326.915 285.667,327.300 285.962 C 327.685 286.257,328.014 286.431,328.031 286.349 C 328.277 285.150,328.284 284.830,328.063 284.860 C 327.230 284.971,326.800 284.721,326.800 284.128 C 326.800 283.759,326.632 282.904,326.427 282.228 C 326.222 281.553,325.881 279.200,325.670 277.000 C 324.871 268.697,320.447 260.688,315.125 257.914 C 314.248 257.457,313.412 256.777,313.266 256.403 C 313.119 256.027,312.732 255.812,312.400 255.922 M334.813 267.900 L 334.825 270.200 335.817 269.073 C 337.122 267.589,337.063 265.600,335.715 265.600 C 334.866 265.600,334.801 265.767,334.813 267.900 M307.439 267.538 C 307.300 267.761,307.382 268.065,307.620 268.212 C 308.235 268.593,308.632 268.072,308.118 267.558 C 307.831 267.271,307.607 267.264,307.439 267.538 M332.800 274.772 C 332.800 275.887,332.980 276.800,333.200 276.800 C 333.420 276.800,333.600 276.530,333.600 276.200 C 333.600 275.870,333.856 275.600,334.169 275.600 C 335.183 275.600,334.713 273.025,333.671 272.872 C 332.874 272.755,332.800 272.917,332.800 274.772 M330.868 279.637 C 330.941 280.132,331.254 280.621,331.564 280.723 C 331.945 280.849,332.049 280.704,331.884 280.275 C 331.708 279.815,331.815 279.708,332.275 279.884 C 332.704 280.049,332.849 279.945,332.723 279.564 C 332.384 278.534,330.716 278.599,330.868 279.637 M328.800 283.449 C 328.800 283.980,328.909 284.008,329.400 283.600 C 329.730 283.326,330.000 283.034,330.000 282.951 C 330.000 282.868,329.730 282.800,329.400 282.800 C 329.070 282.800,328.800 283.092,328.800 283.449 " stroke="none" fill="#f3ad3a" fill-rule="evenodd"></path><path id="path2" d="M213.569 141.367 C 212.977 142.012,213.397 142.746,214.030 142.173 C 214.454 141.789,214.800 141.444,214.800 141.405 C 214.800 141.336,213.631 141.299,213.569 141.367 M213.569 249.367 C 212.977 250.012,213.397 250.746,214.030 250.173 C 214.454 249.789,214.800 249.444,214.800 249.405 C 214.800 249.336,213.631 249.299,213.569 249.367 M43.200 340.000 L 43.200 346.800 49.200 346.800 L 55.200 346.800 55.200 363.800 L 55.200 380.800 62.000 380.800 L 68.800 380.800 68.800 363.800 L 68.800 346.800 74.800 346.800 L 80.800 346.800 80.800 340.000 L 80.800 333.200 62.000 333.200 L 43.200 333.200 43.200 340.000 M81.200 335.000 C 81.200 336.653,81.281 336.800,82.200 336.800 C 83.000 336.800,83.200 337.000,83.200 337.800 C 83.200 338.600,83.400 338.800,84.200 338.800 C 85.133 338.800,85.200 338.933,85.200 340.800 C 85.200 342.667,85.267 342.800,86.200 342.800 C 87.133 342.800,87.200 342.933,87.200 344.800 C 87.200 346.667,87.267 346.800,88.200 346.800 C 89.000 346.800,89.200 347.000,89.200 347.800 C 89.200 348.600,89.400 348.800,90.200 348.800 C 91.133 348.800,91.200 348.933,91.200 350.800 C 91.200 352.667,91.267 352.800,92.200 352.800 C 93.133 352.800,93.200 352.933,93.200 354.800 C 93.200 356.667,93.267 356.800,94.200 356.800 C 95.133 356.800,95.200 356.933,95.200 358.800 C 95.200 360.667,95.267 360.800,96.200 360.800 C 97.133 360.800,97.200 360.933,97.200 362.800 C 97.200 364.667,97.267 364.800,98.200 364.800 L 99.200 364.800 99.200 372.800 L 99.200 380.800 106.000 380.800 L 112.800 380.800 112.800 372.800 L 112.800 364.800 113.800 364.800 C 114.733 364.800,114.800 364.667,114.800 362.800 C 114.800 360.933,114.867 360.800,115.800 360.800 C 116.733 360.800,116.800 360.667,116.800 358.800 C 116.800 356.933,116.867 356.800,117.800 356.800 C 118.733 356.800,118.800 356.667,118.800 354.800 C 118.800 352.933,118.867 352.800,119.800 352.800 C 120.600 352.800,120.800 352.600,120.800 351.800 C 120.800 351.000,121.000 350.800,121.800 350.800 C 122.733 350.800,122.800 350.667,122.800 348.800 C 122.800 346.933,122.867 346.800,123.800 346.800 C 124.733 346.800,124.800 346.667,124.800 344.800 C 124.800 342.933,124.867 342.800,125.800 342.800 C 126.733 342.800,126.800 342.667,126.800 340.800 C 126.800 338.933,126.867 338.800,127.800 338.800 C 128.600 338.800,128.800 338.600,128.800 337.800 C 128.800 337.000,129.000 336.800,129.800 336.800 C 130.719 336.800,130.800 336.653,130.800 335.000 L 130.800 333.200 122.000 333.200 L 113.200 333.200 113.200 334.200 C 113.200 335.000,113.000 335.200,112.200 335.200 C 111.400 335.200,111.200 335.400,111.200 336.200 C 111.200 337.000,111.000 337.200,110.200 337.200 C 109.267 337.200,109.200 337.333,109.200 339.200 C 109.200 341.067,109.133 341.200,108.200 341.200 C 107.267 341.200,107.200 341.333,107.200 343.200 C 107.200 345.156,107.173 345.200,106.000 345.200 C 104.827 345.200,104.800 345.156,104.800 343.200 C 104.800 341.333,104.733 341.200,103.800 341.200 C 102.867 341.200,102.800 341.067,102.800 339.200 C 102.800 337.333,102.733 337.200,101.800 337.200 C 100.867 337.200,100.800 337.067,100.800 335.200 L 100.800 333.200 91.000 333.200 L 81.200 333.200 81.200 335.000 M131.200 357.000 L 131.200 380.800 138.000 380.800 L 144.800 380.800 144.800 374.800 L 144.800 368.800 152.800 368.800 L 160.800 368.800 160.800 367.800 C 160.800 367.000,161.000 366.800,161.800 366.800 C 162.600 366.800,162.800 366.600,162.800 365.800 C 162.800 365.000,163.000 364.800,163.800 364.800 C 164.600 364.800,164.800 364.600,164.800 363.800 C 164.800 363.000,165.000 362.800,165.800 362.800 C 166.600 362.800,166.800 362.600,166.800 361.800 C 166.800 361.000,167.000 360.800,167.800 360.800 L 168.800 360.800 168.800 351.000 L 168.800 341.200 167.800 341.200 C 167.000 341.200,166.800 341.000,166.800 340.200 C 166.800 339.400,166.600 339.200,165.800 339.200 C 165.000 339.200,164.800 339.000,164.800 338.200 C 164.800 337.400,164.600 337.200,163.800 337.200 C 163.000 337.200,162.800 337.000,162.800 336.200 C 162.800 335.400,162.600 335.200,161.800 335.200 C 161.000 335.200,160.800 335.000,160.800 334.200 L 160.800 333.200 146.000 333.200 L 131.200 333.200 131.200 357.000 M173.200 357.000 L 173.200 380.800 189.000 380.800 L 204.800 380.800 204.800 375.000 L 204.800 369.200 195.800 369.200 L 186.800 369.200 186.800 366.000 L 186.800 362.800 194.800 362.800 L 202.800 362.800 202.800 357.000 L 202.800 351.200 194.800 351.200 L 186.800 351.200 186.800 348.000 L 186.800 344.800 195.800 344.800 L 204.800 344.800 204.800 339.000 L 204.800 333.200 189.000 333.200 L 173.200 333.200 173.200 357.000 M221.200 334.200 C 221.200 335.000,221.000 335.200,220.200 335.200 C 219.400 335.200,219.200 335.400,219.200 336.200 C 219.200 337.133,219.067 337.200,217.200 337.200 C 215.333 337.200,215.200 337.267,215.200 338.200 C 215.200 339.000,215.000 339.200,214.200 339.200 C 213.400 339.200,213.200 339.400,213.200 340.200 C 213.200 341.000,213.000 341.200,212.200 341.200 C 211.267 341.200,211.200 341.333,211.200 343.200 C 211.200 345.067,211.133 345.200,210.200 345.200 C 209.222 345.200,209.200 345.267,209.200 348.200 C 209.200 351.133,209.178 351.200,208.200 351.200 L 207.200 351.200 207.200 357.000 L 207.200 362.800 208.200 362.800 C 209.178 362.800,209.200 362.867,209.200 365.800 C 209.200 368.733,209.222 368.800,210.200 368.800 C 211.133 368.800,211.200 368.933,211.200 370.800 C 211.200 372.667,211.267 372.800,212.200 372.800 C 213.000 372.800,213.200 373.000,213.200 373.800 C 213.200 374.600,213.400 374.800,214.200 374.800 C 215.000 374.800,215.200 375.000,215.200 375.800 C 215.200 376.733,215.333 376.800,217.200 376.800 C 219.067 376.800,219.200 376.867,219.200 377.800 C 219.200 378.600,219.400 378.800,220.200 378.800 C 221.000 378.800,221.200 379.000,221.200 379.800 L 221.200 380.800 232.000 380.800 L 242.800 380.800 242.800 379.800 C 242.800 378.867,242.933 378.800,244.800 378.800 C 246.667 378.800,246.800 378.733,246.800 377.800 C 246.800 377.000,247.000 376.800,247.800 376.800 C 248.600 376.800,248.800 376.600,248.800 375.800 C 248.800 375.000,249.000 374.800,249.800 374.800 C 250.600 374.800,250.800 374.600,250.800 373.800 C 250.800 373.000,251.000 372.800,251.800 372.800 C 252.733 372.800,252.800 372.667,252.800 370.800 C 252.800 368.844,252.827 368.800,254.000 368.800 C 255.173 368.800,255.200 368.756,255.200 366.800 C 255.200 365.111,255.317 364.800,255.950 364.800 C 256.977 364.800,257.200 363.407,257.200 357.000 C 257.200 350.593,256.977 349.200,255.950 349.200 C 255.317 349.200,255.200 348.889,255.200 347.200 C 255.200 345.244,255.173 345.200,254.000 345.200 C 252.827 345.200,252.800 345.156,252.800 343.200 C 252.800 341.333,252.733 341.200,251.800 341.200 C 251.000 341.200,250.800 341.000,250.800 340.200 C 250.800 339.400,250.600 339.200,249.800 339.200 C 249.000 339.200,248.800 339.000,248.800 338.200 C 248.800 337.400,248.600 337.200,247.800 337.200 C 247.000 337.200,246.800 337.000,246.800 336.200 C 246.800 335.267,246.667 335.200,244.800 335.200 C 242.933 335.200,242.800 335.133,242.800 334.200 L 242.800 333.200 232.000 333.200 L 221.200 333.200 221.200 334.200 M263.200 357.000 L 263.200 380.800 265.957 380.800 C 269.415 380.800,269.200 381.439,269.200 371.167 L 269.200 362.800 273.200 362.800 L 277.200 362.800 277.200 363.800 C 277.200 364.600,277.400 364.800,278.200 364.800 C 279.133 364.800,279.200 364.933,279.200 366.800 C 279.200 368.667,279.267 368.800,280.200 368.800 C 281.000 368.800,281.200 369.000,281.200 369.800 C 281.200 370.600,281.400 370.800,282.200 370.800 C 283.133 370.800,283.200 370.933,283.200 372.800 C 283.200 374.667,283.267 374.800,284.200 374.800 C 285.133 374.800,285.200 374.933,285.200 376.800 C 285.200 378.667,285.267 378.800,286.200 378.800 C 287.000 378.800,287.200 379.000,287.200 379.800 C 287.200 380.778,287.267 380.800,290.200 380.800 L 293.200 380.800 293.200 379.000 C 293.200 377.357,293.114 377.200,292.222 377.200 C 291.339 377.200,291.232 377.015,291.122 375.300 C 291.018 373.679,290.868 373.381,290.100 373.272 C 289.371 373.169,289.200 372.889,289.200 371.805 C 289.200 369.947,288.843 369.200,287.957 369.200 C 287.416 369.200,287.200 368.914,287.200 368.200 C 287.200 367.400,287.000 367.200,286.200 367.200 C 285.268 367.200,285.200 367.065,285.200 365.227 C 285.200 363.381,285.129 363.242,284.100 363.087 C 283.495 362.995,283.945 362.893,285.100 362.860 C 287.057 362.804,287.200 362.732,287.200 361.800 C 287.200 360.882,287.347 360.800,288.992 360.800 C 290.571 360.800,290.815 360.681,291.036 359.800 C 291.186 359.201,291.573 358.800,292.001 358.800 C 292.849 358.800,293.200 358.029,293.200 356.167 C 293.200 354.976,293.328 354.800,294.200 354.800 L 295.200 354.800 295.200 348.000 L 295.200 341.200 294.222 341.200 C 293.339 341.200,293.232 341.015,293.122 339.300 C 293.019 337.696,292.864 337.381,292.125 337.275 C 291.579 337.198,291.202 336.821,291.125 336.275 C 291.048 335.735,290.670 335.353,290.138 335.277 C 289.613 335.202,289.179 334.772,289.030 334.177 L 288.785 333.200 275.992 333.200 L 263.200 333.200 263.200 357.000 M301.200 357.000 L 301.200 380.800 303.000 380.800 L 304.800 380.800 304.860 359.700 C 304.893 348.095,304.995 339.095,305.087 339.700 C 305.216 340.553,305.472 340.800,306.227 340.800 C 306.998 340.800,307.200 341.007,307.200 341.800 C 307.200 342.600,307.400 342.800,308.200 342.800 C 309.000 342.800,309.200 343.000,309.200 343.800 C 309.200 344.600,309.400 344.800,310.200 344.800 C 311.000 344.800,311.200 345.000,311.200 345.800 C 311.200 346.600,311.400 346.800,312.200 346.800 C 313.000 346.800,313.200 347.000,313.200 347.800 C 313.200 348.600,313.400 348.800,314.200 348.800 C 315.000 348.800,315.200 349.000,315.200 349.800 C 315.200 350.600,315.400 350.800,316.200 350.800 C 317.000 350.800,317.200 351.000,317.200 351.800 C 317.200 352.600,317.400 352.800,318.200 352.800 C 319.000 352.800,319.200 353.000,319.200 353.800 C 319.200 354.600,319.400 354.800,320.200 354.800 C 321.133 354.800,321.200 354.933,321.200 356.800 C 321.200 358.667,321.267 358.800,322.200 358.800 C 323.000 358.800,323.200 359.000,323.200 359.800 C 323.200 360.719,323.347 360.800,325.000 360.800 C 326.653 360.800,326.800 360.719,326.800 359.800 C 326.800 359.000,327.000 358.800,327.800 358.800 C 328.600 358.800,328.800 358.600,328.800 357.800 C 328.800 357.000,329.000 356.800,329.800 356.800 C 330.600 356.800,330.800 356.600,330.800 355.800 C 330.800 355.000,331.000 354.800,331.800 354.800 C 332.600 354.800,332.800 354.600,332.800 353.800 C 332.800 353.000,333.000 352.800,333.800 352.800 C 334.600 352.800,334.800 352.600,334.800 351.800 C 334.800 351.000,335.000 350.800,335.800 350.800 C 336.600 350.800,336.800 350.600,336.800 349.800 C 336.800 349.000,337.000 348.800,337.800 348.800 C 338.600 348.800,338.800 348.600,338.800 347.800 C 338.800 347.000,339.000 346.800,339.800 346.800 C 340.600 346.800,340.800 346.600,340.800 345.800 C 340.800 345.000,341.000 344.800,341.800 344.800 C 342.600 344.800,342.800 344.600,342.800 343.800 C 342.800 343.000,343.000 342.800,343.800 342.800 C 344.600 342.800,344.800 342.600,344.800 341.800 C 344.800 341.007,345.002 340.800,345.773 340.800 C 346.528 340.800,346.784 340.553,346.913 339.700 C 347.005 339.095,347.107 348.095,347.140 359.700 L 347.200 380.800 349.000 380.800 L 350.800 380.800 350.800 357.000 L 350.800 333.200 348.000 333.200 C 345.280 333.200,345.200 333.229,345.200 334.200 C 345.200 335.000,345.000 335.200,344.200 335.200 C 343.400 335.200,343.200 335.400,343.200 336.200 C 343.200 337.000,343.000 337.200,342.200 337.200 C 341.400 337.200,341.200 337.400,341.200 338.200 C 341.200 339.000,341.000 339.200,340.200 339.200 C 339.400 339.200,339.200 339.400,339.200 340.200 C 339.200 341.000,339.000 341.200,338.200 341.200 C 337.400 341.200,337.200 341.400,337.200 342.200 C 337.200 343.000,337.000 343.200,336.200 343.200 C 335.400 343.200,335.200 343.400,335.200 344.200 C 335.200 345.000,335.000 345.200,334.200 345.200 C 333.400 345.200,333.200 345.400,333.200 346.200 C 333.200 347.000,333.000 347.200,332.200 347.200 C 331.400 347.200,331.200 347.400,331.200 348.200 C 331.200 349.000,331.000 349.200,330.200 349.200 C 329.400 349.200,329.200 349.400,329.200 350.200 C 329.200 351.000,329.000 351.200,328.200 351.200 C 327.400 351.200,327.200 351.400,327.200 352.200 C 327.200 353.044,327.013 353.200,326.000 353.200 C 324.987 353.200,324.800 353.044,324.800 352.200 C 324.800 351.400,324.600 351.200,323.800 351.200 C 323.000 351.200,322.800 351.000,322.800 350.200 C 322.800 349.400,322.600 349.200,321.800 349.200 C 321.000 349.200,320.800 349.000,320.800 348.200 C 320.800 347.400,320.600 347.200,319.800 347.200 C 319.000 347.200,318.800 347.000,318.800 346.200 C 318.800 345.400,318.600 345.200,317.800 345.200 C 317.000 345.200,316.800 345.000,316.800 344.200 C 316.800 343.400,316.600 343.200,315.800 343.200 C 315.000 343.200,314.800 343.000,314.800 342.200 C 314.800 341.400,314.600 341.200,313.800 341.200 C 313.000 341.200,312.800 341.000,312.800 340.200 C 312.800 339.400,312.600 339.200,311.800 339.200 C 311.000 339.200,310.800 339.000,310.800 338.200 C 310.800 337.400,310.600 337.200,309.800 337.200 C 309.000 337.200,308.800 337.000,308.800 336.200 C 308.800 335.400,308.600 335.200,307.800 335.200 C 307.000 335.200,306.800 335.000,306.800 334.200 C 306.800 333.229,306.720 333.200,304.000 333.200 L 301.200 333.200 301.200 357.000 M235.200 337.800 C 235.200 338.778,235.267 338.800,238.200 338.800 C 241.133 338.800,241.200 338.822,241.200 339.800 C 241.200 340.600,241.400 340.800,242.200 340.800 C 243.000 340.800,243.200 341.000,243.200 341.800 C 243.200 342.600,243.400 342.800,244.200 342.800 C 245.000 342.800,245.200 343.000,245.200 343.800 C 245.200 344.600,245.400 344.800,246.200 344.800 C 247.000 344.800,247.200 345.000,247.200 345.800 C 247.200 346.600,247.400 346.800,248.200 346.800 C 249.133 346.800,249.200 346.933,249.200 348.800 C 249.200 350.667,249.267 350.800,250.200 350.800 L 251.200 350.800 251.200 357.000 L 251.200 363.200 250.200 363.200 C 249.267 363.200,249.200 363.333,249.200 365.200 C 249.200 367.067,249.133 367.200,248.200 367.200 C 247.400 367.200,247.200 367.400,247.200 368.200 C 247.200 369.000,247.000 369.200,246.200 369.200 C 245.400 369.200,245.200 369.400,245.200 370.200 C 245.200 371.000,245.000 371.200,244.200 371.200 C 243.400 371.200,243.200 371.400,243.200 372.200 C 243.200 373.000,243.000 373.200,242.200 373.200 C 241.400 373.200,241.200 373.400,241.200 374.200 C 241.200 375.178,241.133 375.200,238.200 375.200 C 235.267 375.200,235.200 375.222,235.200 376.200 C 235.200 377.183,235.147 377.200,232.000 377.200 C 228.853 377.200,228.800 377.183,228.800 376.200 C 228.800 375.222,228.733 375.200,225.800 375.200 C 222.867 375.200,222.800 375.178,222.800 374.200 C 222.800 373.400,222.600 373.200,221.800 373.200 C 221.000 373.200,220.800 373.000,220.800 372.200 C 220.800 371.400,220.600 371.200,219.800 371.200 C 219.000 371.200,218.800 371.000,218.800 370.200 C 218.800 369.400,218.600 369.200,217.800 369.200 C 217.000 369.200,216.800 369.000,216.800 368.200 C 216.800 367.400,216.600 367.200,215.800 367.200 C 214.867 367.200,214.800 367.067,214.800 365.200 C 214.800 363.333,214.733 363.200,213.800 363.200 L 212.800 363.200 212.800 357.000 L 212.800 350.800 213.800 350.800 C 214.733 350.800,214.800 350.667,214.800 348.800 C 214.800 346.933,214.867 346.800,215.800 346.800 C 216.600 346.800,216.800 346.600,216.800 345.800 C 216.800 345.000,217.000 344.800,217.800 344.800 C 218.600 344.800,218.800 344.600,218.800 343.800 C 218.800 343.000,219.000 342.800,219.800 342.800 C 220.600 342.800,220.800 342.600,220.800 341.800 C 220.800 341.000,221.000 340.800,221.800 340.800 C 222.600 340.800,222.800 340.600,222.800 339.800 C 222.800 338.822,222.867 338.800,225.800 338.800 C 228.733 338.800,228.800 338.778,228.800 337.800 C 228.800 336.817,228.853 336.800,232.000 336.800 C 235.147 336.800,235.200 336.817,235.200 337.800 M281.200 337.800 C 281.200 338.733,281.333 338.800,283.200 338.800 C 285.067 338.800,285.200 338.867,285.200 339.800 C 285.200 340.600,285.400 340.800,286.200 340.800 C 287.000 340.800,287.200 341.000,287.200 341.800 C 287.200 342.600,287.400 342.800,288.200 342.800 L 289.200 342.800 289.200 348.000 L 289.200 353.200 288.200 353.200 C 287.400 353.200,287.200 353.400,287.200 354.200 C 287.200 355.000,287.000 355.200,286.200 355.200 C 285.400 355.200,285.200 355.400,285.200 356.200 L 285.200 357.200 277.200 357.200 L 269.200 357.200 269.200 347.000 L 269.200 336.800 275.200 336.800 L 281.200 336.800 281.200 337.800 M151.200 345.800 C 151.200 346.733,151.333 346.800,153.200 346.800 L 155.200 346.800 155.200 348.800 C 155.200 350.701,155.255 350.803,156.300 350.860 L 157.400 350.920 156.300 351.087 C 155.271 351.242,155.200 351.381,155.200 353.227 L 155.200 355.200 150.000 355.200 L 144.800 355.200 144.800 350.000 L 144.800 344.800 148.000 344.800 C 151.147 344.800,151.200 344.817,151.200 345.800 " stroke="none" fill="#3c3c3c" fill-rule="evenodd"></path><path id="path3" d="M82.800 19.533 C 82.800 19.790,82.665 19.955,82.500 19.900 C 82.335 19.845,82.170 19.960,82.134 20.155 C 82.098 20.351,81.828 20.663,81.534 20.849 C 81.236 21.038,81.194 21.190,81.438 21.194 C 82.041 21.202,83.390 19.657,83.064 19.331 C 82.919 19.186,82.800 19.277,82.800 19.533 M77.592 21.810 C 77.314 22.145,77.197 22.531,77.333 22.667 C 77.624 22.957,78.800 22.063,78.800 21.551 C 78.800 21.000,78.148 21.140,77.592 21.810 M72.400 26.600 C 71.992 27.091,72.020 27.200,72.551 27.200 C 72.908 27.200,73.200 26.930,73.200 26.600 C 73.200 26.270,73.132 26.000,73.049 26.000 C 72.966 26.000,72.674 26.270,72.400 26.600 M70.100 27.900 C 68.754 29.246,69.700 30.240,71.132 28.985 C 71.205 28.921,71.205 28.448,71.132 27.934 L 71.000 27.000 70.100 27.900 M327.500 28.078 C 328.425 29.003,329.062 28.860,328.662 27.817 C 328.532 27.478,328.019 27.200,327.524 27.200 L 326.622 27.200 327.500 28.078 M67.200 32.200 C 67.200 32.750,67.033 33.200,66.829 33.200 C 65.806 33.200,65.200 34.551,65.200 36.829 C 65.200 39.091,65.154 39.200,64.200 39.200 C 63.227 39.200,63.200 39.276,63.200 42.054 C 63.200 44.585,63.087 45.013,62.200 45.835 L 61.200 46.762 61.200 85.981 C 61.200 128.030,61.307 125.481,59.549 125.264 C 59.411 125.247,59.267 127.026,59.229 129.218 C 59.167 132.867,59.078 133.286,58.180 134.183 C 56.971 135.393,56.866 136.214,58.012 135.503 C 58.683 135.087,58.894 135.104,59.227 135.600 C 59.775 136.418,59.367 138.875,58.613 139.297 C 58.276 139.485,58.000 140.023,58.000 140.492 C 58.000 141.516,53.389 146.000,52.337 146.000 C 51.947 146.000,51.056 146.559,50.357 147.242 C 49.102 148.469,49.053 148.480,46.144 148.208 L 43.200 147.932 43.200 157.366 L 43.200 166.800 44.172 166.800 C 44.876 166.800,45.180 167.049,45.272 167.700 C 45.381 168.468,45.679 168.618,47.300 168.722 C 49.015 168.832,49.200 168.939,49.200 169.822 C 49.200 170.729,49.345 170.800,51.200 170.800 C 53.067 170.800,53.200 170.867,53.200 171.800 C 53.200 172.600,53.400 172.800,54.200 172.800 C 55.005 172.800,55.200 172.999,55.200 173.818 C 55.200 174.378,55.650 175.286,56.200 175.836 C 56.750 176.386,57.200 177.286,57.200 177.836 C 57.200 178.386,57.641 179.278,58.180 179.817 C 59.078 180.714,59.167 181.133,59.229 184.782 C 59.267 186.974,59.411 188.753,59.549 188.736 C 61.307 188.519,61.200 185.970,61.200 228.019 L 61.200 267.238 62.200 268.165 C 63.087 268.987,63.200 269.415,63.200 271.946 C 63.200 274.724,63.227 274.800,64.200 274.800 C 65.154 274.800,65.200 274.909,65.200 277.171 C 65.200 279.449,65.806 280.800,66.829 280.800 C 67.033 280.800,67.200 281.250,67.200 281.800 C 67.200 282.600,67.400 282.800,68.200 282.800 C 69.044 282.800,69.200 282.987,69.200 284.000 C 69.200 284.711,69.567 285.567,70.100 286.100 L 71.000 287.000 71.131 286.078 C 71.203 285.571,71.091 284.941,70.882 284.678 C 70.673 284.415,70.554 283.884,70.616 283.498 C 70.679 283.112,70.566 282.898,70.365 283.022 C 69.874 283.325,69.899 280.317,70.399 279.004 C 70.618 278.427,70.984 276.300,71.213 274.278 C 71.441 272.255,71.965 269.880,72.377 269.000 C 72.789 268.120,73.254 266.964,73.412 266.432 C 74.248 263.595,79.360 257.695,82.800 255.595 C 83.816 254.975,83.692 189.399,82.669 186.600 C 82.267 185.500,81.844 182.980,81.730 181.000 C 81.578 178.376,81.317 177.109,80.769 176.327 C 80.355 175.737,79.854 174.533,79.656 173.651 C 79.458 172.769,78.914 171.563,78.448 170.970 C 77.982 170.377,77.600 169.710,77.600 169.488 C 77.600 169.266,77.230 168.705,76.778 168.242 C 70.033 161.335,69.191 160.585,67.793 160.236 C 67.137 160.072,66.330 159.700,66.000 159.410 C 65.670 159.120,65.040 158.818,64.600 158.738 C 63.331 158.509,63.231 155.767,64.478 155.387 C 64.985 155.232,65.670 154.871,66.000 154.584 C 66.330 154.297,67.140 153.931,67.800 153.770 C 68.460 153.609,69.360 153.130,69.800 152.705 C 76.313 146.414,77.600 145.067,77.600 144.540 C 77.600 144.302,77.982 143.623,78.448 143.030 C 78.914 142.437,79.465 141.200,79.671 140.282 C 79.877 139.363,80.332 138.296,80.682 137.909 C 81.110 137.436,81.426 135.926,81.650 133.279 C 81.833 131.119,82.295 128.553,82.677 127.576 C 83.313 125.951,83.384 122.988,83.511 92.738 L 83.650 59.676 82.212 58.238 C 81.421 57.447,80.654 56.800,80.507 56.800 C 79.521 56.800,74.007 49.669,73.394 47.600 C 73.231 47.050,72.774 45.959,72.379 45.176 C 71.984 44.393,71.480 42.143,71.259 40.176 C 71.038 38.209,70.488 35.790,70.037 34.800 C 69.586 33.810,69.214 32.595,69.209 32.100 C 69.202 31.409,68.968 31.200,68.200 31.200 C 67.400 31.200,67.200 31.400,67.200 32.200 M331.200 33.491 C 331.200 33.911,332.045 34.800,332.445 34.800 C 332.601 34.800,332.683 34.485,332.627 34.100 C 332.524 33.399,331.200 32.833,331.200 33.491 M328.057 35.419 C 327.170 36.545,326.948 37.508,326.660 41.474 C 326.561 42.834,326.127 44.634,325.695 45.474 C 325.263 46.313,324.570 47.705,324.155 48.567 C 323.740 49.429,323.130 50.604,322.800 51.179 C 322.026 52.528,317.848 56.800,317.303 56.800 C 317.073 56.800,316.779 57.078,316.648 57.418 C 316.518 57.758,315.781 58.300,315.010 58.622 C 313.824 59.117,313.569 59.456,313.350 60.823 C 313.055 62.669,312.027 62.884,311.557 61.198 C 311.302 60.279,311.277 60.303,311.240 61.500 C 311.205 62.631,311.330 62.800,312.200 62.800 L 313.200 62.800 313.200 95.000 L 313.200 127.200 314.175 127.200 C 315.541 127.200,316.097 130.873,315.481 135.817 L 315.179 138.233 316.290 138.217 C 317.351 138.201,317.405 138.294,317.522 140.318 C 317.626 142.142,317.779 142.488,318.622 142.808 C 319.364 143.091,319.600 143.474,319.600 144.400 C 319.600 145.345,319.834 145.709,320.639 146.015 C 321.210 146.232,321.769 146.762,321.882 147.192 C 321.994 147.622,322.418 148.079,322.823 148.207 C 323.228 148.336,323.662 148.764,323.787 149.160 C 323.913 149.555,324.462 150.082,325.008 150.331 C 325.553 150.579,326.000 151.045,326.000 151.364 C 326.000 151.684,326.344 152.055,326.764 152.189 C 327.185 152.322,327.819 152.874,328.173 153.416 C 328.617 154.092,329.186 154.400,329.996 154.400 C 331.732 154.400,333.987 155.609,334.257 156.685 C 334.504 157.670,333.832 158.800,333.000 158.800 C 332.724 158.800,332.274 159.070,332.000 159.400 C 331.726 159.730,331.036 160.000,330.466 160.000 C 329.896 160.000,328.973 160.451,328.415 161.002 C 327.857 161.553,326.230 163.153,324.800 164.558 C 321.395 167.902,320.000 169.508,320.000 170.081 C 320.000 170.338,319.635 170.936,319.190 171.411 C 318.744 171.885,318.245 173.063,318.080 174.030 C 317.862 175.306,317.520 175.916,316.828 176.261 C 315.936 176.706,315.881 176.931,315.964 179.777 C 316.100 184.437,315.405 187.253,314.173 187.029 L 313.205 186.854 313.102 219.127 C 313.003 250.465,312.978 251.400,312.244 251.402 C 311.716 251.404,311.453 251.735,311.372 252.503 C 311.268 253.471,311.364 253.574,312.176 253.370 C 312.916 253.185,313.147 253.334,313.345 254.125 C 313.507 254.769,313.977 255.206,314.697 255.383 C 315.842 255.664,316.031 255.814,319.498 259.186 C 321.956 261.578,324.800 265.785,324.800 267.031 C 324.800 267.510,325.050 268.110,325.356 268.363 C 326.089 268.972,326.800 271.879,326.801 274.277 C 326.801 276.681,327.879 278.954,329.100 279.128 C 329.901 279.242,330.000 279.084,330.000 277.703 C 330.000 276.657,330.287 275.843,330.880 275.206 C 331.497 274.544,331.854 273.478,332.076 271.636 C 332.297 269.802,332.622 268.827,333.154 268.405 C 333.808 267.885,333.948 267.067,334.146 262.600 C 334.416 256.533,334.834 251.600,335.080 251.600 C 335.175 251.600,335.601 251.786,336.026 252.014 C 336.788 252.422,336.800 251.955,336.800 221.614 C 336.800 202.918,336.946 190.800,337.171 190.800 C 337.695 190.800,338.800 189.634,338.800 189.082 C 338.800 188.829,338.520 189.022,338.177 189.511 C 337.210 190.893,336.952 190.609,336.459 187.623 C 335.762 183.402,335.864 181.081,336.800 179.891 C 337.240 179.331,337.600 178.352,337.600 177.715 C 337.600 177.077,338.050 175.945,338.600 175.200 C 339.150 174.455,339.601 173.655,339.603 173.422 C 339.609 172.490,344.146 168.496,346.403 167.435 C 347.172 167.074,348.250 166.516,348.800 166.195 C 349.350 165.874,350.285 165.609,350.877 165.606 C 351.470 165.603,352.190 165.280,352.477 164.889 C 352.765 164.497,353.360 164.182,353.800 164.189 C 354.568 164.200,354.604 163.902,354.709 156.754 L 354.817 149.308 353.842 149.494 C 353.055 149.644,352.840 149.498,352.733 148.740 C 352.614 147.897,352.395 147.800,350.605 147.800 C 348.824 147.800,348.555 147.682,348.084 146.700 C 347.661 145.818,347.286 145.600,346.192 145.600 C 345.238 145.600,344.700 145.360,344.400 144.800 C 344.165 144.360,343.704 144.000,343.377 144.000 C 343.050 144.000,342.585 143.565,342.343 143.034 C 342.101 142.503,341.564 141.979,341.151 141.871 C 340.651 141.741,340.400 141.315,340.400 140.600 C 340.400 139.872,340.149 139.460,339.623 139.322 C 338.687 139.077,338.250 137.405,338.614 135.464 C 338.860 134.153,338.805 134.052,337.772 133.930 L 336.665 133.800 336.691 96.200 C 336.705 75.520,336.601 59.320,336.458 60.200 C 335.430 66.569,333.699 54.430,334.648 47.504 L 334.896 45.696 335.723 46.523 C 336.663 47.463,337.224 46.793,336.363 45.756 C 336.002 45.320,335.468 45.211,334.547 45.384 C 332.803 45.711,332.293 44.729,332.467 41.375 C 332.594 38.926,332.563 38.826,331.718 38.980 C 330.663 39.172,330.279 38.282,330.470 36.091 C 330.639 34.152,329.338 33.789,328.057 35.419 M281.689 37.266 C 282.067 38.400,283.506 38.890,283.301 37.814 C 283.171 37.138,282.844 36.800,282.320 36.800 C 281.887 36.800,281.603 37.010,281.689 37.266 M94.938 41.417 C 94.808 41.757,94.809 42.142,94.941 42.274 C 95.226 42.559,96.400 41.655,96.400 41.151 C 96.400 40.547,95.187 40.768,94.938 41.417 M338.806 133.500 C 338.815 133.916,339.274 134.501,340.100 135.149 C 341.038 135.885,341.099 134.756,340.171 133.829 C 339.509 133.166,338.796 132.994,338.806 133.500 M55.467 137.467 C 55.006 137.927,55.175 138.400,55.800 138.400 C 56.130 138.400,56.400 138.130,56.400 137.800 C 56.400 137.175,55.927 137.006,55.467 137.467 M340.800 137.571 C 340.800 138.052,341.948 139.200,342.429 139.200 C 342.997 139.200,342.871 138.528,342.171 137.829 C 341.472 137.129,340.800 137.003,340.800 137.571 M347.233 143.313 C 347.325 143.375,347.685 143.643,348.033 143.907 C 348.542 144.293,348.667 144.271,348.667 143.794 C 348.667 143.467,348.307 143.200,347.867 143.200 C 347.427 143.200,347.142 143.251,347.233 143.313 M323.592 159.810 C 323.314 160.145,323.197 160.531,323.333 160.667 C 323.624 160.957,324.800 160.063,324.800 159.551 C 324.800 159.000,324.148 159.140,323.592 159.810 M318.800 165.533 C 318.800 165.790,318.665 165.955,318.500 165.900 C 318.335 165.845,318.170 165.960,318.134 166.155 C 318.098 166.351,317.828 166.663,317.534 166.849 C 317.236 167.038,317.194 167.190,317.438 167.194 C 318.041 167.202,319.390 165.657,319.064 165.331 C 318.919 165.186,318.800 165.277,318.800 165.533 M338.938 181.417 C 338.808 181.757,338.809 182.142,338.941 182.274 C 339.226 182.559,340.400 181.655,340.400 181.151 C 340.400 180.547,339.187 180.768,338.938 181.417 M282.111 276.100 C 281.212 277.262,281.231 277.483,282.212 277.296 C 282.846 277.174,283.200 276.837,283.200 276.353 C 283.200 275.490,282.677 275.368,282.111 276.100 M72.000 286.951 C 72.000 287.034,72.270 287.326,72.600 287.600 C 73.091 288.008,73.200 287.980,73.200 287.449 C 73.200 287.092,72.930 286.800,72.600 286.800 C 72.270 286.800,72.000 286.868,72.000 286.951 M323.500 289.633 C 323.115 290.055,322.800 290.496,322.800 290.614 C 322.800 291.048,324.314 290.002,324.540 289.411 C 324.856 288.588,324.357 288.695,323.500 289.633 M77.600 291.151 C 77.600 291.655,78.774 292.559,79.059 292.274 C 79.469 291.865,78.857 290.800,78.213 290.800 C 77.876 290.800,77.600 290.958,77.600 291.151 " stroke="none" fill="#ec341c" fill-rule="evenodd"></path><path id="path4" d="M281.467 17.467 C 281.078 17.856,281.152 22.905,281.556 23.542 C 282.134 24.455,283.200 21.729,283.200 19.339 C 283.200 17.260,282.466 16.467,281.467 17.467 M78.370 22.243 C 77.521 23.156,77.494 23.269,78.155 23.143 C 78.570 23.064,79.059 22.595,79.242 22.100 C 79.666 20.950,79.554 20.969,78.370 22.243 M324.800 25.936 C 324.800 26.120,325.256 26.479,325.813 26.733 C 326.755 27.162,326.795 27.139,326.398 26.397 C 325.980 25.615,324.800 25.275,324.800 25.936 M326.667 29.518 C 326.539 30.553,326.173 33.650,325.851 36.400 C 324.763 45.727,320.225 53.904,314.676 56.537 C 313.864 56.922,313.200 57.519,313.200 57.862 C 313.200 58.338,312.948 58.423,312.143 58.221 C 311.089 57.957,311.086 57.963,311.340 59.811 C 311.767 62.929,312.922 63.499,313.353 60.804 C 313.568 59.458,313.828 59.115,315.010 58.622 C 315.781 58.300,316.518 57.758,316.648 57.418 C 316.779 57.078,317.073 56.800,317.303 56.800 C 317.848 56.800,322.026 52.528,322.800 51.179 C 323.130 50.604,323.740 49.429,324.155 48.567 C 324.570 47.705,325.264 46.311,325.698 45.469 C 326.200 44.493,326.594 42.632,326.784 40.343 C 327.118 36.316,327.972 34.600,329.642 34.600 C 330.501 34.600,330.584 34.750,330.469 36.091 C 330.295 38.102,330.675 39.155,331.515 38.993 C 331.892 38.921,332.335 38.847,332.500 38.831 C 333.313 38.748,332.770 35.311,331.800 34.400 C 331.191 33.828,330.800 33.019,330.800 32.330 C 330.800 31.391,330.631 31.200,329.800 31.200 C 328.979 31.200,328.798 31.003,328.787 30.100 C 328.780 29.416,328.420 28.742,327.837 28.318 L 326.898 27.637 326.667 29.518 M69.700 29.465 C 68.928 29.777,69.118 32.781,70.037 34.800 C 70.488 35.790,71.038 38.209,71.259 40.176 C 71.480 42.143,71.984 44.393,72.379 45.176 C 72.774 45.959,73.231 47.050,73.394 47.600 C 74.007 49.669,79.521 56.800,80.507 56.800 C 80.654 56.800,81.421 57.447,82.212 58.238 L 83.650 59.676 83.511 92.738 C 83.384 122.988,83.313 125.951,82.677 127.576 C 82.295 128.553,81.833 131.119,81.650 133.279 C 81.426 135.926,81.110 137.436,80.682 137.909 C 80.332 138.296,79.877 139.363,79.671 140.282 C 79.465 141.200,78.914 142.437,78.448 143.030 C 77.982 143.623,77.600 144.302,77.600 144.540 C 77.600 145.067,76.313 146.414,69.800 152.705 C 69.360 153.130,68.460 153.609,67.800 153.770 C 67.140 153.931,66.330 154.297,66.000 154.584 C 65.670 154.871,64.985 155.232,64.478 155.387 C 63.231 155.767,63.331 158.509,64.600 158.738 C 65.040 158.818,65.670 159.120,66.000 159.410 C 66.330 159.700,67.137 160.072,67.793 160.236 C 69.191 160.585,70.033 161.335,76.778 168.242 C 77.230 168.705,77.600 169.266,77.600 169.488 C 77.600 169.710,77.982 170.377,78.448 170.970 C 78.914 171.563,79.458 172.769,79.656 173.651 C 79.854 174.533,80.355 175.737,80.769 176.327 C 81.317 177.109,81.578 178.376,81.730 181.000 C 81.844 182.980,82.267 185.500,82.669 186.600 C 83.692 189.399,83.816 254.975,82.800 255.595 C 79.360 257.695,74.248 263.595,73.412 266.432 C 73.254 266.964,72.789 268.120,72.377 269.000 C 71.965 269.880,71.441 272.255,71.213 274.278 C 70.984 276.300,70.618 278.427,70.399 279.004 C 69.909 280.292,69.870 283.328,70.347 283.033 C 70.538 282.915,70.673 283.219,70.647 283.709 C 70.618 284.255,70.832 284.600,71.200 284.600 C 71.683 284.600,71.892 283.486,72.272 278.864 C 72.874 271.554,74.878 265.768,77.989 262.351 C 78.325 261.982,79.190 261.032,79.910 260.240 C 80.631 259.448,81.361 258.800,81.532 258.800 C 81.703 258.800,82.425 258.199,83.137 257.465 L 84.431 256.130 84.515 218.465 L 84.600 180.800 83.700 180.800 C 82.848 180.800,82.800 180.643,82.800 177.833 C 82.800 174.346,82.581 173.600,81.557 173.600 C 80.999 173.600,80.799 173.311,80.795 172.500 C 80.785 170.616,80.351 169.600,79.553 169.600 C 79.011 169.600,78.800 169.312,78.800 168.574 C 78.800 167.226,78.122 166.000,77.376 166.000 C 77.036 166.000,76.679 165.493,76.544 164.822 C 76.386 164.029,76.035 163.604,75.471 163.522 C 74.958 163.447,74.543 163.011,74.401 162.400 C 74.225 161.641,73.873 161.371,72.944 161.279 C 71.882 161.174,71.744 161.028,71.906 160.179 C 72.079 159.272,71.975 159.200,70.493 159.200 C 69.230 159.200,68.849 159.032,68.684 158.400 C 68.519 157.767,68.138 157.600,66.861 157.600 C 65.973 157.600,65.136 157.420,65.000 157.200 C 64.856 156.968,65.252 156.800,65.944 156.800 C 67.641 156.800,68.400 156.424,68.400 155.584 C 68.400 155.084,68.748 154.813,69.500 154.727 C 70.288 154.636,70.636 154.344,70.728 153.700 C 70.812 153.110,71.131 152.800,71.654 152.800 C 72.748 152.800,74.000 152.082,74.000 151.454 C 74.000 151.168,74.430 150.705,74.956 150.424 C 75.482 150.142,76.157 149.448,76.456 148.881 C 76.755 148.314,77.405 147.442,77.900 146.943 C 78.395 146.444,78.800 145.689,78.800 145.265 C 78.800 144.840,79.133 144.406,79.540 144.300 C 80.054 144.165,80.365 143.578,80.557 142.379 C 80.712 141.411,81.154 140.427,81.564 140.140 C 82.118 139.752,82.361 138.862,82.571 136.455 C 82.804 133.781,82.970 133.249,83.624 133.078 C 84.322 132.895,84.400 132.499,84.403 129.137 C 84.405 127.082,84.429 110.330,84.457 91.911 C 84.512 55.069,84.661 57.373,82.109 55.706 C 77.050 52.401,73.110 44.799,72.391 36.957 C 71.649 28.860,71.592 28.701,69.700 29.465 M332.400 41.697 C 332.400 44.504,333.050 45.897,334.160 45.471 C 335.480 44.964,334.891 39.434,333.500 39.273 C 332.402 39.147,332.400 39.151,332.400 41.697 M334.572 48.327 C 334.227 51.547,334.695 61.255,335.220 61.780 C 336.204 62.764,336.552 61.054,336.725 54.399 L 336.903 47.587 335.878 46.638 L 334.854 45.688 334.572 48.327 M336.600 127.300 C 336.072 131.601,336.447 133.782,337.739 133.930 C 338.809 134.053,338.862 134.145,338.614 135.464 C 338.250 137.405,338.687 139.077,339.623 139.322 C 340.149 139.460,340.400 139.872,340.400 140.600 C 340.400 141.315,340.651 141.741,341.151 141.871 C 341.564 141.979,342.101 142.503,342.343 143.034 C 342.585 143.565,343.050 144.000,343.377 144.000 C 343.704 144.000,344.165 144.360,344.400 144.800 C 344.700 145.360,345.238 145.600,346.192 145.600 C 347.286 145.600,347.661 145.818,348.084 146.700 C 348.555 147.682,348.824 147.800,350.605 147.800 C 352.385 147.800,352.614 147.900,352.731 148.724 C 352.829 149.414,353.082 149.616,353.731 149.524 C 354.890 149.359,354.880 147.923,353.716 147.412 C 353.230 147.199,352.780 146.659,352.716 146.212 C 352.621 145.547,352.256 145.378,350.700 145.278 C 349.005 145.169,348.628 144.918,348.730 143.967 C 348.744 143.838,348.541 143.703,348.278 143.666 C 345.237 143.239,344.840 143.081,344.722 142.259 C 344.646 141.721,344.263 141.352,343.700 141.272 C 343.049 141.180,342.800 140.876,342.800 140.172 C 342.800 139.637,342.633 139.200,342.429 139.200 C 341.687 139.200,340.800 137.917,340.800 136.844 C 340.800 136.170,340.413 135.408,339.800 134.875 C 338.858 134.056,338.800 133.773,338.800 130.017 C 338.800 126.483,338.712 125.981,338.026 125.614 C 336.890 125.006,336.880 125.018,336.600 127.300 M313.287 131.657 C 313.404 136.254,313.996 137.764,315.208 136.552 C 316.498 135.262,315.588 127.200,314.152 127.200 L 313.174 127.200 313.287 131.657 M57.680 135.680 C 57.416 135.944,57.200 136.469,57.200 136.847 C 57.200 137.224,56.975 137.609,56.700 137.702 C 56.318 137.830,56.342 138.051,56.800 138.635 C 57.360 139.349,57.351 139.362,56.670 138.826 C 55.808 138.148,55.217 138.744,55.206 140.300 C 55.201 140.992,54.969 141.200,54.200 141.200 C 53.650 141.200,53.200 141.391,53.200 141.624 C 53.200 141.857,53.040 141.949,52.845 141.828 C 52.405 141.556,51.508 142.575,51.870 142.937 C 52.015 143.082,51.923 143.200,51.667 143.200 C 51.410 143.200,51.200 143.650,51.200 144.200 C 51.200 145.134,51.067 145.200,49.192 145.200 C 47.230 145.200,47.191 145.223,47.446 146.240 C 47.707 147.279,47.705 147.280,45.453 147.140 C 42.531 146.958,42.403 147.793,45.300 148.141 C 48.669 148.545,49.106 148.465,50.400 147.200 C 51.075 146.540,51.947 146.000,52.337 146.000 C 53.415 146.000,58.000 141.514,58.000 140.460 C 58.000 139.973,58.259 139.476,58.576 139.354 C 59.272 139.087,59.757 137.125,59.403 136.009 C 59.114 135.099,58.398 134.962,57.680 135.680 M315.373 138.526 C 314.814 139.982,315.379 142.597,316.279 142.725 C 317.021 142.831,317.177 143.144,317.279 144.725 C 317.382 146.321,317.534 146.619,318.300 146.728 C 318.951 146.820,319.200 147.124,319.200 147.828 C 319.200 148.598,319.408 148.800,320.200 148.800 C 321.000 148.800,321.200 149.000,321.200 149.800 C 321.200 150.600,321.400 150.800,322.200 150.800 C 323.000 150.800,323.200 151.000,323.200 151.800 C 323.200 152.600,323.400 152.800,324.200 152.800 C 325.000 152.800,325.200 153.000,325.200 153.800 C 325.200 154.592,325.402 154.800,326.172 154.800 C 326.876 154.800,327.180 155.049,327.272 155.700 C 327.342 156.195,327.625 156.623,327.900 156.650 C 328.175 156.678,328.790 156.722,329.267 156.750 C 330.586 156.826,329.784 157.327,328.406 157.288 C 327.681 157.267,327.200 157.456,327.200 157.760 C 327.200 158.662,327.718 158.817,328.468 158.139 C 329.155 157.517,329.200 157.527,329.200 158.305 C 329.200 159.021,328.954 159.133,327.391 159.133 C 325.937 159.133,325.303 159.378,324.167 160.375 C 323.389 161.059,322.628 161.543,322.476 161.451 C 322.324 161.359,321.968 161.535,321.684 161.842 C 321.401 162.149,321.288 162.400,321.433 162.400 C 321.579 162.400,321.476 162.668,321.204 162.996 C 320.932 163.323,320.595 163.522,320.455 163.438 C 320.081 163.212,319.421 164.079,319.264 165.000 C 319.189 165.440,318.829 166.157,318.464 166.593 C 317.839 167.340,317.841 167.354,318.500 166.844 C 319.138 166.350,319.200 166.431,319.200 167.751 C 319.200 169.162,319.160 169.200,317.680 169.200 C 316.063 169.200,315.184 169.766,315.225 170.780 C 315.241 171.160,315.391 171.052,315.612 170.500 C 316.196 169.048,317.200 169.364,317.200 171.000 C 317.200 172.227,317.076 172.400,316.200 172.400 C 315.650 172.400,315.221 172.535,315.247 172.700 C 315.455 174.013,315.088 175.059,314.300 175.405 C 313.757 175.644,313.368 176.196,313.319 176.800 L 313.239 177.800 313.537 176.802 C 314.036 175.132,315.200 175.266,315.200 176.994 C 315.200 177.793,315.035 178.345,314.834 178.221 C 314.633 178.097,314.377 178.221,314.265 178.498 C 314.108 178.884,313.969 178.868,313.663 178.429 C 313.390 178.037,313.286 179.284,313.332 182.389 C 313.397 186.714,313.440 186.926,314.273 187.053 C 315.401 187.226,316.094 184.242,315.964 179.777 C 315.881 176.931,315.936 176.706,316.828 176.261 C 317.520 175.916,317.862 175.306,318.080 174.030 C 318.245 173.063,318.744 171.885,319.190 171.411 C 319.635 170.936,320.000 170.338,320.000 170.081 C 320.000 169.508,321.395 167.902,324.800 164.558 C 326.230 163.153,327.857 161.553,328.415 161.002 C 328.973 160.451,329.896 160.000,330.466 160.000 C 331.036 160.000,331.726 159.730,332.000 159.400 C 332.274 159.070,332.724 158.800,333.000 158.800 C 333.832 158.800,334.504 157.670,334.257 156.685 C 333.987 155.609,331.732 154.400,329.996 154.400 C 329.186 154.400,328.617 154.092,328.173 153.416 C 327.819 152.874,327.185 152.322,326.764 152.189 C 326.344 152.055,326.000 151.684,326.000 151.364 C 326.000 151.045,325.553 150.579,325.008 150.331 C 324.462 150.082,323.913 149.555,323.787 149.160 C 323.662 148.764,323.228 148.336,322.823 148.207 C 322.418 148.079,321.994 147.622,321.882 147.192 C 321.769 146.762,321.210 146.232,320.639 146.015 C 319.834 145.709,319.600 145.345,319.600 144.400 C 319.600 143.474,319.364 143.091,318.622 142.808 C 317.779 142.488,317.626 142.142,317.522 140.318 C 317.397 138.152,315.973 136.964,315.373 138.526 M323.067 163.067 C 322.954 163.179,322.546 163.210,322.160 163.135 C 321.506 163.009,321.510 162.947,322.229 162.229 C 322.947 161.510,323.009 161.506,323.135 162.160 C 323.210 162.546,323.179 162.954,323.067 163.067 M321.067 165.067 C 320.954 165.179,320.546 165.210,320.160 165.135 C 319.506 165.009,319.510 164.947,320.229 164.229 C 320.947 163.510,321.009 163.506,321.135 164.160 C 321.210 164.546,321.179 164.954,321.067 165.067 M352.443 164.880 C 352.190 165.286,351.514 165.603,350.897 165.606 C 350.293 165.609,349.350 165.874,348.800 166.195 C 348.250 166.516,347.172 167.074,346.403 167.435 C 344.146 168.496,339.609 172.490,339.603 173.422 C 339.601 173.655,339.150 174.455,338.600 175.200 C 338.050 175.945,337.600 177.077,337.600 177.715 C 337.600 178.352,337.240 179.331,336.800 179.891 C 335.609 181.404,335.858 188.384,337.111 188.637 C 337.391 188.694,337.436 188.649,337.210 188.537 C 336.601 188.235,336.700 186.787,337.314 187.022 C 337.893 187.244,338.184 189.200,337.638 189.200 C 337.444 189.200,337.166 189.511,337.021 189.891 C 336.827 190.396,337.027 190.326,337.768 189.630 C 338.325 189.107,338.769 188.301,338.755 187.839 C 338.552 181.282,338.883 176.800,339.571 176.800 C 340.049 176.800,340.377 176.416,340.523 175.684 C 340.646 175.071,341.388 173.888,342.173 173.056 C 342.958 172.224,343.600 171.390,343.600 171.203 C 343.600 171.016,344.132 170.747,344.782 170.604 C 345.475 170.452,346.071 170.006,346.223 169.526 C 346.455 168.798,346.732 168.728,348.742 168.891 C 349.984 168.992,350.801 169.007,350.558 168.924 C 348.999 168.389,350.563 166.800,352.647 166.800 L 354.800 166.800 354.800 165.480 C 354.800 163.953,353.266 163.562,352.443 164.880 M85.020 180.109 C 85.128 180.388,85.617 180.862,86.108 181.161 C 86.959 181.680,86.955 181.656,86.030 180.653 C 84.948 179.477,84.734 179.362,85.020 180.109 M334.642 254.500 C 334.496 256.095,334.273 259.740,334.146 262.600 C 333.948 267.067,333.808 267.885,333.154 268.405 C 332.622 268.827,332.297 269.802,332.076 271.636 C 331.854 273.478,331.497 274.544,330.880 275.206 C 330.287 275.843,330.000 276.657,330.000 277.703 C 330.000 279.084,329.901 279.242,329.100 279.128 C 327.879 278.954,326.801 276.681,326.801 274.277 C 326.800 271.879,326.089 268.972,325.356 268.363 C 325.050 268.110,324.800 267.510,324.800 267.031 C 324.800 265.785,321.956 261.578,319.498 259.186 C 316.031 255.814,315.842 255.664,314.697 255.383 C 313.989 255.209,313.507 254.768,313.353 254.156 C 313.101 253.153,312.871 253.045,311.833 253.443 C 311.395 253.611,311.202 254.197,311.206 255.343 C 311.209 256.254,311.344 256.807,311.506 256.571 C 312.069 255.749,313.113 255.625,313.305 256.358 C 313.406 256.745,314.216 257.440,315.104 257.903 C 318.579 259.714,322.408 264.794,324.230 270.010 C 325.109 272.526,325.460 274.457,326.155 280.600 C 326.445 283.170,326.884 284.566,327.564 285.087 C 328.572 285.860,328.800 285.696,328.800 284.200 C 328.800 282.973,328.924 282.800,329.800 282.800 C 330.832 282.800,331.023 282.202,330.809 279.647 C 330.740 278.823,330.870 278.720,331.764 278.891 L 332.800 279.089 332.800 275.898 C 332.800 272.710,332.801 272.707,333.800 272.898 L 334.800 273.089 334.800 269.345 C 334.800 265.617,334.805 265.600,335.800 265.600 L 336.800 265.600 336.800 259.014 C 336.800 252.320,336.633 251.600,335.080 251.600 C 334.985 251.600,334.788 252.905,334.642 254.500 M308.000 268.272 C 307.113 269.210,307.097 269.278,307.853 268.876 C 308.322 268.626,308.811 268.147,308.940 267.811 C 309.254 266.994,309.168 267.036,308.000 268.272 M283.700 275.465 C 283.425 275.576,283.200 275.999,283.200 276.406 C 283.200 276.858,282.863 277.194,282.331 277.272 C 281.854 277.342,281.417 277.630,281.361 277.910 C 281.306 278.190,281.351 278.236,281.463 278.010 C 281.575 277.784,282.016 277.600,282.442 277.600 C 282.876 277.600,283.413 277.169,283.663 276.621 C 283.909 276.082,284.490 275.567,284.955 275.475 C 285.735 275.322,285.738 275.307,285.000 275.286 C 284.560 275.273,283.975 275.354,283.700 275.465 M325.444 287.551 C 324.945 288.103,324.879 288.402,325.212 288.608 C 325.869 289.013,327.088 287.728,326.553 287.193 C 326.270 286.910,325.923 287.022,325.444 287.551 M281.407 290.778 C 280.723 292.933,281.286 296.800,282.284 296.800 C 283.211 296.800,283.240 296.709,283.161 294.014 C 283.116 292.481,282.927 291.322,282.740 291.437 C 282.553 291.553,282.400 291.377,282.400 291.047 C 282.400 290.100,281.684 289.906,281.407 290.778 " stroke="none" fill="#ec5c2c" fill-rule="evenodd"></path></g></svg>