<svg width="392" height="394" viewBox="0 0 392 394" fill="none" xmlns="http://www.w3.org/2000/svg">
<path fill-rule="evenodd" clip-rule="evenodd" d="M137.359 66.6108L131.009 173.852C130.812 177.184 133.872 179.77 137.124 179.02L175.034 170.271C178.581 169.453 181.786 172.577 181.057 176.144L169.794 231.297C169.036 235.009 172.521 238.183 176.146 237.082L199.561 229.968C203.191 228.866 206.679 232.049 205.911 235.764L188.012 322.397C186.892 327.816 194.1 330.771 197.106 326.125L199.114 323.022L310.068 101.594C311.926 97.8867 308.722 93.6592 304.65 94.445L265.628 101.976C261.961 102.683 258.841 99.2682 259.876 95.6805L268.887 64.4416L289.704 60.6475L379.875 44.2122C388.195 42.6958 394.524 51.5498 390.397 58.931L206.399 387.951C202.6 394.744 192.84 394.784 188.984 388.024L1.33793 58.9627C-2.8629 51.596 3.43642 42.6729 11.7843 44.165L137.359 66.6108Z" fill="black"/>
<path d="M172.997 166.246L172.996 166.247L135.017 175.088C135.008 175.079 135.004 175.071 135.002 175.069C135.002 175.068 135.002 175.067 135.001 175.065C135.001 175.063 134.999 175.052 135 175.029C135 175.029 135 175.029 135 175.029L143.395 32.0242C143.395 32.0242 143.395 32.0237 143.395 32.0237C143.396 32.0084 143.398 32.0004 143.4 31.9951C143.403 31.9885 143.407 31.9823 143.411 31.9773C143.413 31.9758 143.414 31.9746 143.415 31.9737L279.86 5.00496C279.875 5.02225 279.881 5.03683 279.882 5.04054C279.882 5.04184 279.882 5.04516 279.881 5.05074C279.88 5.05708 279.878 5.0683 279.874 5.08475L254.349 94.3377C254.349 94.3378 254.349 94.3378 254.349 94.3378C252.308 101.477 258.46 108.427 265.876 106.985L265.877 106.985L304.972 99.3738C304.972 99.3749 304.973 99.376 304.974 99.3772C304.985 99.391 304.992 99.4048 304.996 99.4157C304.997 99.4182 304.998 99.4202 304.999 99.422C304.996 99.4301 304.991 99.4447 304.98 99.4661L304.98 99.4663L193.906 323.063L192.042 325.97L192.041 325.97C192.04 325.971 192.04 325.973 192.039 325.974C192.037 325.973 192.036 325.972 192.034 325.972C192.031 325.97 192.027 325.968 192.024 325.966C192.026 325.949 192.029 325.928 192.034 325.904L192.034 325.904L209.972 238.327C209.972 238.327 209.972 238.327 209.972 238.327C211.487 230.933 204.59 224.434 197.246 226.683L197.245 226.684L173.793 233.871C173.791 233.868 173.788 233.866 173.786 233.863C173.783 233.859 173.78 233.856 173.778 233.852C173.776 233.849 173.774 233.846 173.774 233.845C173.774 233.843 173.774 233.84 173.774 233.836C173.774 233.829 173.775 233.817 173.779 233.8L185.066 178.046C185.066 178.046 185.067 178.046 185.067 178.046C186.505 170.945 180.169 164.578 172.997 166.246Z" stroke="black" stroke-width="10"/>
</svg>
