<svg width="591" height="399" viewBox="0 0 591 399" fill="none" xmlns="http://www.w3.org/2000/svg">
<line x1="88.3757" y1="160.5" x2="428.765" y2="160.5" stroke="black" stroke-width="15" stroke-linecap="round"/>
<line x1="5.0047" y1="90.0047" x2="514.005" y2="90.4836" stroke="black" stroke-width="10" stroke-linecap="round"/>
<line x1="88.4218" y1="230.5" x2="343.611" y2="230.5" stroke="black" stroke-width="15" stroke-linecap="round"/>
<line x1="88.4218" y1="305.5" x2="343.611" y2="305.5" stroke="black" stroke-width="15" stroke-linecap="round"/>
<path d="M585.589 131.086L554.976 100.419C547.763 93.1941 536.088 93.1929 528.874 100.419C523.74 105.564 410.858 218.639 408.705 220.795C407.854 221.647 407.253 222.716 406.966 223.887L391.538 286.823C390.354 291.655 394.731 295.98 399.506 294.805C402.766 294.003 459.449 280.06 462.334 279.35C463.502 279.063 464.57 278.46 465.421 277.608C467.689 275.336 579.942 162.89 585.59 157.232C592.802 150.007 592.804 138.312 585.589 131.086ZM406.924 279.392L407.553 276.828L409.483 278.762L406.924 279.392ZM424.44 275.084L411.225 261.846L416.972 238.405L447.841 269.327L424.44 275.084ZM460.763 263.612L422.677 225.461L521.026 126.943L559.112 165.094L460.763 263.612ZM576.275 147.902L568.668 155.522L530.582 117.37L538.189 109.75C540.254 107.683 543.597 107.681 545.662 109.75L576.276 140.417C578.341 142.486 578.341 145.833 576.275 147.902Z" fill="black"/>
<path d="M120.305 50.5C120.305 59.339 113.152 66.5 104.335 66.5C95.5172 66.5 88.3647 59.339 88.3647 50.5C88.3647 41.661 95.5172 34.5 104.335 34.5C113.152 34.5 120.305 41.661 120.305 50.5Z" fill="black" stroke="black" stroke-width="3"/>
<path d="M166.226 50.5C166.226 59.339 159.074 66.5 150.256 66.5C141.438 66.5 134.286 59.339 134.286 50.5C134.286 41.661 141.438 34.5 150.256 34.5C159.074 34.5 166.226 41.661 166.226 50.5Z" fill="black" stroke="black" stroke-width="3"/>
<ellipse cx="62.4067" cy="50.5" rx="17.47" ry="17.5" fill="black"/>
<path d="M418 237.724L421.633 241.16L421.633 241.16L524.541 132.354C525.129 131.732 525.605 131.029 525.96 130.275L557.735 166.751C561.479 171.049 561.408 177.471 557.569 181.684L523.128 219.486C517.255 225.932 514 234.338 514 243.058V369C514 382.807 502.807 394 489 394H30C16.1929 394 5 382.807 5 369V30C5 16.1929 16.1929 5 30 5H489C502.807 5 514 16.1929 514 30V118.968C514 125.356 511.555 131.502 507.166 136.144L414.375 234.28L414.367 234.289L414.367 234.289L418 237.724Z" stroke="black" stroke-width="10"/>
</svg>
